<mxfile host="app.diagrams.net" agent="Mozilla/5.0 (Windows NT 10.0; Win64; x64) AppleWebKit/537.36 (KHTML, like Gecko) Chrome/140.0.0.0 Safari/537.36" version="28.2.4" pages="2">
  <diagram id="U-Ia85U21A9ycxRSyI-t" name="LMWY - Activación de tarjetas Wallet">
    <mxGraphModel dx="1310" dy="828" grid="1" gridSize="10" guides="1" tooltips="1" connect="1" arrows="1" fold="1" page="1" pageScale="1" pageWidth="827" pageHeight="1169" math="0" shadow="0">
      <root>
        <mxCell id="0" />
        <mxCell id="1" parent="0" />
        <mxCell id="q1FSfACkbBMbSRhOJW1q-1" value="&lt;div&gt;&lt;font&gt;&lt;b&gt;Funcionalidad:&lt;/b&gt;&lt;span&gt;&amp;nbsp;Transacción LMZ9 - Consulta Comisión por Bloqueo&lt;/span&gt;&lt;/font&gt;&lt;/div&gt;&lt;div&gt;&lt;span&gt;&lt;font&gt;&lt;br&gt;&lt;/font&gt;&lt;/span&gt;&lt;/div&gt;&lt;div&gt;&lt;font&gt;&lt;b&gt;Alcance&lt;/b&gt;: MPV-Full Debit&amp;nbsp;&amp;nbsp;- Esta transacción apoya a informar al Cliente Santander el costo de la comisión de bloqueo por &lt;font style=&quot;color: rgb(255, 0, 0);&quot;&gt;r&lt;b&gt;eposición (reemisión&lt;/b&gt;&lt;/font&gt;).&lt;/font&gt;&lt;/div&gt;&lt;div&gt;&lt;br&gt;&lt;/div&gt;&lt;div&gt;&lt;div&gt;&lt;div&gt;&lt;b&gt;Reglas de negocio&lt;/b&gt;&lt;/div&gt;&lt;/div&gt;&lt;div&gt;&lt;ul&gt;&lt;li&gt;&lt;span data-teams=&quot;true&quot;&gt;Solo aplica para tarjetas de débito nuevas&lt;/span&gt;&lt;/li&gt;&lt;li&gt;&lt;span style=&quot;background-color: initial;&quot;&gt;&lt;font style=&quot;color: rgb(0, 0, 0);&quot;&gt;La tarjeta de débito no debe estar activa.&lt;/font&gt;&lt;/span&gt;&lt;/li&gt;&lt;/ul&gt;&lt;/div&gt;&lt;div&gt;&lt;b style=&quot;background-color: initial;&quot;&gt;&lt;font&gt;Precondiciones:&lt;/font&gt;&lt;/b&gt;&lt;/div&gt;&lt;div&gt;&lt;ul&gt;&lt;li&gt;&lt;span style=&quot;background-color: initial; color: light-dark(rgb(0, 0, 0), rgb(237, 237, 237));&quot;&gt;El cliente Santander debe estar autenticado en el portal Santander Web con sus credenciales válidas.&lt;/span&gt;&lt;/li&gt;&lt;li&gt;&lt;span style=&quot;background-color: initial;&quot;&gt;&lt;font style=&quot;color: rgb(0, 0, 0);&quot;&gt;El cliente Santander debe tener al menos una tarjeta de débito emitida&amp;nbsp;en la que su estatus de la situación de tarjeta sea pendiente de activar.&lt;/font&gt;&lt;/span&gt;&lt;/li&gt;&lt;/ul&gt;&lt;div&gt;&lt;/div&gt;&lt;/div&gt;&lt;div&gt;&lt;font&gt;&lt;b style=&quot;background-color: initial;&quot;&gt;Post-Condiciones:&lt;/b&gt;&lt;/font&gt;&lt;/div&gt;&lt;div&gt;&lt;br&gt;&lt;/div&gt;&lt;div&gt;&lt;ul style=&quot;margin-top: 0cm;&quot; type=&quot;disc&quot;&gt;&lt;li&gt;La tarjeta de débito del cliente queda activa y lista para ser utilizada en operaciones y transacciones bancarias.&lt;/li&gt;&lt;li&gt;El cliente Santander es notificado&amp;nbsp;a través del portal de Santander Web de la consulta comisión exitosa de la tarjeta de débito.&lt;/li&gt;&lt;li&gt;&lt;font style=&quot;color: rgb(0, 0, 0);&quot;&gt;El estatus de situación de la tarjeta PLARD deberá cambiar a &quot;XXX&quot; (pendiente de definir por Santander)&lt;/font&gt;&lt;/li&gt;&lt;/ul&gt;&lt;div&gt;&lt;div&gt;&lt;div&gt;&lt;/div&gt;&lt;/div&gt;&lt;/div&gt;&lt;/div&gt;&lt;/div&gt;" style="text;html=1;align=left;verticalAlign=top;whiteSpace=wrap;rounded=0;fontSize=12;strokeColor=default;fontColor=#000000;" parent="1" vertex="1">
          <mxGeometry x="10" y="50" width="510" height="470" as="geometry" />
        </mxCell>
        <mxCell id="q1FSfACkbBMbSRhOJW1q-2" value="Funcionalidad" style="rounded=0;whiteSpace=wrap;html=1;fontSize=14;fontStyle=1;fillColor=#bac8d3;strokeColor=#23445d;" parent="1" vertex="1">
          <mxGeometry x="10" y="10" width="510" height="40" as="geometry" />
        </mxCell>
        <mxCell id="q1FSfACkbBMbSRhOJW1q-3" value="Escenarios" style="rounded=0;whiteSpace=wrap;html=1;fontSize=15;fontStyle=1;align=center;fillColor=#bac8d3;strokeColor=#23445d;shadow=0;" parent="1" vertex="1">
          <mxGeometry x="10" y="528" width="509" height="42" as="geometry" />
        </mxCell>
        <mxCell id="q1FSfACkbBMbSRhOJW1q-4" value="&lt;div style=&quot;&quot;&gt;&lt;b style=&quot;background-color: transparent; color: light-dark(rgb(0, 0, 0), rgb(255, 255, 255)); font-size: 13px;&quot;&gt;Escenario 1: CANALES PROCESO OPERATIVO: SANWEB, APPIAN, TFL&amp;nbsp;&lt;/b&gt;&lt;/div&gt;&lt;div style=&quot;&quot;&gt;&lt;div&gt;&lt;br&gt;&lt;/div&gt;&lt;div&gt;&lt;span style=&quot;background-color: transparent; color: light-dark(rgb(0, 0, 0), rgb(255, 255, 255));&quot;&gt;El Cliente Santander requiere la consulta comisión de una tarjeta de débito (TDD)&amp;nbsp;&lt;/span&gt;&lt;span style=&quot;background-color: transparent; color: light-dark(rgb(0, 0, 0), rgb(255, 255, 255));&quot;&gt;a través del canal digital Santander Web (sanweb), informando los datos de número de tarjeta (PAN), usuario, canal y PIN block, lo cual brindara información para realizar la consulta comisión de la tarjeta.&lt;/span&gt;&lt;/div&gt;&lt;div&gt;&lt;span style=&quot;background-color: transparent; color: light-dark(rgb(0, 0, 0), rgb(255, 255, 255));&quot;&gt;&lt;b&gt;&lt;br&gt;&lt;/b&gt;&lt;/span&gt;&lt;/div&gt;&lt;div&gt;&lt;b&gt;Consideraciones:&lt;/b&gt;&lt;/div&gt;&lt;div&gt;&lt;ul&gt;&lt;li&gt;&lt;div style=&quot;font-weight: 400;&quot;&gt;&lt;span style=&quot;background-color: transparent; color: light-dark(rgb(0, 0, 0), rgb(255, 255, 255));&quot;&gt;El Cliente selecciona la opción activar tarjeta a través de la sistema web del canal Santander Web.&lt;/span&gt;&lt;/div&gt;&lt;/li&gt;&lt;li&gt;&lt;div style=&quot;font-weight: 400;&quot;&gt;&lt;span style=&quot;background-color: transparent;&quot;&gt;&lt;font style=&quot;color: light-dark(rgb(0, 0, 0), rgb(255, 255, 255));&quot;&gt;La capa de integración consulta la API PLARD Device Life Cycle para realizar la consulta comisión. En caso de no contar con el PAN no se realizará la consulta comisión de la tarjeta de débito seleccionada.&lt;/font&gt;&lt;/span&gt;&lt;/div&gt;&lt;/li&gt;&lt;/ul&gt;&lt;/div&gt;&lt;/div&gt;" style="text;html=1;align=left;verticalAlign=top;whiteSpace=wrap;rounded=0;fontSize=12;strokeWidth=1;strokeColor=default;" parent="1" vertex="1">
          <mxGeometry x="11" y="580" width="509" height="242" as="geometry" />
        </mxCell>
        <mxCell id="q1FSfACkbBMbSRhOJW1q-5" value="Transacción Altair 390: LMZ9 (PAMPA)" style="rounded=0;whiteSpace=wrap;html=1;fillColor=#bac8d3;strokeColor=#23445d;fontSize=14;fontStyle=1;verticalAlign=top;container=0;" parent="1" vertex="1">
          <mxGeometry x="531" y="70" width="979" height="42" as="geometry" />
        </mxCell>
        <mxCell id="q1FSfACkbBMbSRhOJW1q-6" value="API PLARD" style="rounded=0;whiteSpace=wrap;html=1;fillColor=#bac8d3;strokeColor=#23445d;fontSize=14;fontStyle=1;verticalAlign=top;container=0;" parent="1" vertex="1">
          <mxGeometry x="1540" y="70" width="1350" height="42" as="geometry" />
        </mxCell>
        <mxCell id="q1FSfACkbBMbSRhOJW1q-7" value="&lt;span style=&quot;font-size: 12px;&quot;&gt;Formato = LMMWYE1:&amp;nbsp;&lt;/span&gt;&lt;span style=&quot;font-size: 12px; white-space: pre;&quot;&gt;&#x9;&lt;/span&gt;&lt;span style=&quot;font-size: 12px;&quot;&gt;&amp;nbsp;consulta comisión DE TARJETAS WALLETS&lt;/span&gt;&lt;span style=&quot;font-size: 12px; white-space: pre;&quot;&gt;&#x9;&lt;span style=&quot;white-space: pre;&quot;&gt;&#x9;&lt;/span&gt;&lt;span style=&quot;white-space: pre;&quot;&gt;&#x9;&#x9;&#x9;&lt;/span&gt; &lt;/span&gt;&amp;nbsp; &amp;nbsp; &amp;nbsp; &amp;nbsp; &amp;nbsp; &amp;nbsp; &amp;nbsp; &amp;nbsp; &amp;nbsp; &amp;nbsp; &amp;nbsp; &amp;nbsp; &amp;nbsp;&lt;span style=&quot;font-size: 12px; white-space: pre;&quot;&gt;&lt;span style=&quot;white-space: pre;&quot;&gt;&#x9;&lt;/span&gt;&lt;/span&gt;&lt;span style=&quot;font-size: 12px; white-space: pre;&quot;&gt;&#x9;&lt;/span&gt;&lt;span style=&quot;font-size: 12px;&quot;&gt;&amp;nbsp; &amp;nbsp; &amp;nbsp; &amp;nbsp; &amp;nbsp; &amp;nbsp; &amp;nbsp; &amp;nbsp; &amp;nbsp; &amp;nbsp; &amp;nbsp; &amp;nbsp; &amp;nbsp; &amp;nbsp; &amp;nbsp; &amp;nbsp; &amp;nbsp; Tipo (E/S/A) = Entrada&lt;/span&gt;" style="rounded=0;whiteSpace=wrap;html=1;fillColor=#EEEEEE;strokeColor=#23445d;fontSize=14;fontStyle=1;align=left;" parent="1" vertex="1">
          <mxGeometry x="531" y="112" width="979" height="178" as="geometry" />
        </mxCell>
        <mxCell id="q1FSfACkbBMbSRhOJW1q-8" value="Mapeo" style="rounded=0;whiteSpace=wrap;html=1;fillColor=#bac8d3;strokeColor=#23445d;fontSize=14;fontStyle=1;verticalAlign=top;container=0;" parent="1" vertex="1">
          <mxGeometry x="530" y="10" width="2360" height="42" as="geometry" />
        </mxCell>
        <mxCell id="q1FSfACkbBMbSRhOJW1q-9" value="&lt;font style=&quot;font-size: 12px;&quot;&gt;Método: API Device Life Cycle&amp;nbsp;&lt;/font&gt;&lt;div&gt;&lt;font style=&quot;font-size: 12px;&quot;&gt;Endpoint / Recurso: /life-cycle/v3/devices/activate-physical-type&lt;/font&gt;&lt;/div&gt;" style="rounded=0;whiteSpace=wrap;html=1;fillColor=#EEEEEE;strokeColor=#23445d;fontSize=14;fontStyle=1;align=left;" parent="1" vertex="1">
          <mxGeometry x="1540" y="112" width="1350" height="98" as="geometry" />
        </mxCell>
        <mxCell id="q1FSfACkbBMbSRhOJW1q-10" value="&lt;div&gt;&lt;font style=&quot;&quot;&gt;&lt;span style=&quot;font-size: 12px;&quot;&gt;Formato = LMMWYE1:&amp;nbsp;&lt;/span&gt;&lt;span style=&quot;font-size: 12px; white-space: pre;&quot;&gt;&#x9;&lt;/span&gt;&lt;span style=&quot;font-size: 12px;&quot;&gt;&amp;nbsp;consulta comisión DE TARJETAS WALLETS&amp;nbsp; &amp;nbsp; &amp;nbsp; &amp;nbsp; &amp;nbsp; &amp;nbsp; &amp;nbsp; &amp;nbsp; &amp;nbsp; &amp;nbsp; &amp;nbsp; &amp;nbsp; &amp;nbsp; &amp;nbsp; &amp;nbsp; &amp;nbsp; &amp;nbsp; &amp;nbsp; &amp;nbsp; &amp;nbsp; &amp;nbsp; &amp;nbsp; &amp;nbsp; &amp;nbsp; &amp;nbsp; &amp;nbsp; &amp;nbsp; &amp;nbsp; &amp;nbsp; &amp;nbsp; &amp;nbsp; &amp;nbsp; &amp;nbsp; &amp;nbsp; &amp;nbsp; &amp;nbsp; &amp;nbsp; &amp;nbsp; &amp;nbsp; &amp;nbsp; &amp;nbsp; &amp;nbsp; &amp;nbsp; &amp;nbsp; &amp;nbsp;&lt;/span&gt;&lt;/font&gt;&lt;span style=&quot;background-color: transparent; color: light-dark(rgb(0, 0, 0), rgb(255, 255, 255)); font-size: 12px; white-space: pre;&quot;&gt;&quot;CONSULTA POR PAN&lt;/span&gt;&lt;span style=&quot;background-color: transparent; color: light-dark(rgb(0, 0, 0), rgb(255, 255, 255)); font-size: 12px;&quot;&gt;&quot;&lt;/span&gt;&lt;span style=&quot;background-color: transparent; color: light-dark(rgb(0, 0, 0), rgb(255, 255, 255)); font-size: 12px; white-space: pre;&quot;&gt;&#x9;&lt;span style=&quot;white-space: pre;&quot;&gt;&#x9;&lt;/span&gt;&lt;span style=&quot;white-space: pre;&quot;&gt;&#x9;&#x9;&#x9;&lt;/span&gt; &lt;/span&gt;&lt;span style=&quot;background-color: transparent; color: light-dark(rgb(0, 0, 0), rgb(255, 255, 255));&quot;&gt;&amp;nbsp; &amp;nbsp; &amp;nbsp; &amp;nbsp; &amp;nbsp; &amp;nbsp; &amp;nbsp; &amp;nbsp; &amp;nbsp; &amp;nbsp; &amp;nbsp; &amp;nbsp; &amp;nbsp;&lt;/span&gt;&lt;span style=&quot;background-color: transparent; color: light-dark(rgb(0, 0, 0), rgb(255, 255, 255)); font-size: 12px; white-space: pre;&quot;&gt;&#x9;&lt;/span&gt;&lt;span style=&quot;background-color: transparent; color: light-dark(rgb(0, 0, 0), rgb(255, 255, 255)); font-size: 12px; white-space: pre;&quot;&gt;&#x9;&lt;/span&gt;&lt;span style=&quot;background-color: transparent; color: light-dark(rgb(0, 0, 0), rgb(255, 255, 255)); font-size: 12px;&quot;&gt;&amp;nbsp; &amp;nbsp; &amp;nbsp; &amp;nbsp; &amp;nbsp; &amp;nbsp; &amp;nbsp; &amp;nbsp; &amp;nbsp; &amp;nbsp; &amp;nbsp; &amp;nbsp; &amp;nbsp; &amp;nbsp; &amp;nbsp; &amp;nbsp; &amp;nbsp; Tipo (E/S/A) = Entrada&lt;/span&gt;&lt;/div&gt;&lt;div&gt;&lt;/div&gt;" style="rounded=0;whiteSpace=wrap;html=1;fillColor=#EEEEEE;strokeColor=#23445d;fontSize=14;fontStyle=1;align=left;" parent="1" vertex="1">
          <mxGeometry x="1540" y="210" width="1350" height="79.11" as="geometry" />
        </mxCell>
        <mxCell id="q1FSfACkbBMbSRhOJW1q-11" value="&lt;div style=&quot;font-size: medium; text-align: start;&quot; data-ccp-timestamp=&quot;1756497169558&quot;&gt;&lt;table style=&quot;border-collapse: collapse; width: 971pt;&quot; width=&quot;1294&quot;&gt;&lt;colgroup&gt;&lt;col style=&quot;width: 15pt;&quot; width=&quot;20&quot;&gt;&lt;col style=&quot;width: 62pt;&quot; width=&quot;83&quot;&gt;&lt;col style=&quot;width: 159pt;&quot; width=&quot;212&quot;&gt;&lt;col style=&quot;width: 34pt;&quot; width=&quot;45&quot;&gt;&lt;col style=&quot;width: 87pt;&quot; width=&quot;116&quot;&gt;&lt;col style=&quot;width: 20pt;&quot; width=&quot;27&quot;&gt;&lt;col style=&quot;width: 25pt;&quot; width=&quot;33&quot;&gt;&lt;col style=&quot;width: 123pt;&quot; width=&quot;164&quot;&gt;&lt;col style=&quot;width: 41pt;&quot; width=&quot;54&quot;&gt;&lt;col style=&quot;width: 214pt;&quot; width=&quot;285&quot;&gt;&lt;col style=&quot;width: 48pt;&quot; width=&quot;64&quot;&gt;&lt;col style=&quot;width: 143pt;&quot; width=&quot;191&quot;&gt;&lt;/colgroup&gt;&lt;tbody&gt;&lt;tr style=&quot;height: 15pt;&quot; height=&quot;20&quot;&gt;&lt;td style=&quot;padding-top: 1px; padding-right: 1px; padding-left: 1px; color: rgb(0, 32, 96); font-size: 8pt; font-weight: 700; font-family: Calibri; vertical-align: bottom; border: 0.5pt solid black; text-wrap-mode: nowrap; background: rgb(217, 225, 242); width: 15pt; height: 15pt;&quot; class=&quot;xl446&quot; height=&quot;20&quot; width=&quot;20&quot;&gt;#&lt;/td&gt;&lt;td style=&quot;padding-top: 1px; padding-right: 1px; padding-left: 1px; font-size: 8pt; font-weight: 700; font-family: Calibri, sans-serif; vertical-align: middle; border: 0.5pt solid black; text-wrap-mode: nowrap; background: rgb(217, 225, 242); width: 62pt;&quot; class=&quot;xl441&quot; width=&quot;83&quot;&gt;API&lt;/td&gt;&lt;td style=&quot;padding-top: 1px; padding-right: 1px; padding-left: 1px; font-size: 8pt; font-weight: 700; font-family: Calibri, sans-serif; vertical-align: middle; border: 0.5pt solid black; text-wrap-mode: nowrap; background: rgb(217, 225, 242); width: 159pt;&quot; class=&quot;xl441&quot; width=&quot;212&quot;&gt;Endpoint&lt;/td&gt;&lt;td style=&quot;padding-top: 1px; padding-right: 1px; padding-left: 1px; font-size: 8pt; font-weight: 700; font-family: Calibri, sans-serif; vertical-align: middle; border: 0.5pt solid black; text-wrap-mode: nowrap; background: rgb(217, 225, 242); width: 34pt;&quot; class=&quot;xl441&quot; width=&quot;45&quot;&gt;Método&lt;/td&gt;&lt;td style=&quot;padding-top: 1px; padding-right: 1px; padding-left: 1px; font-size: 8pt; font-weight: 700; font-family: Calibri, sans-serif; vertical-align: middle; border: 0.5pt solid black; text-wrap-mode: nowrap; background: rgb(217, 225, 242); width: 87pt;&quot; class=&quot;xl441&quot; width=&quot;116&quot;&gt;Campo&lt;/td&gt;&lt;td style=&quot;padding-top: 1px; padding-right: 1px; padding-left: 1px; font-size: 8pt; font-weight: 700; font-family: Calibri, sans-serif; vertical-align: middle; border: 0.5pt solid black; text-wrap-mode: nowrap; background: rgb(217, 225, 242); width: 20pt;&quot; class=&quot;xl441&quot; width=&quot;27&quot;&gt;LNG&lt;/td&gt;&lt;td style=&quot;padding-top: 1px; padding-right: 1px; padding-left: 1px; font-size: 8pt; font-weight: 700; font-family: Calibri, sans-serif; vertical-align: middle; border: 0.5pt solid black; text-wrap-mode: nowrap; background: rgb(217, 225, 242); width: 25pt;&quot; class=&quot;xl441&quot; width=&quot;33&quot;&gt;TIPO&lt;/td&gt;&lt;td style=&quot;padding-top: 1px; padding-right: 1px; padding-left: 1px; font-size: 8pt; font-weight: 700; font-family: Calibri, sans-serif; vertical-align: middle; border: 0.5pt solid black; text-wrap-mode: nowrap; background: rgb(217, 225, 242); width: 123pt;&quot; class=&quot;xl441&quot; width=&quot;164&quot;&gt;DESCRIPCIÓN&lt;/td&gt;&lt;td style=&quot;padding-top: 1px; padding-right: 1px; padding-left: 1px; font-size: 8pt; font-weight: 700; font-family: Calibri, sans-serif; vertical-align: middle; border: 0.5pt solid black; text-wrap-mode: nowrap; background: rgb(217, 225, 242); width: 41pt;&quot; class=&quot;xl441&quot; width=&quot;54&quot;&gt;USO&lt;/td&gt;&lt;td style=&quot;padding-top: 1px; padding-right: 1px; padding-left: 1px; font-size: 8pt; font-weight: 700; font-family: Calibri, sans-serif; vertical-align: middle; border: 0.5pt solid black; text-wrap-mode: nowrap; background: rgb(217, 225, 242); width: 214pt;&quot; class=&quot;xl441&quot; width=&quot;285&quot;&gt;OBSERVACIONES&lt;/td&gt;&lt;td style=&quot;padding-top: 1px; padding-right: 1px; padding-left: 1px; font-size: 8pt; font-weight: 700; font-family: Calibri, sans-serif; vertical-align: middle; border: 0.5pt solid black; text-wrap-mode: nowrap; background: rgb(217, 225, 242); width: 48pt;&quot; class=&quot;xl441&quot; width=&quot;64&quot;&gt;FORMATO&lt;/td&gt;&lt;td style=&quot;padding-top: 1px; padding-right: 1px; padding-left: 1px; font-size: 8pt; font-weight: 700; font-family: Calibri, sans-serif; vertical-align: middle; border: 0.5pt solid black; text-wrap-mode: nowrap; background: rgb(217, 225, 242); width: 143pt;&quot; class=&quot;xl441&quot; width=&quot;191&quot;&gt;Reglas de mapeo&lt;/td&gt;&lt;/tr&gt;&lt;tr style=&quot;height: 23.25pt;&quot; height=&quot;31&quot;&gt;&lt;td style=&quot;padding-top: 1px; padding-right: 1px; padding-left: 1px; color: rgb(0, 32, 96); font-size: 8pt; font-family: Calibri; vertical-align: bottom; border: 0.5pt solid black; text-wrap-mode: nowrap; height: 23.25pt;&quot; align=&quot;right&quot; class=&quot;xl447&quot; height=&quot;31&quot;&gt;1&lt;/td&gt;&lt;td style=&quot;padding-top: 1px; padding-right: 1px; padding-left: 1px; font-size: 8pt; font-family: Calibri; vertical-align: bottom; border: 0.5pt solid black; text-wrap-mode: nowrap;&quot; class=&quot;xl442&quot;&gt;Device Life Cycle&lt;/td&gt;&lt;td style=&quot;padding-top: 1px; padding-right: 1px; padding-left: 1px; font-size: 8pt; font-family: Calibri; vertical-align: bottom; border: 0.5pt solid black; text-wrap-mode: nowrap;&quot; class=&quot;xl442&quot;&gt;/life-cycle/v3/devices/activate-physical-type&lt;/td&gt;&lt;td style=&quot;padding-top: 1px; padding-right: 1px; padding-left: 1px; font-size: 8pt; font-family: Calibri; vertical-align: bottom; border: 0.5pt solid black; text-wrap-mode: nowrap;&quot; class=&quot;xl442&quot;&gt;POST&lt;/td&gt;&lt;td style=&quot;padding-top: 1px; padding-right: 1px; padding-left: 1px; font-size: 8pt; font-family: Calibri; vertical-align: bottom; border: 0.5pt solid black; text-wrap-mode: nowrap;&quot; class=&quot;xl442&quot;&gt;deviceId&lt;/td&gt;&lt;td style=&quot;padding-top: 1px; padding-right: 1px; padding-left: 1px; font-size: 8pt; font-family: Calibri; vertical-align: bottom; border: 0.5pt solid black; text-wrap-mode: nowrap;&quot; align=&quot;right&quot; class=&quot;xl442&quot;&gt;60&lt;/td&gt;&lt;td style=&quot;padding-top: 1px; padding-right: 1px; padding-left: 1px; font-size: 8pt; font-family: Calibri; vertical-align: bottom; border: 0.5pt solid black; text-wrap-mode: nowrap;&quot; class=&quot;xl442&quot;&gt;string&lt;/td&gt;&lt;td style=&quot;padding-top: 1px; padding-right: 1px; padding-left: 1px; font-size: 8pt; font-family: Calibri; vertical-align: bottom; border: 0.5pt solid black; text-wrap-mode: nowrap;&quot; class=&quot;xl442&quot;&gt;device code&lt;/td&gt;&lt;td style=&quot;padding-top: 1px; padding-right: 1px; padding-left: 1px; font-size: 8pt; font-family: Calibri; vertical-align: bottom; border: 0.5pt solid black; text-wrap-mode: nowrap;&quot; class=&quot;xl442&quot;&gt;Requerido&lt;/td&gt;&lt;td style=&quot;padding-top: 1px; padding-right: 1px; padding-left: 1px; font-size: 8pt; font-family: Calibri; vertical-align: bottom; border: 0.5pt solid black; width: 214pt;&quot; class=&quot;xl219&quot; width=&quot;285&quot;&gt;El deviceId debe obtenerse desde la información enviada por el Launcher&lt;/td&gt;&lt;td style=&quot;padding-top: 1px; padding-right: 1px; padding-left: 1px; font-size: 8pt; font-family: &amp;quot;Courier New&amp;quot;, monospace; vertical-align: bottom; border: 0.5pt solid black; text-wrap-mode: nowrap;&quot; class=&quot;xl448&quot;&gt;&lt;/td&gt;&lt;td style=&quot;padding-top: 1px; padding-right: 1px; padding-left: 1px; font-size: 8pt; font-family: Calibri; vertical-align: bottom; border: 0.5pt solid black; text-wrap-mode: nowrap;&quot; class=&quot;xl442&quot;&gt;messageStreamDto.getDeviceId()&lt;/td&gt;&lt;/tr&gt;&lt;tr style=&quot;height: 15pt;&quot; height=&quot;20&quot;&gt;&lt;td style=&quot;padding-top: 1px; padding-right: 1px; padding-left: 1px; color: rgb(0, 32, 96); font-size: 8pt; font-family: Calibri; vertical-align: bottom; border: 0.5pt solid black; text-wrap-mode: nowrap; height: 15pt;&quot; align=&quot;right&quot; class=&quot;xl447&quot; height=&quot;20&quot;&gt;2&lt;/td&gt;&lt;td style=&quot;padding-top: 1px; padding-right: 1px; padding-left: 1px; font-size: 8pt; font-family: Calibri; vertical-align: bottom; border: 0.5pt solid black; text-wrap-mode: nowrap;&quot; class=&quot;xl442&quot;&gt;&lt;/td&gt;&lt;td style=&quot;padding-top: 1px; padding-right: 1px; padding-left: 1px; font-size: 8pt; font-family: Calibri; vertical-align: bottom; border: 0.5pt solid black; text-wrap-mode: nowrap;&quot; class=&quot;xl442&quot;&gt;&lt;/td&gt;&lt;td style=&quot;padding-top: 1px; padding-right: 1px; padding-left: 1px; font-size: 8pt; font-family: Calibri; vertical-align: bottom; border: 0.5pt solid black; text-wrap-mode: nowrap;&quot; class=&quot;xl442&quot;&gt;&lt;/td&gt;&lt;td style=&quot;padding-top: 1px; padding-right: 1px; padding-left: 1px; font-size: 8pt; font-family: Calibri; vertical-align: bottom; border: 0.5pt solid black; text-wrap-mode: nowrap;&quot; class=&quot;xl442&quot;&gt;&lt;/td&gt;&lt;td style=&quot;padding-top: 1px; padding-right: 1px; padding-left: 1px; font-size: 8pt; font-family: Calibri; vertical-align: bottom; border: 0.5pt solid black; text-wrap-mode: nowrap;&quot; class=&quot;xl442&quot;&gt;&lt;/td&gt;&lt;td style=&quot;padding-top: 1px; padding-right: 1px; padding-left: 1px; font-size: 8pt; font-family: Calibri; vertical-align: bottom; border: 0.5pt solid black; text-wrap-mode: nowrap;&quot; class=&quot;xl442&quot;&gt;&lt;/td&gt;&lt;td style=&quot;padding-top: 1px; padding-right: 1px; padding-left: 1px; font-size: 8pt; font-family: Calibri; vertical-align: bottom; border: 0.5pt solid black; text-wrap-mode: nowrap;&quot; class=&quot;xl442&quot;&gt;&lt;/td&gt;&lt;td style=&quot;padding-top: 1px; padding-right: 1px; padding-left: 1px; font-size: 8pt; font-family: Calibri; vertical-align: bottom; border: 0.5pt solid black; text-wrap-mode: nowrap;&quot; class=&quot;xl442&quot;&gt;&lt;/td&gt;&lt;td style=&quot;padding-top: 1px; padding-right: 1px; padding-left: 1px; font-size: 8pt; font-family: Calibri; vertical-align: bottom; border: 0.5pt solid black; text-wrap-mode: nowrap;&quot; class=&quot;xl442&quot;&gt;&lt;/td&gt;&lt;td style=&quot;padding-top: 1px; padding-right: 1px; padding-left: 1px; font-size: 8pt; font-family: Calibri; vertical-align: bottom; border: 0.5pt solid black; text-wrap-mode: nowrap;&quot; class=&quot;xl442&quot;&gt;&lt;/td&gt;&lt;td style=&quot;padding-top: 1px; padding-right: 1px; padding-left: 1px; font-size: 8pt; font-family: Calibri; vertical-align: bottom; border: 0.5pt solid black; text-wrap-mode: nowrap;&quot; class=&quot;xl442&quot;&gt;&lt;/td&gt;&lt;/tr&gt;&lt;tr style=&quot;height: 23.25pt;&quot; height=&quot;31&quot;&gt;&lt;td style=&quot;padding-top: 1px; padding-right: 1px; padding-left: 1px; color: rgb(0, 32, 96); font-size: 8pt; font-family: Calibri; vertical-align: bottom; border: 0.5pt solid black; text-wrap-mode: nowrap; height: 23.25pt;&quot; align=&quot;right&quot; class=&quot;xl447&quot; height=&quot;31&quot;&gt;3&lt;/td&gt;&lt;td style=&quot;padding-top: 1px; padding-right: 1px; padding-left: 1px; font-size: 8pt; font-family: Calibri; vertical-align: bottom; border: 0.5pt solid black; text-wrap-mode: nowrap;&quot; class=&quot;xl442&quot;&gt;&lt;/td&gt;&lt;td style=&quot;padding-top: 1px; padding-right: 1px; padding-left: 1px; font-size: 8pt; font-family: Calibri; vertical-align: bottom; border: 0.5pt solid black; text-wrap-mode: nowrap;&quot; class=&quot;xl442&quot;&gt;&lt;/td&gt;&lt;td style=&quot;padding-top: 1px; padding-right: 1px; padding-left: 1px; font-size: 8pt; font-family: Calibri; vertical-align: bottom; border: 0.5pt solid black; text-wrap-mode: nowrap;&quot; class=&quot;xl442&quot;&gt;&lt;/td&gt;&lt;td style=&quot;padding-top: 1px; padding-right: 1px; padding-left: 1px; font-size: 8pt; font-family: Calibri; vertical-align: bottom; border: 0.5pt solid black; text-wrap-mode: nowrap;&quot; class=&quot;xl442&quot;&gt;&lt;/td&gt;&lt;td style=&quot;padding-top: 1px; padding-right: 1px; padding-left: 1px; font-size: 8pt; font-family: Calibri; vertical-align: bottom; border: 0.5pt solid black; text-wrap-mode: nowrap;&quot; class=&quot;xl442&quot;&gt;&lt;/td&gt;&lt;td style=&quot;padding-top: 1px; padding-right: 1px; padding-left: 1px; font-size: 8pt; font-family: Calibri; vertical-align: bottom; border: 0.5pt solid black; text-wrap-mode: nowrap;&quot; class=&quot;xl442&quot;&gt;&lt;/td&gt;&lt;td style=&quot;padding-top: 1px; padding-right: 1px; padding-left: 1px; font-size: 8pt; font-family: Calibri; vertical-align: bottom; border: 0.5pt solid black; text-wrap-mode: nowrap;&quot; class=&quot;xl442&quot;&gt;&lt;/td&gt;&lt;td style=&quot;padding-top: 1px; padding-right: 1px; padding-left: 1px; font-size: 8pt; font-family: Calibri; vertical-align: bottom; border: 0.5pt solid black; text-wrap-mode: nowrap;&quot; class=&quot;xl442&quot;&gt;&lt;/td&gt;&lt;td style=&quot;padding-top: 1px; padding-right: 1px; padding-left: 1px; font-size: 8pt; font-family: Calibri; vertical-align: bottom; border: 0.5pt solid black; text-wrap-mode: nowrap;&quot; class=&quot;xl442&quot;&gt;&lt;/td&gt;&lt;td style=&quot;padding-top: 1px; padding-right: 1px; padding-left: 1px; font-size: 8pt; font-family: Calibri; vertical-align: bottom; border: 0.5pt solid black; text-wrap-mode: nowrap;&quot; class=&quot;xl442&quot;&gt;&lt;/td&gt;&lt;td style=&quot;padding-top: 1px; padding-right: 1px; padding-left: 1px; font-size: 8pt; font-family: Calibri; vertical-align: bottom; border: 0.5pt solid black; text-wrap-mode: nowrap;&quot; class=&quot;xl442&quot;&gt;&lt;/td&gt;&lt;/tr&gt;&lt;tr style=&quot;height: 15pt;&quot; height=&quot;20&quot;&gt;&lt;td style=&quot;padding-top: 1px; padding-right: 1px; padding-left: 1px; color: rgb(0, 32, 96); font-size: 8pt; font-family: Calibri; vertical-align: bottom; border: 0.5pt solid black; text-wrap-mode: nowrap; height: 15pt;&quot; align=&quot;right&quot; class=&quot;xl447&quot; height=&quot;20&quot;&gt;4&lt;/td&gt;&lt;td style=&quot;padding-top: 1px; padding-right: 1px; padding-left: 1px; font-size: 8pt; font-family: Calibri; vertical-align: bottom; border: 0.5pt solid black; text-wrap-mode: nowrap;&quot; class=&quot;xl442&quot;&gt;&lt;/td&gt;&lt;td style=&quot;padding-top: 1px; padding-right: 1px; padding-left: 1px; font-size: 8pt; font-family: Calibri; vertical-align: bottom; border: 0.5pt solid black; text-wrap-mode: nowrap;&quot; class=&quot;xl442&quot;&gt;&lt;/td&gt;&lt;td style=&quot;padding-top: 1px; padding-right: 1px; padding-left: 1px; font-size: 8pt; font-family: Calibri; vertical-align: bottom; border: 0.5pt solid black; text-wrap-mode: nowrap;&quot; class=&quot;xl442&quot;&gt;&lt;/td&gt;&lt;td style=&quot;padding-top: 1px; padding-right: 1px; padding-left: 1px; font-size: 8pt; font-family: Calibri; vertical-align: bottom; border: 0.5pt solid black; text-wrap-mode: nowrap;&quot; class=&quot;xl442&quot;&gt;&lt;/td&gt;&lt;td style=&quot;padding-top: 1px; padding-right: 1px; padding-left: 1px; font-size: 8pt; font-family: Calibri; vertical-align: bottom; border: 0.5pt solid black; text-wrap-mode: nowrap;&quot; class=&quot;xl442&quot;&gt;&lt;/td&gt;&lt;td style=&quot;padding-top: 1px; padding-right: 1px; padding-left: 1px; font-size: 8pt; font-family: Calibri; vertical-align: bottom; border: 0.5pt solid black; text-wrap-mode: nowrap;&quot; class=&quot;xl442&quot;&gt;&lt;/td&gt;&lt;td style=&quot;padding-top: 1px; padding-right: 1px; padding-left: 1px; font-size: 8pt; font-family: Calibri; vertical-align: bottom; border: 0.5pt solid black; text-wrap-mode: nowrap;&quot; class=&quot;xl442&quot;&gt;&lt;/td&gt;&lt;td style=&quot;padding-top: 1px; padding-right: 1px; padding-left: 1px; font-size: 8pt; font-family: Calibri; vertical-align: bottom; border: 0.5pt solid black; text-wrap-mode: nowrap;&quot; class=&quot;xl442&quot;&gt;&lt;/td&gt;&lt;td style=&quot;padding-top: 1px; padding-right: 1px; padding-left: 1px; font-size: 8pt; font-family: Calibri; vertical-align: bottom; border: 0.5pt solid black; text-wrap-mode: nowrap;&quot; class=&quot;xl442&quot;&gt;&lt;/td&gt;&lt;td style=&quot;padding-top: 1px; padding-right: 1px; padding-left: 1px; font-size: 8pt; font-family: Calibri; vertical-align: bottom; border: 0.5pt solid black; text-wrap-mode: nowrap;&quot; class=&quot;xl442&quot;&gt;&lt;/td&gt;&lt;td style=&quot;padding-top: 1px; padding-right: 1px; padding-left: 1px; font-size: 8pt; font-family: Calibri; vertical-align: bottom; border: 0.5pt solid black; text-wrap-mode: nowrap;&quot; class=&quot;xl442&quot;&gt;&lt;/td&gt;&lt;/tr&gt;&lt;tr style=&quot;height: 15pt;&quot; height=&quot;20&quot;&gt;&lt;td style=&quot;padding-top: 1px; padding-right: 1px; padding-left: 1px; color: rgb(0, 32, 96); font-size: 8pt; font-family: Calibri; vertical-align: bottom; border: 0.5pt solid black; text-wrap-mode: nowrap; height: 15pt;&quot; align=&quot;right&quot; class=&quot;xl447&quot; height=&quot;20&quot;&gt;5&lt;/td&gt;&lt;td style=&quot;padding-top: 1px; padding-right: 1px; padding-left: 1px; font-size: 8pt; font-family: Calibri; vertical-align: bottom; border: 0.5pt solid black; text-wrap-mode: nowrap;&quot; class=&quot;xl442&quot;&gt;&lt;/td&gt;&lt;td style=&quot;padding-top: 1px; padding-right: 1px; padding-left: 1px; font-size: 8pt; font-family: Calibri; vertical-align: bottom; border: 0.5pt solid black; text-wrap-mode: nowrap;&quot; class=&quot;xl442&quot;&gt;&lt;/td&gt;&lt;td style=&quot;padding-top: 1px; padding-right: 1px; padding-left: 1px; font-size: 8pt; font-family: Calibri; vertical-align: bottom; border: 0.5pt solid black; text-wrap-mode: nowrap;&quot; class=&quot;xl442&quot;&gt;&lt;/td&gt;&lt;td style=&quot;padding-top: 1px; padding-right: 1px; padding-left: 1px; font-size: 8pt; font-family: Calibri; vertical-align: bottom; border: 0.5pt solid black; text-wrap-mode: nowrap;&quot; class=&quot;xl442&quot;&gt;&lt;/td&gt;&lt;td style=&quot;padding-top: 1px; padding-right: 1px; padding-left: 1px; font-size: 8pt; font-family: Calibri; vertical-align: bottom; border: 0.5pt solid black; text-wrap-mode: nowrap;&quot; class=&quot;xl442&quot;&gt;&lt;/td&gt;&lt;td style=&quot;padding-top: 1px; padding-right: 1px; padding-left: 1px; font-size: 8pt; font-family: Calibri; vertical-align: bottom; border: 0.5pt solid black; text-wrap-mode: nowrap;&quot; class=&quot;xl442&quot;&gt;&lt;/td&gt;&lt;td style=&quot;padding-top: 1px; padding-right: 1px; padding-left: 1px; font-size: 8pt; font-family: Calibri; vertical-align: bottom; border: 0.5pt solid black; text-wrap-mode: nowrap;&quot; class=&quot;xl442&quot;&gt;&lt;/td&gt;&lt;td style=&quot;padding-top: 1px; padding-right: 1px; padding-left: 1px; font-size: 8pt; font-family: Calibri; vertical-align: bottom; border: 0.5pt solid black; text-wrap-mode: nowrap;&quot; class=&quot;xl442&quot;&gt;&lt;/td&gt;&lt;td style=&quot;padding-top: 1px; padding-right: 1px; padding-left: 1px; font-size: 8pt; font-family: Calibri; vertical-align: bottom; border: 0.5pt solid black; text-wrap-mode: nowrap;&quot; class=&quot;xl442&quot;&gt;&lt;/td&gt;&lt;td style=&quot;padding-top: 1px; padding-right: 1px; padding-left: 1px; font-size: 8pt; font-family: Calibri; vertical-align: bottom; border: 0.5pt solid black; text-wrap-mode: nowrap;&quot; class=&quot;xl442&quot;&gt;&lt;/td&gt;&lt;td style=&quot;padding-top: 1px; padding-right: 1px; padding-left: 1px; font-size: 8pt; font-family: Calibri; vertical-align: bottom; border: 0.5pt solid black; text-wrap-mode: nowrap;&quot; class=&quot;xl442&quot;&gt;&lt;/td&gt;&lt;/tr&gt;&lt;tr style=&quot;height: 15pt;&quot; height=&quot;20&quot;&gt;&lt;td style=&quot;padding-top: 1px; padding-right: 1px; padding-left: 1px; color: rgb(0, 32, 96); font-size: 8pt; font-family: Calibri; vertical-align: bottom; border: 0.5pt solid black; text-wrap-mode: nowrap; height: 15pt;&quot; align=&quot;right&quot; class=&quot;xl447&quot; height=&quot;20&quot;&gt;6&lt;/td&gt;&lt;td style=&quot;padding-top: 1px; padding-right: 1px; padding-left: 1px; font-size: 8pt; font-family: Calibri; vertical-align: bottom; border: 0.5pt solid black; text-wrap-mode: nowrap;&quot; class=&quot;xl442&quot;&gt;&lt;/td&gt;&lt;td style=&quot;padding-top: 1px; padding-right: 1px; padding-left: 1px; font-size: 8pt; font-family: Calibri; vertical-align: bottom; border: 0.5pt solid black; text-wrap-mode: nowrap;&quot; class=&quot;xl442&quot;&gt;&lt;/td&gt;&lt;td style=&quot;padding-top: 1px; padding-right: 1px; padding-left: 1px; font-size: 8pt; font-family: Calibri; vertical-align: bottom; border: 0.5pt solid black; text-wrap-mode: nowrap;&quot; class=&quot;xl442&quot;&gt;&lt;/td&gt;&lt;td style=&quot;padding-top: 1px; padding-right: 1px; padding-left: 1px; font-size: 8pt; font-family: Calibri; vertical-align: bottom; border: 0.5pt solid black; text-wrap-mode: nowrap;&quot; class=&quot;xl442&quot;&gt;&lt;/td&gt;&lt;td style=&quot;padding-top: 1px; padding-right: 1px; padding-left: 1px; font-size: 8pt; font-family: Calibri; vertical-align: bottom; border: 0.5pt solid black; text-wrap-mode: nowrap;&quot; class=&quot;xl442&quot;&gt;&lt;/td&gt;&lt;td style=&quot;padding-top: 1px; padding-right: 1px; padding-left: 1px; font-size: 8pt; font-family: Calibri; vertical-align: bottom; border: 0.5pt solid black; text-wrap-mode: nowrap;&quot; class=&quot;xl442&quot;&gt;&lt;/td&gt;&lt;td style=&quot;padding-top: 1px; padding-right: 1px; padding-left: 1px; font-size: 8pt; font-family: Calibri; vertical-align: bottom; border: 0.5pt solid black; text-wrap-mode: nowrap;&quot; class=&quot;xl442&quot;&gt;&lt;/td&gt;&lt;td style=&quot;padding-top: 1px; padding-right: 1px; padding-left: 1px; font-size: 8pt; font-family: Calibri; vertical-align: bottom; border: 0.5pt solid black; text-wrap-mode: nowrap;&quot; class=&quot;xl442&quot;&gt;&lt;/td&gt;&lt;td style=&quot;padding-top: 1px; padding-right: 1px; padding-left: 1px; font-size: 8pt; font-family: Calibri; vertical-align: bottom; border: 0.5pt solid black; text-wrap-mode: nowrap;&quot; class=&quot;xl442&quot;&gt;&lt;/td&gt;&lt;td style=&quot;padding-top: 1px; padding-right: 1px; padding-left: 1px; font-size: 8pt; font-family: Calibri; vertical-align: bottom; border: 0.5pt solid black; text-wrap-mode: nowrap;&quot; class=&quot;xl442&quot;&gt;&lt;/td&gt;&lt;td style=&quot;padding-top: 1px; padding-right: 1px; padding-left: 1px; font-size: 8pt; font-family: Calibri; vertical-align: bottom; border: 0.5pt solid black; text-wrap-mode: nowrap;&quot; class=&quot;xl442&quot;&gt;&lt;/td&gt;&lt;/tr&gt;&lt;tr style=&quot;height: 15pt;&quot; height=&quot;20&quot;&gt;&lt;td style=&quot;padding-top: 1px; padding-right: 1px; padding-left: 1px; color: rgb(0, 32, 96); font-size: 8pt; font-family: Calibri; vertical-align: bottom; border: 0.5pt solid black; text-wrap-mode: nowrap; height: 15pt;&quot; align=&quot;right&quot; class=&quot;xl447&quot; height=&quot;20&quot;&gt;7&lt;/td&gt;&lt;td style=&quot;padding-top: 1px; padding-right: 1px; padding-left: 1px; font-size: 8pt; font-family: Calibri; vertical-align: bottom; border: 0.5pt solid black; text-wrap-mode: nowrap;&quot; class=&quot;xl442&quot;&gt;&lt;/td&gt;&lt;td style=&quot;padding-top: 1px; padding-right: 1px; padding-left: 1px; font-size: 8pt; font-family: Calibri; vertical-align: bottom; border: 0.5pt solid black; text-wrap-mode: nowrap;&quot; class=&quot;xl442&quot;&gt;&lt;/td&gt;&lt;td style=&quot;padding-top: 1px; padding-right: 1px; padding-left: 1px; font-size: 8pt; font-family: Calibri; vertical-align: bottom; border: 0.5pt solid black; text-wrap-mode: nowrap;&quot; class=&quot;xl442&quot;&gt;&lt;/td&gt;&lt;td style=&quot;padding-top: 1px; padding-right: 1px; padding-left: 1px; font-size: 8pt; font-family: Calibri; vertical-align: bottom; border: 0.5pt solid black; text-wrap-mode: nowrap;&quot; class=&quot;xl442&quot;&gt;&lt;/td&gt;&lt;td style=&quot;padding-top: 1px; padding-right: 1px; padding-left: 1px; font-size: 8pt; font-family: Calibri; vertical-align: bottom; border: 0.5pt solid black; text-wrap-mode: nowrap;&quot; class=&quot;xl442&quot;&gt;&lt;/td&gt;&lt;td style=&quot;padding-top: 1px; padding-right: 1px; padding-left: 1px; font-size: 8pt; font-family: Calibri; vertical-align: bottom; border: 0.5pt solid black; text-wrap-mode: nowrap;&quot; class=&quot;xl442&quot;&gt;&lt;/td&gt;&lt;td style=&quot;padding-top: 1px; padding-right: 1px; padding-left: 1px; font-size: 8pt; font-family: Calibri; vertical-align: bottom; border: 0.5pt solid black; text-wrap-mode: nowrap;&quot; class=&quot;xl442&quot;&gt;&lt;/td&gt;&lt;td style=&quot;padding-top: 1px; padding-right: 1px; padding-left: 1px; font-size: 8pt; font-family: Calibri; vertical-align: bottom; border: 0.5pt solid black; text-wrap-mode: nowrap;&quot; class=&quot;xl442&quot;&gt;&lt;/td&gt;&lt;td style=&quot;padding-top: 1px; padding-right: 1px; padding-left: 1px; font-size: 8pt; font-family: Calibri; vertical-align: bottom; border: 0.5pt solid black; text-wrap-mode: nowrap;&quot; class=&quot;xl442&quot;&gt;&lt;/td&gt;&lt;td style=&quot;padding-top: 1px; padding-right: 1px; padding-left: 1px; font-size: 8pt; font-family: Calibri; vertical-align: bottom; border: 0.5pt solid black; text-wrap-mode: nowrap;&quot; class=&quot;xl442&quot;&gt;&lt;/td&gt;&lt;td style=&quot;padding-top: 1px; padding-right: 1px; padding-left: 1px; font-size: 8pt; font-family: Calibri; vertical-align: bottom; border: 0.5pt solid black; text-wrap-mode: nowrap;&quot; class=&quot;xl442&quot;&gt;&lt;/td&gt;&lt;/tr&gt;&lt;tr style=&quot;height: 15pt;&quot; height=&quot;20&quot;&gt;&lt;td style=&quot;padding-top: 1px; padding-right: 1px; padding-left: 1px; color: rgb(0, 32, 96); font-size: 8pt; font-family: Calibri; vertical-align: bottom; border: 0.5pt solid black; text-wrap-mode: nowrap; height: 15pt;&quot; align=&quot;right&quot; class=&quot;xl447&quot; height=&quot;20&quot;&gt;8&lt;/td&gt;&lt;td style=&quot;padding-top: 1px; padding-right: 1px; padding-left: 1px; font-size: 8pt; font-family: Calibri; vertical-align: bottom; border: 0.5pt solid black; text-wrap-mode: nowrap;&quot; class=&quot;xl442&quot;&gt;&lt;/td&gt;&lt;td style=&quot;padding-top: 1px; padding-right: 1px; padding-left: 1px; font-size: 8pt; font-family: Calibri; vertical-align: bottom; border: 0.5pt solid black; text-wrap-mode: nowrap;&quot; class=&quot;xl442&quot;&gt;&lt;/td&gt;&lt;td style=&quot;padding-top: 1px; padding-right: 1px; padding-left: 1px; font-size: 8pt; font-family: Calibri; vertical-align: bottom; border: 0.5pt solid black; text-wrap-mode: nowrap;&quot; class=&quot;xl442&quot;&gt;&lt;/td&gt;&lt;td style=&quot;padding-top: 1px; padding-right: 1px; padding-left: 1px; font-size: 8pt; font-family: Calibri; vertical-align: bottom; border: 0.5pt solid black; text-wrap-mode: nowrap;&quot; class=&quot;xl442&quot;&gt;&lt;/td&gt;&lt;td style=&quot;padding-top: 1px; padding-right: 1px; padding-left: 1px; font-size: 8pt; font-family: Calibri; vertical-align: bottom; border: 0.5pt solid black; text-wrap-mode: nowrap;&quot; class=&quot;xl442&quot;&gt;&lt;/td&gt;&lt;td style=&quot;padding-top: 1px; padding-right: 1px; padding-left: 1px; font-size: 8pt; font-family: Calibri; vertical-align: bottom; border: 0.5pt solid black; text-wrap-mode: nowrap;&quot; class=&quot;xl442&quot;&gt;&lt;/td&gt;&lt;td style=&quot;padding-top: 1px; padding-right: 1px; padding-left: 1px; font-size: 8pt; font-family: Calibri; vertical-align: bottom; border: 0.5pt solid black; text-wrap-mode: nowrap;&quot; class=&quot;xl442&quot;&gt;&lt;/td&gt;&lt;td style=&quot;padding-top: 1px; padding-right: 1px; padding-left: 1px; font-size: 8pt; font-family: Calibri; vertical-align: bottom; border: 0.5pt solid black; text-wrap-mode: nowrap;&quot; class=&quot;xl442&quot;&gt;&lt;/td&gt;&lt;td style=&quot;padding-top: 1px; padding-right: 1px; padding-left: 1px; font-size: 8pt; font-family: Calibri; vertical-align: bottom; border: 0.5pt solid black; text-wrap-mode: nowrap;&quot; class=&quot;xl442&quot;&gt;&lt;/td&gt;&lt;td style=&quot;padding-top: 1px; padding-right: 1px; padding-left: 1px; font-size: 8pt; font-family: Calibri; vertical-align: bottom; border: 0.5pt solid black; text-wrap-mode: nowrap;&quot; class=&quot;xl442&quot;&gt;&lt;/td&gt;&lt;td style=&quot;padding-top: 1px; padding-right: 1px; padding-left: 1px; font-size: 8pt; font-family: Calibri; vertical-align: bottom; border: 0.5pt solid black; text-wrap-mode: nowrap;&quot; class=&quot;xl442&quot;&gt;&lt;/td&gt;&lt;/tr&gt;&lt;tr style=&quot;height: 34.5pt;&quot; height=&quot;46&quot;&gt;&lt;td style=&quot;padding-top: 1px; padding-right: 1px; padding-left: 1px; color: rgb(0, 32, 96); font-size: 8pt; font-family: Calibri; vertical-align: bottom; border: 0.5pt solid black; text-wrap-mode: nowrap; height: 34.5pt;&quot; align=&quot;right&quot; class=&quot;xl447&quot; height=&quot;46&quot;&gt;9&lt;/td&gt;&lt;td style=&quot;padding-top: 1px; padding-right: 1px; padding-left: 1px; font-size: 8pt; font-family: Calibri; vertical-align: bottom; border: 0.5pt solid black; text-wrap-mode: nowrap;&quot; class=&quot;xl442&quot;&gt;Device Life Cycle&lt;/td&gt;&lt;td style=&quot;padding-top: 1px; padding-right: 1px; padding-left: 1px; font-size: 8pt; font-family: Calibri; vertical-align: bottom; border: 0.5pt solid black; text-wrap-mode: nowrap;&quot; class=&quot;xl442&quot;&gt;/life-cycle/v3/devices/activate-physical-type&lt;/td&gt;&lt;td style=&quot;padding-top: 1px; padding-right: 1px; padding-left: 1px; font-size: 8pt; font-family: Calibri; vertical-align: bottom; border: 0.5pt solid black; text-wrap-mode: nowrap;&quot; class=&quot;xl442&quot;&gt;POST&lt;/td&gt;&lt;td style=&quot;padding-top: 1px; padding-right: 1px; padding-left: 1px; font-size: 8pt; font-family: Calibri; vertical-align: bottom; border: 0.5pt solid black; text-wrap-mode: nowrap;&quot; class=&quot;xl442&quot;&gt;lastChannelUserUpdate&lt;/td&gt;&lt;td style=&quot;padding-top: 1px; padding-right: 1px; padding-left: 1px; font-size: 8pt; font-family: Calibri; vertical-align: bottom; border: 0.5pt solid black; text-wrap-mode: nowrap;&quot; align=&quot;right&quot; class=&quot;xl442&quot;&gt;12&lt;/td&gt;&lt;td style=&quot;padding-top: 1px; padding-right: 1px; padding-left: 1px; font-size: 8pt; font-family: Calibri; vertical-align: bottom; border: 0.5pt solid black; text-wrap-mode: nowrap;&quot; class=&quot;xl442&quot;&gt;string&lt;/td&gt;&lt;td style=&quot;padding-top: 1px; padding-right: 1px; padding-left: 1px; font-size: 8pt; font-family: Calibri; vertical-align: bottom; border: 0.5pt solid black; text-wrap-mode: nowrap;&quot; class=&quot;xl442&quot;&gt;Indicates last channel user update&lt;/td&gt;&lt;td style=&quot;padding-top: 1px; padding-right: 1px; padding-left: 1px; font-size: 8pt; font-family: Calibri; vertical-align: bottom; border: 0.5pt solid black; text-wrap-mode: nowrap;&quot; class=&quot;xl442&quot;&gt;Requerido&lt;/td&gt;&lt;td style=&quot;padding-top: 1px; padding-right: 1px; padding-left: 1px; font-size: 8pt; font-family: Calibri; vertical-align: bottom; border: 0.5pt solid black; text-wrap-mode: nowrap;&quot; class=&quot;xl442&quot;&gt;&lt;/td&gt;&lt;td style=&quot;padding-top: 1px; padding-right: 1px; padding-left: 1px; font-size: 8pt; font-family: Calibri; vertical-align: bottom; border: 0.5pt solid black; text-wrap-mode: nowrap;&quot; class=&quot;xl442&quot;&gt;&lt;/td&gt;&lt;td style=&quot;padding-top: 1px; padding-right: 1px; padding-left: 1px; font-size: 8pt; font-family: Calibri; vertical-align: bottom; border: 0.5pt solid black; width: 143pt;&quot; class=&quot;xl219&quot; width=&quot;191&quot;&gt;Device Life Cycle /life-cycle/v5/devices/details&lt;br&gt;Campo: lastChannelUserUpdate&lt;/td&gt;&lt;/tr&gt;&lt;tr style=&quot;height: 15pt;&quot; height=&quot;20&quot;&gt;&lt;td style=&quot;padding-top: 1px; padding-right: 1px; padding-left: 1px; color: rgb(0, 32, 96); font-size: 8pt; font-family: Calibri; vertical-align: bottom; border: 0.5pt solid black; text-wrap-mode: nowrap; height: 15pt;&quot; align=&quot;right&quot; class=&quot;xl447&quot; height=&quot;20&quot;&gt;10&lt;/td&gt;&lt;td style=&quot;padding-top: 1px; padding-right: 1px; padding-left: 1px; font-size: 8pt; font-family: Calibri; vertical-align: bottom; border: 0.5pt solid black; text-wrap-mode: nowrap;&quot; class=&quot;xl442&quot;&gt;Device Life Cycle&lt;/td&gt;&lt;td style=&quot;padding-top: 1px; padding-right: 1px; padding-left: 1px; font-size: 8pt; font-family: Calibri; vertical-align: bottom; border: 0.5pt solid black; text-wrap-mode: nowrap;&quot; class=&quot;xl442&quot;&gt;/life-cycle/v3/devices/activate-physical-type&lt;/td&gt;&lt;td style=&quot;padding-top: 1px; padding-right: 1px; padding-left: 1px; font-size: 8pt; font-family: Calibri; vertical-align: bottom; border: 0.5pt solid black; text-wrap-mode: nowrap;&quot; class=&quot;xl442&quot;&gt;POST&lt;/td&gt;&lt;td style=&quot;padding-top: 1px; padding-right: 1px; padding-left: 1px; font-size: 8pt; font-family: Calibri; vertical-align: bottom; border: 0.5pt solid black; text-wrap-mode: nowrap;&quot; class=&quot;xl442&quot;&gt;activationChannel&lt;/td&gt;&lt;td style=&quot;padding-top: 1px; padding-right: 1px; padding-left: 1px; font-size: 8pt; font-family: Calibri; vertical-align: bottom; border: 0.5pt solid black; text-wrap-mode: nowrap;&quot; align=&quot;right&quot; class=&quot;xl442&quot;&gt;12&lt;/td&gt;&lt;td style=&quot;padding-top: 1px; padding-right: 1px; padding-left: 1px; font-size: 8pt; font-family: Calibri; vertical-align: bottom; border: 0.5pt solid black; text-wrap-mode: nowrap;&quot; class=&quot;xl442&quot;&gt;string&lt;/td&gt;&lt;td style=&quot;padding-top: 1px; padding-right: 1px; padding-left: 1px; font-size: 8pt; font-family: Calibri; vertical-align: bottom; border: 0.5pt solid black; text-wrap-mode: nowrap;&quot; class=&quot;xl442&quot;&gt;Indicates activation channel user&lt;/td&gt;&lt;td style=&quot;padding-top: 1px; padding-right: 1px; padding-left: 1px; font-size: 8pt; font-family: Calibri; vertical-align: bottom; border: 0.5pt solid black; text-wrap-mode: nowrap;&quot; class=&quot;xl442&quot;&gt;Requerido&lt;/td&gt;&lt;td style=&quot;padding-top: 1px; padding-right: 1px; padding-left: 1px; font-size: 8pt; font-family: Calibri; vertical-align: bottom; border: 0.5pt solid black; width: 214pt;&quot; class=&quot;xl219&quot; width=&quot;285&quot;&gt;Se obteiene de la información proporcionada por el Launcher&lt;/td&gt;&lt;td style=&quot;padding-top: 1px; padding-right: 1px; padding-left: 1px; font-size: 8pt; font-family: Calibri; vertical-align: bottom; border: 0.5pt solid black; text-wrap-mode: nowrap;&quot; class=&quot;xl442&quot;&gt;&lt;/td&gt;&lt;td style=&quot;padding-top: 1px; padding-right: 1px; padding-left: 1px; font-size: 8pt; font-family: Calibri; vertical-align: bottom; border: 0.5pt solid black; text-wrap-mode: nowrap;&quot; class=&quot;xl442&quot;&gt;messageStreamDto.getChannelId()&lt;/td&gt;&lt;/tr&gt;&lt;tr style=&quot;height: 23.25pt;&quot; height=&quot;31&quot;&gt;&lt;td style=&quot;padding-top: 1px; padding-right: 1px; padding-left: 1px; color: rgb(0, 32, 96); font-size: 8pt; font-family: Calibri; vertical-align: bottom; border: 0.5pt solid black; text-wrap-mode: nowrap; height: 23.25pt;&quot; align=&quot;right&quot; class=&quot;xl447&quot; height=&quot;31&quot;&gt;11&lt;/td&gt;&lt;td style=&quot;padding-top: 1px; padding-right: 1px; padding-left: 1px; font-size: 8pt; font-family: Calibri; vertical-align: bottom; border: 0.5pt solid black; text-wrap-mode: nowrap;&quot; class=&quot;xl442&quot;&gt;Device Life Cycle&lt;/td&gt;&lt;td style=&quot;padding-top: 1px; padding-right: 1px; padding-left: 1px; font-size: 8pt; font-family: Calibri; vertical-align: bottom; border: 0.5pt solid black; text-wrap-mode: nowrap;&quot; class=&quot;xl442&quot;&gt;/life-cycle/v3/devices/activate-physical-type&lt;/td&gt;&lt;td style=&quot;padding-top: 1px; padding-right: 1px; padding-left: 1px; font-size: 8pt; font-family: Calibri; vertical-align: bottom; border: 0.5pt solid black; text-wrap-mode: nowrap;&quot; class=&quot;xl442&quot;&gt;POST&lt;/td&gt;&lt;td style=&quot;padding-top: 1px; padding-right: 1px; padding-left: 1px; font-size: 8pt; font-family: Calibri; vertical-align: bottom; border: 0.5pt solid black; text-wrap-mode: nowrap;&quot; class=&quot;xl442&quot;&gt;requesterKeyId&lt;/td&gt;&lt;td style=&quot;padding-top: 1px; padding-right: 1px; padding-left: 1px; font-size: 8pt; font-family: Calibri; vertical-align: bottom; border: 0.5pt solid black; text-wrap-mode: nowrap;&quot; align=&quot;right&quot; class=&quot;xl442&quot;&gt;11&lt;/td&gt;&lt;td style=&quot;padding-top: 1px; padding-right: 1px; padding-left: 1px; font-size: 8pt; font-family: Calibri; vertical-align: bottom; border: 0.5pt solid black; text-wrap-mode: nowrap;&quot; class=&quot;xl442&quot;&gt;string&lt;/td&gt;&lt;td style=&quot;padding-top: 1px; padding-right: 1px; padding-left: 1px; font-size: 8pt; font-family: Calibri; vertical-align: bottom; border: 0.5pt solid black; text-wrap-mode: nowrap;&quot; class=&quot;xl442&quot;&gt;Label pinBlock&lt;/td&gt;&lt;td style=&quot;padding-top: 1px; padding-right: 1px; padding-left: 1px; font-size: 8pt; font-family: Calibri; vertical-align: bottom; border: 0.5pt solid black; text-wrap-mode: nowrap;&quot; class=&quot;xl442&quot;&gt;Requerido&lt;/td&gt;&lt;td style=&quot;padding-top: 1px; padding-right: 1px; padding-left: 1px; font-size: 8pt; font-family: Calibri; vertical-align: bottom; border: 0.5pt solid black; width: 214pt;&quot; class=&quot;xl219&quot; width=&quot;285&quot;&gt;Se manda un valor fijo, puesto que es requerido.&lt;/td&gt;&lt;td style=&quot;padding-top: 1px; padding-right: 1px; padding-left: 1px; font-size: 8pt; font-family: Calibri; vertical-align: bottom; border: 0.5pt solid black; text-wrap-mode: nowrap;&quot; class=&quot;xl442&quot;&gt;&lt;/td&gt;&lt;td style=&quot;padding-top: 1px; padding-right: 1px; padding-left: 1px; font-size: 8pt; font-family: Calibri; vertical-align: bottom; border: 0.5pt solid black; width: 143pt;&quot; class=&quot;xl219&quot; width=&quot;191&quot;&gt;un valor en el configMap con el valor de &quot;PEK_TRANSLATE&quot;&lt;/td&gt;&lt;/tr&gt;&lt;/tbody&gt;&lt;/table&gt;&lt;/div&gt;" style="rounded=0;whiteSpace=wrap;html=1;" parent="1" vertex="1">
          <mxGeometry x="1540" y="290" width="1348.5" height="520" as="geometry" />
        </mxCell>
        <mxCell id="q1FSfACkbBMbSRhOJW1q-12" value="&lt;font&gt;&lt;span style=&quot;color: light-dark(rgb(0, 0, 0), rgb(0, 0, 0)); text-align: left;&quot;&gt;PLARD (SANTANDER WEB) -&amp;nbsp;&lt;/span&gt;&lt;font style=&quot;color: rgb(0, 0, 0);&quot;&gt;consulta comisión -&amp;nbsp;&lt;/font&gt;&lt;/font&gt;&lt;span style=&quot;text-align: left;&quot;&gt;MODELO FUNCIONAL DE SECUENCIA&lt;/span&gt;" style="rounded=0;whiteSpace=wrap;html=1;align=center;fontSize=16;fontStyle=1" parent="1" vertex="1">
          <mxGeometry x="10" y="1160" width="3510" height="79" as="geometry" />
        </mxCell>
        <mxCell id="q1FSfACkbBMbSRhOJW1q-13" value="&lt;div style=&quot;text-align: center;&quot;&gt;&lt;span style=&quot;color: light-dark(rgb(0, 0, 0), rgb(237, 237, 237)); font-size: 16px; text-align: left;&quot;&gt;PLARD [SANTANDER WEB] -&amp;nbsp;&lt;/span&gt;&lt;span style=&quot;color: light-dark(rgb(0, 0, 0), rgb(237, 237, 237)); font-size: 16px;&quot;&gt;LMZ9 -&amp;nbsp;&lt;/span&gt;&lt;span style=&quot;font-size: 16px;&quot;&gt;CONSULTA DE COMISIÓN POR BLOQUEO&lt;/span&gt;&lt;/div&gt;" style="shape=umlFrame;whiteSpace=wrap;html=1;pointerEvents=0;recursiveResize=0;container=1;collapsible=0;width=659;height=31;fontStyle=1;fontSize=13;strokeWidth=2;labelBackgroundColor=none;" parent="1" vertex="1">
          <mxGeometry x="11" y="1239" width="3509" height="3421" as="geometry" />
        </mxCell>
        <mxCell id="9PED4Zd3BGk1TBCsJTgQ-3" value="" style="html=1;verticalAlign=bottom;labelBackgroundColor=none;endArrow=block;endFill=1;endSize=6;align=left;rounded=0;entryX=0.507;entryY=0.261;entryDx=0;entryDy=0;entryPerimeter=0;" parent="q1FSfACkbBMbSRhOJW1q-13" edge="1">
          <mxGeometry x="-1" relative="1" as="geometry">
            <mxPoint x="2114" y="1163.9099999999999" as="sourcePoint" />
            <mxPoint x="2590.1200000000003" y="1165.2299999999996" as="targetPoint" />
            <mxPoint as="offset" />
          </mxGeometry>
        </mxCell>
        <mxCell id="q1FSfACkbBMbSRhOJW1q-14" value="&lt;div&gt;&lt;b&gt;&amp;lt;&amp;lt;Middleware&amp;gt;&amp;gt;&lt;/b&gt;&lt;/div&gt;&lt;div&gt;&lt;b&gt;Altarir as a Service (AaaS)&lt;/b&gt;&lt;/div&gt;" style="shape=umlLifeline;perimeter=lifelinePerimeter;whiteSpace=wrap;html=1;container=1;dropTarget=0;collapsible=0;recursiveResize=0;outlineConnect=0;portConstraint=eastwest;newEdgeStyle={&quot;edgeStyle&quot;:&quot;elbowEdgeStyle&quot;,&quot;elbow&quot;:&quot;vertical&quot;,&quot;curved&quot;:0,&quot;rounded&quot;:0};align=center;" parent="q1FSfACkbBMbSRhOJW1q-13" vertex="1">
          <mxGeometry x="596" y="83" width="160" height="3337" as="geometry" />
        </mxCell>
        <mxCell id="q1FSfACkbBMbSRhOJW1q-15" value="&lt;div&gt;&lt;b&gt;&amp;lt;&amp;lt;Queque&amp;gt;&amp;gt;&lt;/b&gt;&lt;/div&gt;&lt;div&gt;&lt;b style=&quot;background-color: transparent; color: light-dark(rgb(0, 0, 0), rgb(255, 255, 255));&quot;&gt;MQ AaaS&lt;/b&gt;&lt;/div&gt;" style="shape=umlLifeline;perimeter=lifelinePerimeter;whiteSpace=wrap;html=1;container=1;dropTarget=0;collapsible=0;recursiveResize=0;outlineConnect=0;portConstraint=eastwest;newEdgeStyle={&quot;edgeStyle&quot;:&quot;elbowEdgeStyle&quot;,&quot;elbow&quot;:&quot;vertical&quot;,&quot;curved&quot;:0,&quot;rounded&quot;:0};align=center;" parent="q1FSfACkbBMbSRhOJW1q-13" vertex="1">
          <mxGeometry x="832" y="83" width="163" height="3337" as="geometry" />
        </mxCell>
        <mxCell id="q1FSfACkbBMbSRhOJW1q-16" value="" style="endArrow=block;html=1;rounded=0;dashed=1;endFill=1;exitX=0.493;exitY=0.66;exitDx=0;exitDy=0;exitPerimeter=0;entryX=0.507;entryY=0.647;entryDx=0;entryDy=0;entryPerimeter=0;" parent="q1FSfACkbBMbSRhOJW1q-13" edge="1">
          <mxGeometry width="50" height="50" relative="1" as="geometry">
            <mxPoint x="1155.5" y="3239" as="sourcePoint" />
            <mxPoint x="918.5" y="3239" as="targetPoint" />
          </mxGeometry>
        </mxCell>
        <mxCell id="q1FSfACkbBMbSRhOJW1q-17" value="&lt;div&gt;&lt;b&gt;&amp;lt;&amp;lt;Componente&amp;gt;&amp;gt;&lt;/b&gt;&lt;br&gt;&lt;/div&gt;&lt;b&gt;Launcher PLARD&lt;/b&gt;" style="shape=umlLifeline;perimeter=lifelinePerimeter;whiteSpace=wrap;html=1;container=1;dropTarget=0;collapsible=0;recursiveResize=0;outlineConnect=0;portConstraint=eastwest;newEdgeStyle={&quot;edgeStyle&quot;:&quot;elbowEdgeStyle&quot;,&quot;elbow&quot;:&quot;vertical&quot;,&quot;curved&quot;:0,&quot;rounded&quot;:0};align=center;" parent="q1FSfACkbBMbSRhOJW1q-13" vertex="1">
          <mxGeometry x="1072" y="84" width="164" height="3336" as="geometry" />
        </mxCell>
        <mxCell id="q1FSfACkbBMbSRhOJW1q-18" value="" style="html=1;verticalAlign=bottom;labelBackgroundColor=none;endArrow=block;endFill=1;endSize=6;align=left;rounded=0;exitX=0.505;exitY=0.806;exitDx=0;exitDy=0;exitPerimeter=0;" parent="q1FSfACkbBMbSRhOJW1q-17" edge="1">
          <mxGeometry x="-1" relative="1" as="geometry">
            <mxPoint x="1764.7999999999997" y="2577.156" as="sourcePoint" />
            <mxPoint x="1998.5" y="2577" as="targetPoint" />
            <mxPoint as="offset" />
          </mxGeometry>
        </mxCell>
        <mxCell id="q1FSfACkbBMbSRhOJW1q-19" value="" style="endArrow=block;html=1;rounded=0;dashed=1;endFill=1;exitX=0.504;exitY=0.651;exitDx=0;exitDy=0;exitPerimeter=0;entryX=0.507;entryY=0.647;entryDx=0;entryDy=0;entryPerimeter=0;" parent="q1FSfACkbBMbSRhOJW1q-17" edge="1">
          <mxGeometry width="50" height="50" relative="1" as="geometry">
            <mxPoint x="-395.75" y="2779" as="sourcePoint" />
            <mxPoint x="-629.25" y="2780" as="targetPoint" />
          </mxGeometry>
        </mxCell>
        <mxCell id="q1FSfACkbBMbSRhOJW1q-20" value="" style="endArrow=block;html=1;rounded=0;dashed=1;endFill=1;exitX=0.504;exitY=0.651;exitDx=0;exitDy=0;exitPerimeter=0;entryX=0.507;entryY=0.647;entryDx=0;entryDy=0;entryPerimeter=0;" parent="q1FSfACkbBMbSRhOJW1q-17" edge="1">
          <mxGeometry width="50" height="50" relative="1" as="geometry">
            <mxPoint x="-160.85599999999977" y="2749.7709999999997" as="sourcePoint" />
            <mxPoint x="-393.5" y="2751" as="targetPoint" />
          </mxGeometry>
        </mxCell>
        <mxCell id="q1FSfACkbBMbSRhOJW1q-21" value="" style="endArrow=block;html=1;rounded=0;dashed=1;endFill=1;exitX=0.493;exitY=0.66;exitDx=0;exitDy=0;exitPerimeter=0;entryX=0.507;entryY=0.647;entryDx=0;entryDy=0;entryPerimeter=0;" parent="q1FSfACkbBMbSRhOJW1q-17" edge="1">
          <mxGeometry width="50" height="50" relative="1" as="geometry">
            <mxPoint x="82.5" y="2717" as="sourcePoint" />
            <mxPoint x="-154.5" y="2717" as="targetPoint" />
          </mxGeometry>
        </mxCell>
        <mxCell id="q1FSfACkbBMbSRhOJW1q-22" value="" style="html=1;verticalAlign=bottom;labelBackgroundColor=none;endArrow=block;endFill=1;endSize=6;align=left;rounded=0;exitX=0.501;exitY=0.758;exitDx=0;exitDy=0;exitPerimeter=0;entryX=0.496;entryY=0.802;entryDx=0;entryDy=0;entryPerimeter=0;" parent="q1FSfACkbBMbSRhOJW1q-17" edge="1">
          <mxGeometry x="-1" relative="1" as="geometry">
            <mxPoint x="82.16400000000067" y="2555.9880000000003" as="sourcePoint" />
            <mxPoint x="1759.3600000000001" y="2553.2520000000004" as="targetPoint" />
            <mxPoint as="offset" />
          </mxGeometry>
        </mxCell>
        <mxCell id="q1FSfACkbBMbSRhOJW1q-23" value="" style="html=1;points=[[0,0,0,0,5],[0,1,0,0,-5],[1,0,0,0,5],[1,1,0,0,-5]];perimeter=orthogonalPerimeter;outlineConnect=0;targetShapes=umlLifeline;portConstraint=eastwest;newEdgeStyle={&quot;curved&quot;:0,&quot;rounded&quot;:0};whiteSpace=wrap;" parent="q1FSfACkbBMbSRhOJW1q-17" vertex="1">
          <mxGeometry x="75.5" y="2665" width="10" height="62" as="geometry" />
        </mxCell>
        <mxCell id="q1FSfACkbBMbSRhOJW1q-24" value="" style="html=1;points=[[0,0,0,0,5],[0,1,0,0,-5],[1,0,0,0,5],[1,1,0,0,-5]];perimeter=orthogonalPerimeter;outlineConnect=0;targetShapes=umlLifeline;portConstraint=eastwest;newEdgeStyle={&quot;curved&quot;:0,&quot;rounded&quot;:0};whiteSpace=wrap;" parent="q1FSfACkbBMbSRhOJW1q-17" vertex="1">
          <mxGeometry x="-164.5" y="2701" width="10" height="58" as="geometry" />
        </mxCell>
        <mxCell id="q1FSfACkbBMbSRhOJW1q-25" value="" style="html=1;points=[[0,0,0,0,5],[0,1,0,0,-5],[1,0,0,0,5],[1,1,0,0,-5]];perimeter=orthogonalPerimeter;outlineConnect=0;targetShapes=umlLifeline;portConstraint=eastwest;newEdgeStyle={&quot;curved&quot;:0,&quot;rounded&quot;:0};whiteSpace=wrap;" parent="q1FSfACkbBMbSRhOJW1q-17" vertex="1">
          <mxGeometry x="-402.5" y="2733" width="10" height="58" as="geometry" />
        </mxCell>
        <mxCell id="q1FSfACkbBMbSRhOJW1q-26" value="" style="html=1;align=left;spacingLeft=2;endArrow=block;rounded=0;edgeStyle=orthogonalEdgeStyle;curved=0;rounded=0;fillColor=#f8cecc;strokeColor=#000000;" parent="q1FSfACkbBMbSRhOJW1q-17" edge="1">
          <mxGeometry x="-0.2922" y="20" relative="1" as="geometry">
            <mxPoint x="2009.5" y="2592.0200000000004" as="sourcePoint" />
            <Array as="points">
              <mxPoint x="2039.5" y="2592.08" />
              <mxPoint x="2039.5" y="2622.08" />
            </Array>
            <mxPoint x="2009.5" y="2622.08" as="targetPoint" />
            <mxPoint as="offset" />
          </mxGeometry>
        </mxCell>
        <mxCell id="q1FSfACkbBMbSRhOJW1q-27" value="" style="endArrow=block;html=1;rounded=0;dashed=1;endFill=1;entryX=0.492;entryY=0.832;entryDx=0;entryDy=0;entryPerimeter=0;exitX=0.502;exitY=0.832;exitDx=0;exitDy=0;exitPerimeter=0;" parent="q1FSfACkbBMbSRhOJW1q-17" edge="1">
          <mxGeometry width="50" height="50" relative="1" as="geometry">
            <mxPoint x="2004.3199999999997" y="2650.032" as="sourcePoint" />
            <mxPoint x="1768.7199999999998" y="2650.0319999999992" as="targetPoint" />
          </mxGeometry>
        </mxCell>
        <mxCell id="q1FSfACkbBMbSRhOJW1q-28" value="" style="html=1;points=[[0,0,0,0,5],[0,1,0,0,-5],[1,0,0,0,5],[1,1,0,0,-5]];perimeter=orthogonalPerimeter;outlineConnect=0;targetShapes=umlLifeline;portConstraint=eastwest;newEdgeStyle={&quot;curved&quot;:0,&quot;rounded&quot;:0};whiteSpace=wrap;" parent="q1FSfACkbBMbSRhOJW1q-17" vertex="1">
          <mxGeometry x="1998.5" y="2557" width="10" height="102" as="geometry" />
        </mxCell>
        <mxCell id="q1FSfACkbBMbSRhOJW1q-29" value="" style="html=1;points=[[0,0,0,0,5],[0,1,0,0,-5],[1,0,0,0,5],[1,1,0,0,-5]];perimeter=orthogonalPerimeter;outlineConnect=0;targetShapes=umlLifeline;portConstraint=eastwest;newEdgeStyle={&quot;curved&quot;:0,&quot;rounded&quot;:0};whiteSpace=wrap;" parent="q1FSfACkbBMbSRhOJW1q-17" vertex="1">
          <mxGeometry x="75.5" y="2158" width="10" height="58" as="geometry" />
        </mxCell>
        <mxCell id="q1FSfACkbBMbSRhOJW1q-30" value="" style="html=1;points=[[0,0,0,0,5],[0,1,0,0,-5],[1,0,0,0,5],[1,1,0,0,-5]];perimeter=orthogonalPerimeter;outlineConnect=0;targetShapes=umlLifeline;portConstraint=eastwest;newEdgeStyle={&quot;curved&quot;:0,&quot;rounded&quot;:0};whiteSpace=wrap;" parent="q1FSfACkbBMbSRhOJW1q-17" vertex="1">
          <mxGeometry x="75.5" y="2499" width="10" height="64.5" as="geometry" />
        </mxCell>
        <mxCell id="q1FSfACkbBMbSRhOJW1q-31" value="&lt;div&gt;&amp;lt;&amp;lt;Altair 390&amp;gt;&amp;gt;&lt;br&gt;&lt;/div&gt;PAMPA" style="shape=umlLifeline;perimeter=lifelinePerimeter;whiteSpace=wrap;html=1;container=1;dropTarget=0;collapsible=0;recursiveResize=0;outlineConnect=0;portConstraint=eastwest;newEdgeStyle={&quot;edgeStyle&quot;:&quot;elbowEdgeStyle&quot;,&quot;elbow&quot;:&quot;vertical&quot;,&quot;curved&quot;:0,&quot;rounded&quot;:0};align=center;fontStyle=1;fillColor=#f8cecc;strokeColor=#b85450;" parent="q1FSfACkbBMbSRhOJW1q-13" vertex="1">
          <mxGeometry x="2996" y="84" width="309.5" height="3336" as="geometry" />
        </mxCell>
        <mxCell id="q1FSfACkbBMbSRhOJW1q-32" value="alt PAMPA" style="shape=umlFrame;whiteSpace=wrap;html=1;pointerEvents=0;recursiveResize=0;container=0;collapsible=0;width=79;height=24;" parent="q1FSfACkbBMbSRhOJW1q-31" vertex="1">
          <mxGeometry x="-2770" y="2905" width="3079.5" height="428" as="geometry" />
        </mxCell>
        <mxCell id="q1FSfACkbBMbSRhOJW1q-33" value="" style="endArrow=block;html=1;rounded=0;dashed=1;endFill=1;entryX=0.507;entryY=0.647;entryDx=0;entryDy=0;entryPerimeter=0;exitX=0.5;exitY=0.91;exitDx=0;exitDy=0;exitPerimeter=0;" parent="q1FSfACkbBMbSRhOJW1q-31" edge="1">
          <mxGeometry width="50" height="50" relative="1" as="geometry">
            <mxPoint x="-160" y="3117.26" as="sourcePoint" />
            <mxPoint x="-1839" y="3119" as="targetPoint" />
          </mxGeometry>
        </mxCell>
        <mxCell id="q1FSfACkbBMbSRhOJW1q-34" value="" style="html=1;align=left;spacingLeft=2;endArrow=block;rounded=0;edgeStyle=orthogonalEdgeStyle;curved=0;rounded=0;" parent="q1FSfACkbBMbSRhOJW1q-31" edge="1">
          <mxGeometry x="-0.2922" y="20" relative="1" as="geometry">
            <mxPoint x="85.88000000000011" y="3020.0200000000004" as="sourcePoint" />
            <Array as="points">
              <mxPoint x="115.88000000000011" y="3020.08" />
              <mxPoint x="115.88000000000011" y="3050.08" />
            </Array>
            <mxPoint x="85.88000000000011" y="3050.08" as="targetPoint" />
            <mxPoint as="offset" />
          </mxGeometry>
        </mxCell>
        <mxCell id="q1FSfACkbBMbSRhOJW1q-35" value="" style="endArrow=block;html=1;rounded=0;dashed=1;endFill=1;entryX=0.516;entryY=0.925;entryDx=0;entryDy=0;entryPerimeter=0;exitX=0.505;exitY=0.863;exitDx=0;exitDy=0;exitPerimeter=0;" parent="q1FSfACkbBMbSRhOJW1q-31" edge="1">
          <mxGeometry width="50" height="50" relative="1" as="geometry">
            <mxPoint x="85.68000000000029" y="3080.5599999999995" as="sourcePoint" />
            <mxPoint x="-155.44000000000005" y="3080.3" as="targetPoint" />
          </mxGeometry>
        </mxCell>
        <mxCell id="q1FSfACkbBMbSRhOJW1q-36" value="" style="html=1;points=[[0,0,0,0,5],[0,1,0,0,-5],[1,0,0,0,5],[1,1,0,0,-5]];perimeter=orthogonalPerimeter;outlineConnect=0;targetShapes=umlLifeline;portConstraint=eastwest;newEdgeStyle={&quot;curved&quot;:0,&quot;rounded&quot;:0};whiteSpace=wrap;" parent="q1FSfACkbBMbSRhOJW1q-31" vertex="1">
          <mxGeometry x="75.5" y="3002" width="10" height="90" as="geometry" />
        </mxCell>
        <mxCell id="q1FSfACkbBMbSRhOJW1q-37" value="" style="html=1;points=[[0,0,0,0,5],[0,1,0,0,-5],[1,0,0,0,5],[1,1,0,0,-5]];perimeter=orthogonalPerimeter;outlineConnect=0;targetShapes=umlLifeline;portConstraint=eastwest;newEdgeStyle={&quot;curved&quot;:0,&quot;rounded&quot;:0};whiteSpace=wrap;" parent="q1FSfACkbBMbSRhOJW1q-31" vertex="1">
          <mxGeometry x="-1848.5" y="3106.5" width="10" height="61.5" as="geometry" />
        </mxCell>
        <mxCell id="q1FSfACkbBMbSRhOJW1q-39" value="" style="endArrow=block;html=1;rounded=0;dashed=1;endFill=1;" parent="q1FSfACkbBMbSRhOJW1q-13" edge="1">
          <mxGeometry width="50" height="50" relative="1" as="geometry">
            <mxPoint x="1395" y="583.33" as="sourcePoint" />
            <mxPoint x="1158" y="583.33" as="targetPoint" />
          </mxGeometry>
        </mxCell>
        <mxCell id="q1FSfACkbBMbSRhOJW1q-40" value="&lt;div style=&quot;font-weight: 700;&quot;&gt;&lt;div style=&quot;font-weight: 400;&quot;&gt;&lt;b&gt;&amp;lt;CaaS Integration Layer&amp;gt;&amp;gt;&lt;/b&gt;&lt;/div&gt;&lt;div&gt;&lt;b style=&quot;background-color: transparent; color: light-dark(rgb(0, 0, 0), rgb(255, 255, 255));&quot;&gt;&lt;font style=&quot;font-size: 10px;&quot;&gt;card-place-locator-ag (CPL)&lt;/font&gt;&lt;/b&gt;&lt;/div&gt;&lt;/div&gt;" style="shape=umlLifeline;perimeter=lifelinePerimeter;whiteSpace=wrap;html=1;container=1;dropTarget=0;collapsible=0;recursiveResize=0;outlineConnect=0;portConstraint=eastwest;newEdgeStyle={&quot;edgeStyle&quot;:&quot;elbowEdgeStyle&quot;,&quot;elbow&quot;:&quot;vertical&quot;,&quot;curved&quot;:0,&quot;rounded&quot;:0};align=center;size=41;" parent="q1FSfACkbBMbSRhOJW1q-13" vertex="1">
          <mxGeometry x="1315" y="83" width="160" height="3337" as="geometry" />
        </mxCell>
        <mxCell id="q1FSfACkbBMbSRhOJW1q-41" value="" style="html=1;points=[[0,0,0,0,5],[0,1,0,0,-5],[1,0,0,0,5],[1,1,0,0,-5]];perimeter=orthogonalPerimeter;outlineConnect=0;targetShapes=umlLifeline;portConstraint=eastwest;newEdgeStyle={&quot;curved&quot;:0,&quot;rounded&quot;:0};" parent="q1FSfACkbBMbSRhOJW1q-40" vertex="1">
          <mxGeometry x="75" y="410" width="10" height="102" as="geometry" />
        </mxCell>
        <mxCell id="q1FSfACkbBMbSRhOJW1q-42" value="" style="endArrow=block;html=1;rounded=0;dashed=1;endFill=1;exitX=0.493;exitY=0.66;exitDx=0;exitDy=0;exitPerimeter=0;entryX=0.507;entryY=0.647;entryDx=0;entryDy=0;entryPerimeter=0;" parent="q1FSfACkbBMbSRhOJW1q-13" edge="1">
          <mxGeometry width="50" height="50" relative="1" as="geometry">
            <mxPoint x="1155.75" y="2291" as="sourcePoint" />
            <mxPoint x="918.75" y="2291" as="targetPoint" />
          </mxGeometry>
        </mxCell>
        <mxCell id="q1FSfACkbBMbSRhOJW1q-43" value="" style="endArrow=block;html=1;rounded=0;dashed=1;endFill=1;exitX=0.512;exitY=0.629;exitDx=0;exitDy=0;exitPerimeter=0;" parent="q1FSfACkbBMbSRhOJW1q-13" edge="1">
          <mxGeometry width="50" height="50" relative="1" as="geometry">
            <mxPoint x="1874.92" y="2251.8940000000002" as="sourcePoint" />
            <mxPoint x="1158" y="2251" as="targetPoint" />
          </mxGeometry>
        </mxCell>
        <mxCell id="q1FSfACkbBMbSRhOJW1q-44" value="" style="endArrow=block;html=1;rounded=0;dashed=1;endFill=1;" parent="q1FSfACkbBMbSRhOJW1q-13" edge="1">
          <mxGeometry width="50" height="50" relative="1" as="geometry">
            <mxPoint x="678" y="1692" as="sourcePoint" />
            <mxPoint x="441" y="1692" as="targetPoint" />
          </mxGeometry>
        </mxCell>
        <mxCell id="q1FSfACkbBMbSRhOJW1q-45" value="" style="endArrow=block;html=1;rounded=0;dashed=1;endFill=1;entryX=0.497;entryY=0.294;entryDx=0;entryDy=0;entryPerimeter=0;exitX=0.495;exitY=0.246;exitDx=0;exitDy=0;exitPerimeter=0;" parent="q1FSfACkbBMbSRhOJW1q-13" edge="1">
          <mxGeometry width="50" height="50" relative="1" as="geometry">
            <mxPoint x="2596.2" y="1088.6119999999996" as="sourcePoint" />
            <mxPoint x="2122.52" y="1087.5739999999996" as="targetPoint" />
          </mxGeometry>
        </mxCell>
        <mxCell id="q1FSfACkbBMbSRhOJW1q-46" value="" style="html=1;verticalAlign=bottom;labelBackgroundColor=none;endArrow=block;endFill=1;endSize=6;align=left;rounded=0;exitX=0.5;exitY=0.22;exitDx=0;exitDy=0;exitPerimeter=0;entryX=0.518;entryY=0.24;entryDx=0;entryDy=0;entryPerimeter=0;" parent="q1FSfACkbBMbSRhOJW1q-13" edge="1">
          <mxGeometry x="-1" relative="1" as="geometry">
            <mxPoint x="1154" y="789.9200000000001" as="sourcePoint" />
            <mxPoint x="1869.5199999999998" y="789.6399999999999" as="targetPoint" />
            <mxPoint as="offset" />
          </mxGeometry>
        </mxCell>
        <mxCell id="q1FSfACkbBMbSRhOJW1q-47" value="" style="html=1;verticalAlign=bottom;labelBackgroundColor=none;endArrow=block;endFill=1;endSize=6;align=left;rounded=0;exitX=0.499;exitY=0.072;exitDx=0;exitDy=0;exitPerimeter=0;" parent="q1FSfACkbBMbSRhOJW1q-13" edge="1">
          <mxGeometry x="-1" relative="1" as="geometry">
            <mxPoint x="436.33899999999994" y="411.2080000000001" as="sourcePoint" />
            <mxPoint x="669.5" y="411" as="targetPoint" />
            <mxPoint as="offset" />
          </mxGeometry>
        </mxCell>
        <mxCell id="q1FSfACkbBMbSRhOJW1q-48" value="&lt;div style=&quot;&quot;&gt;&lt;div style=&quot;&quot;&gt;&amp;lt;&amp;lt;Plataforma SaaS&amp;gt;&amp;gt;&lt;br&gt;&lt;/div&gt;PLARD&lt;/div&gt;" style="shape=umlLifeline;perimeter=lifelinePerimeter;whiteSpace=wrap;html=1;container=1;dropTarget=0;collapsible=0;recursiveResize=0;outlineConnect=0;portConstraint=eastwest;newEdgeStyle={&quot;edgeStyle&quot;:&quot;elbowEdgeStyle&quot;,&quot;elbow&quot;:&quot;vertical&quot;,&quot;curved&quot;:0,&quot;rounded&quot;:0};align=center;fontStyle=1;fillColor=#fff2cc;strokeColor=#d6b656;" parent="q1FSfACkbBMbSRhOJW1q-13" vertex="1">
          <mxGeometry x="2515" y="84" width="160" height="3336" as="geometry" />
        </mxCell>
        <mxCell id="q1FSfACkbBMbSRhOJW1q-49" value="" style="html=1;points=[[0,0,0,0,5],[0,1,0,0,-5],[1,0,0,0,5],[1,1,0,0,-5]];perimeter=orthogonalPerimeter;outlineConnect=0;targetShapes=umlLifeline;portConstraint=eastwest;newEdgeStyle={&quot;curved&quot;:0,&quot;rounded&quot;:0};" parent="q1FSfACkbBMbSRhOJW1q-48" vertex="1">
          <mxGeometry x="75" y="909" width="10" height="106" as="geometry" />
        </mxCell>
        <mxCell id="q1FSfACkbBMbSRhOJW1q-50" value="" style="endArrow=block;html=1;rounded=0;dashed=1;endFill=1;entryX=0.508;entryY=0.826;entryDx=0;entryDy=0;entryPerimeter=0;exitX=0.494;exitY=0.791;exitDx=0;exitDy=0;exitPerimeter=0;" parent="q1FSfACkbBMbSRhOJW1q-13" edge="1">
          <mxGeometry width="50" height="50" relative="1" as="geometry">
            <mxPoint x="2837.0400000000004" y="2761.626" as="sourcePoint" />
            <mxPoint x="1157.3120000000004" y="2763.236" as="targetPoint" />
          </mxGeometry>
        </mxCell>
        <mxCell id="q1FSfACkbBMbSRhOJW1q-51" value="" style="endArrow=block;html=1;rounded=0;dashed=1;endFill=1;entryX=0.497;entryY=0.294;entryDx=0;entryDy=0;entryPerimeter=0;exitX=0.495;exitY=0.246;exitDx=0;exitDy=0;exitPerimeter=0;" parent="q1FSfACkbBMbSRhOJW1q-13" edge="1">
          <mxGeometry width="50" height="50" relative="1" as="geometry">
            <mxPoint x="2593.68" y="1950.538" as="sourcePoint" />
            <mxPoint x="2120" y="1949.5" as="targetPoint" />
          </mxGeometry>
        </mxCell>
        <mxCell id="q1FSfACkbBMbSRhOJW1q-52" value="" style="endArrow=block;html=1;rounded=0;dashed=1;endFill=1;exitX=0.495;exitY=0.399;exitDx=0;exitDy=0;exitPerimeter=0;" parent="q1FSfACkbBMbSRhOJW1q-13" edge="1">
          <mxGeometry width="50" height="50" relative="1" as="geometry">
            <mxPoint x="1872.1999999999998" y="1552.1139999999996" as="sourcePoint" />
            <mxPoint x="1158" y="1551" as="targetPoint" />
          </mxGeometry>
        </mxCell>
        <mxCell id="q1FSfACkbBMbSRhOJW1q-54" value="" style="endArrow=block;html=1;rounded=0;dashed=1;endFill=1;" parent="q1FSfACkbBMbSRhOJW1q-13" edge="1">
          <mxGeometry width="50" height="50" relative="1" as="geometry">
            <mxPoint x="441" y="2896" as="sourcePoint" />
            <mxPoint x="204" y="2896" as="targetPoint" />
          </mxGeometry>
        </mxCell>
        <mxCell id="q1FSfACkbBMbSRhOJW1q-58" value="" style="endArrow=block;html=1;rounded=0;dashed=1;endFill=1;" parent="q1FSfACkbBMbSRhOJW1q-13" edge="1">
          <mxGeometry width="50" height="50" relative="1" as="geometry">
            <mxPoint x="439.5" y="1722" as="sourcePoint" />
            <mxPoint x="202.5" y="1722" as="targetPoint" />
          </mxGeometry>
        </mxCell>
        <mxCell id="q1FSfACkbBMbSRhOJW1q-59" value="" style="html=1;verticalAlign=bottom;labelBackgroundColor=none;endArrow=block;endFill=1;endSize=6;align=left;rounded=0;entryX=0.507;entryY=0.261;entryDx=0;entryDy=0;entryPerimeter=0;" parent="q1FSfACkbBMbSRhOJW1q-13" edge="1">
          <mxGeometry x="-1" relative="1" as="geometry">
            <mxPoint x="2114" y="1008" as="sourcePoint" />
            <mxPoint x="2590.1200000000003" y="1009.3199999999997" as="targetPoint" />
            <mxPoint as="offset" />
          </mxGeometry>
        </mxCell>
        <mxCell id="q1FSfACkbBMbSRhOJW1q-60" value="" style="html=1;verticalAlign=bottom;labelBackgroundColor=none;endArrow=block;endFill=1;endSize=6;align=left;rounded=0;exitX=0.494;exitY=0.164;exitDx=0;exitDy=0;exitPerimeter=0;entryX=0.501;entryY=0.164;entryDx=0;entryDy=0;entryPerimeter=0;" parent="q1FSfACkbBMbSRhOJW1q-13" edge="1">
          <mxGeometry x="-1" relative="1" as="geometry">
            <mxPoint x="1629.04" y="945.6800000000003" as="sourcePoint" />
            <mxPoint x="1870.1599999999999" y="945.6800000000003" as="targetPoint" />
            <mxPoint as="offset" />
          </mxGeometry>
        </mxCell>
        <mxCell id="q1FSfACkbBMbSRhOJW1q-62" value="" style="endArrow=block;html=1;rounded=0;dashed=1;endFill=1;" parent="q1FSfACkbBMbSRhOJW1q-13" edge="1">
          <mxGeometry width="50" height="50" relative="1" as="geometry">
            <mxPoint x="917.5" y="1628" as="sourcePoint" />
            <mxPoint x="680.5" y="1628" as="targetPoint" />
          </mxGeometry>
        </mxCell>
        <mxCell id="q1FSfACkbBMbSRhOJW1q-63" value="" style="endArrow=block;html=1;rounded=0;dashed=1;endFill=1;" parent="q1FSfACkbBMbSRhOJW1q-13" edge="1">
          <mxGeometry width="50" height="50" relative="1" as="geometry">
            <mxPoint x="1154.5" y="1582" as="sourcePoint" />
            <mxPoint x="917.5" y="1582" as="targetPoint" />
          </mxGeometry>
        </mxCell>
        <mxCell id="q1FSfACkbBMbSRhOJW1q-64" value="" style="html=1;verticalAlign=bottom;labelBackgroundColor=none;endArrow=block;endFill=1;endSize=6;align=left;rounded=0;exitX=0.499;exitY=0.072;exitDx=0;exitDy=0;exitPerimeter=0;" parent="q1FSfACkbBMbSRhOJW1q-13" edge="1">
          <mxGeometry x="-1" relative="1" as="geometry">
            <mxPoint x="198" y="266.99800000000005" as="sourcePoint" />
            <mxPoint x="431.16100000000006" y="266.78999999999996" as="targetPoint" />
            <mxPoint as="offset" />
          </mxGeometry>
        </mxCell>
        <mxCell id="q1FSfACkbBMbSRhOJW1q-65" value="&lt;div&gt;&lt;b&gt;&amp;lt;&amp;lt;Repositorio&amp;gt;&amp;gt;&lt;/b&gt;&lt;br&gt;&lt;/div&gt;&lt;b&gt;Redis Stream&lt;/b&gt;" style="shape=umlLifeline;perimeter=lifelinePerimeter;whiteSpace=wrap;html=1;container=1;dropTarget=0;collapsible=0;recursiveResize=0;outlineConnect=0;portConstraint=eastwest;newEdgeStyle={&quot;edgeStyle&quot;:&quot;elbowEdgeStyle&quot;,&quot;elbow&quot;:&quot;vertical&quot;,&quot;curved&quot;:0,&quot;rounded&quot;:0};align=center;" parent="q1FSfACkbBMbSRhOJW1q-13" vertex="1">
          <mxGeometry x="1793" y="84" width="160" height="3336" as="geometry" />
        </mxCell>
        <mxCell id="q1FSfACkbBMbSRhOJW1q-66" value="" style="html=1;points=[[0,0,0,0,5],[0,1,0,0,-5],[1,0,0,0,5],[1,1,0,0,-5]];perimeter=orthogonalPerimeter;outlineConnect=0;targetShapes=umlLifeline;portConstraint=eastwest;newEdgeStyle={&quot;curved&quot;:0,&quot;rounded&quot;:0};whiteSpace=wrap;" parent="q1FSfACkbBMbSRhOJW1q-65" vertex="1">
          <mxGeometry x="76" y="2117" width="10" height="58" as="geometry" />
        </mxCell>
        <mxCell id="q1FSfACkbBMbSRhOJW1q-67" value="&lt;div&gt;&lt;b&gt;&amp;lt;&amp;lt;Repositorio&amp;gt;&amp;gt;&lt;/b&gt;&lt;b&gt;&lt;br&gt;&lt;/b&gt;&lt;/div&gt;&lt;b&gt;Kafka&lt;/b&gt;" style="shape=umlLifeline;perimeter=lifelinePerimeter;whiteSpace=wrap;html=1;container=1;dropTarget=0;collapsible=0;recursiveResize=0;outlineConnect=0;portConstraint=eastwest;newEdgeStyle={&quot;edgeStyle&quot;:&quot;elbowEdgeStyle&quot;,&quot;elbow&quot;:&quot;vertical&quot;,&quot;curved&quot;:0,&quot;rounded&quot;:0};align=center;" parent="q1FSfACkbBMbSRhOJW1q-13" vertex="1">
          <mxGeometry x="2275" y="83" width="160" height="3337" as="geometry" />
        </mxCell>
        <mxCell id="q1FSfACkbBMbSRhOJW1q-68" value="&lt;div style=&quot;forced-color-adjust: none; color: rgb(0, 0, 0); font-family: Helvetica; font-size: 12px; font-style: normal; font-variant-ligatures: normal; font-variant-caps: normal; font-weight: 400; letter-spacing: normal; orphans: 2; text-align: center; text-indent: 0px; text-transform: none; widows: 2; word-spacing: 0px; -webkit-text-stroke-width: 0px; white-space: normal; text-decoration-thickness: initial; text-decoration-style: initial; text-decoration-color: initial;&quot;&gt;&lt;div style=&quot;&quot;&gt;&lt;span style=&quot;font-weight: 700; color: light-dark(rgb(0, 0, 0), rgb(237, 237, 237)); background-color: transparent;&quot;&gt;&amp;lt;Queque&amp;gt;&amp;gt;&lt;/span&gt;&lt;/div&gt;&lt;/div&gt;&lt;div style=&quot;forced-color-adjust: none; color: rgb(0, 0, 0); font-family: Helvetica; font-size: 12px; font-style: normal; font-variant-ligatures: normal; font-variant-caps: normal; font-weight: 400; letter-spacing: normal; orphans: 2; text-align: center; text-indent: 0px; text-transform: none; widows: 2; word-spacing: 0px; -webkit-text-stroke-width: 0px; white-space: normal; text-decoration-thickness: initial; text-decoration-style: initial; text-decoration-color: initial;&quot;&gt;&lt;div style=&quot;font-weight: 700;&quot;&gt;&lt;span style=&quot;background-color: transparent; color: light-dark(rgb(0, 0, 0), rgb(255, 255, 255));&quot;&gt;MQ 390&lt;/span&gt;&lt;/div&gt;&lt;/div&gt;" style="shape=umlLifeline;perimeter=lifelinePerimeter;whiteSpace=wrap;html=1;container=1;dropTarget=0;collapsible=0;recursiveResize=0;outlineConnect=0;portConstraint=eastwest;newEdgeStyle={&quot;edgeStyle&quot;:&quot;elbowEdgeStyle&quot;,&quot;elbow&quot;:&quot;vertical&quot;,&quot;curved&quot;:0,&quot;rounded&quot;:0};align=center;fontStyle=1;fillColor=#f8cecc;strokeColor=#b85450;" parent="q1FSfACkbBMbSRhOJW1q-13" vertex="1">
          <mxGeometry x="2756" y="84" width="160" height="3336" as="geometry" />
        </mxCell>
        <mxCell id="q1FSfACkbBMbSRhOJW1q-69" value="" style="html=1;points=[[0,0,0,0,5],[0,1,0,0,-5],[1,0,0,0,5],[1,1,0,0,-5]];perimeter=orthogonalPerimeter;outlineConnect=0;targetShapes=umlLifeline;portConstraint=eastwest;newEdgeStyle={&quot;curved&quot;:0,&quot;rounded&quot;:0};whiteSpace=wrap;" parent="q1FSfACkbBMbSRhOJW1q-68" vertex="1">
          <mxGeometry x="75" y="2545" width="10" height="147" as="geometry" />
        </mxCell>
        <mxCell id="q1FSfACkbBMbSRhOJW1q-70" value="" style="html=1;points=[[0,0,0,0,5],[0,1,0,0,-5],[1,0,0,0,5],[1,1,0,0,-5]];perimeter=orthogonalPerimeter;outlineConnect=0;targetShapes=umlLifeline;portConstraint=eastwest;newEdgeStyle={&quot;curved&quot;:0,&quot;rounded&quot;:0};whiteSpace=wrap;" parent="q1FSfACkbBMbSRhOJW1q-68" vertex="1">
          <mxGeometry x="75" y="3064" width="10" height="61" as="geometry" />
        </mxCell>
        <mxCell id="q1FSfACkbBMbSRhOJW1q-71" value="Canal&lt;div&gt;&lt;b&gt;Santander Web&lt;/b&gt;&lt;/div&gt;&lt;div&gt;&lt;b&gt;CENTEL,&lt;span style=&quot;white-space: pre;&quot;&gt;&#x9;&lt;/span&gt;Terminal Financiero,RN4 APPIAN Sucursales&lt;/b&gt;&lt;br&gt;&lt;div&gt;&lt;div&gt;Envía solicitud de&amp;nbsp;&lt;span style=&quot;background-color: transparent;&quot;&gt;consulta comisión de tarjeta de débito&lt;/span&gt;&lt;/div&gt;&lt;div&gt;[LMZ9]&lt;/div&gt;&lt;/div&gt;&lt;/div&gt;" style="text;html=1;align=left;verticalAlign=top;whiteSpace=wrap;rounded=0;fontSize=9;" parent="q1FSfACkbBMbSRhOJW1q-13" vertex="1">
          <mxGeometry x="446.75" y="327" width="209.25" height="50" as="geometry" />
        </mxCell>
        <mxCell id="q1FSfACkbBMbSRhOJW1q-72" value="&lt;div&gt;&lt;b&gt;&amp;lt;CaaS Integration Layer&amp;gt;&amp;gt;&lt;/b&gt;&lt;/div&gt;&lt;div&gt;&lt;b&gt;activate-card&lt;/b&gt;&lt;/div&gt;" style="shape=umlLifeline;perimeter=lifelinePerimeter;whiteSpace=wrap;html=1;container=1;dropTarget=0;collapsible=0;recursiveResize=0;outlineConnect=0;portConstraint=eastwest;newEdgeStyle={&quot;edgeStyle&quot;:&quot;elbowEdgeStyle&quot;,&quot;elbow&quot;:&quot;vertical&quot;,&quot;curved&quot;:0,&quot;rounded&quot;:0};align=center;" parent="q1FSfACkbBMbSRhOJW1q-13" vertex="1">
          <mxGeometry x="2034" y="81" width="160" height="3339" as="geometry" />
        </mxCell>
        <mxCell id="q1FSfACkbBMbSRhOJW1q-73" value="" style="html=1;points=[[0,0,0,0,5],[0,1,0,0,-5],[1,0,0,0,5],[1,1,0,0,-5]];perimeter=orthogonalPerimeter;outlineConnect=0;targetShapes=umlLifeline;portConstraint=eastwest;newEdgeStyle={&quot;curved&quot;:0,&quot;rounded&quot;:0};" parent="q1FSfACkbBMbSRhOJW1q-13" vertex="1">
          <mxGeometry x="1869" y="775" width="10" height="660" as="geometry" />
        </mxCell>
        <mxCell id="q1FSfACkbBMbSRhOJW1q-74" value="&lt;div&gt;&lt;b&gt;&amp;lt;CaaS Integration Layer&amp;gt;&amp;gt;&lt;/b&gt;&lt;/div&gt;&lt;div&gt;&lt;span style=&quot;background-color: transparent; color: light-dark(rgb(0, 0, 0), rgb(255, 255, 255));&quot;&gt;&lt;b&gt;ms-starter&lt;/b&gt;&lt;/span&gt;&lt;/div&gt;" style="shape=umlLifeline;perimeter=lifelinePerimeter;whiteSpace=wrap;html=1;container=1;dropTarget=0;collapsible=0;recursiveResize=0;outlineConnect=0;portConstraint=eastwest;newEdgeStyle={&quot;edgeStyle&quot;:&quot;elbowEdgeStyle&quot;,&quot;elbow&quot;:&quot;vertical&quot;,&quot;curved&quot;:0,&quot;rounded&quot;:0};align=center;" parent="q1FSfACkbBMbSRhOJW1q-13" vertex="1">
          <mxGeometry x="1553" y="84" width="162" height="3336" as="geometry" />
        </mxCell>
        <mxCell id="q1FSfACkbBMbSRhOJW1q-75" value="" style="html=1;points=[[0,0,0,0,5],[0,1,0,0,-5],[1,0,0,0,5],[1,1,0,0,-5]];perimeter=orthogonalPerimeter;outlineConnect=0;targetShapes=umlLifeline;portConstraint=eastwest;newEdgeStyle={&quot;curved&quot;:0,&quot;rounded&quot;:0};" parent="q1FSfACkbBMbSRhOJW1q-74" vertex="1">
          <mxGeometry x="76" y="775" width="10" height="100" as="geometry" />
        </mxCell>
        <mxCell id="q1FSfACkbBMbSRhOJW1q-76" value="" style="html=1;verticalAlign=bottom;labelBackgroundColor=none;endArrow=block;endFill=1;endSize=6;align=left;rounded=0;" parent="q1FSfACkbBMbSRhOJW1q-13" edge="1">
          <mxGeometry x="-1" relative="1" as="geometry">
            <mxPoint x="682" y="444" as="sourcePoint" />
            <mxPoint x="908" y="444" as="targetPoint" />
            <mxPoint as="offset" />
          </mxGeometry>
        </mxCell>
        <mxCell id="q1FSfACkbBMbSRhOJW1q-77" value="" style="html=1;verticalAlign=bottom;labelBackgroundColor=none;endArrow=block;endFill=1;endSize=6;align=left;rounded=0;fontColor=#FF0000;" parent="q1FSfACkbBMbSRhOJW1q-13" edge="1">
          <mxGeometry x="-1" relative="1" as="geometry">
            <mxPoint x="918" y="477" as="sourcePoint" />
            <mxPoint x="1148" y="477" as="targetPoint" />
            <mxPoint as="offset" />
          </mxGeometry>
        </mxCell>
        <mxCell id="q1FSfACkbBMbSRhOJW1q-78" value="" style="html=1;verticalAlign=bottom;labelBackgroundColor=none;endArrow=block;endFill=1;endSize=6;align=left;rounded=0;" parent="q1FSfACkbBMbSRhOJW1q-13" edge="1">
          <mxGeometry x="-1" relative="1" as="geometry">
            <mxPoint x="1158" y="504" as="sourcePoint" />
            <mxPoint x="1388" y="504" as="targetPoint" />
            <mxPoint as="offset" />
          </mxGeometry>
        </mxCell>
        <mxCell id="q1FSfACkbBMbSRhOJW1q-79" value="" style="html=1;points=[[0,0,0,0,5],[0,1,0,0,-5],[1,0,0,0,5],[1,1,0,0,-5]];perimeter=orthogonalPerimeter;outlineConnect=0;targetShapes=umlLifeline;portConstraint=eastwest;newEdgeStyle={&quot;curved&quot;:0,&quot;rounded&quot;:0};" parent="q1FSfACkbBMbSRhOJW1q-13" vertex="1">
          <mxGeometry x="1148" y="465" width="10" height="1010" as="geometry" />
        </mxCell>
        <mxCell id="q1FSfACkbBMbSRhOJW1q-80" value="" style="html=1;points=[[0,0,0,0,5],[0,1,0,0,-5],[1,0,0,0,5],[1,1,0,0,-5]];perimeter=orthogonalPerimeter;outlineConnect=0;targetShapes=umlLifeline;portConstraint=eastwest;newEdgeStyle={&quot;curved&quot;:0,&quot;rounded&quot;:0};" parent="q1FSfACkbBMbSRhOJW1q-13" vertex="1">
          <mxGeometry x="908" y="425" width="10" height="1090" as="geometry" />
        </mxCell>
        <mxCell id="q1FSfACkbBMbSRhOJW1q-81" value="" style="html=1;points=[[0,0,0,0,5],[0,1,0,0,-5],[1,0,0,0,5],[1,1,0,0,-5]];perimeter=orthogonalPerimeter;outlineConnect=0;targetShapes=umlLifeline;portConstraint=eastwest;newEdgeStyle={&quot;curved&quot;:0,&quot;rounded&quot;:0};" parent="q1FSfACkbBMbSRhOJW1q-13" vertex="1">
          <mxGeometry x="670" y="395" width="10" height="1160" as="geometry" />
        </mxCell>
        <mxCell id="q1FSfACkbBMbSRhOJW1q-82" value="" style="html=1;points=[[0,0,0,0,5],[0,1,0,0,-5],[1,0,0,0,5],[1,1,0,0,-5]];perimeter=orthogonalPerimeter;outlineConnect=0;targetShapes=umlLifeline;portConstraint=eastwest;newEdgeStyle={&quot;curved&quot;:0,&quot;rounded&quot;:0};" parent="q1FSfACkbBMbSRhOJW1q-13" vertex="1">
          <mxGeometry x="2110" y="965" width="10" height="450" as="geometry" />
        </mxCell>
        <mxCell id="q1FSfACkbBMbSRhOJW1q-83" value="Componente&lt;div&gt;&lt;b&gt;Launcher PLARD&lt;/b&gt;&lt;br&gt;&lt;div&gt;Solicita respuesta de validación del estatus de migración del numero de tarjeta a CPL&amp;nbsp;&lt;/div&gt;&lt;div&gt;[LMZ9]&lt;/div&gt;&lt;/div&gt;" style="text;html=1;align=left;verticalAlign=top;whiteSpace=wrap;rounded=0;fontSize=9;" parent="q1FSfACkbBMbSRhOJW1q-13" vertex="1">
          <mxGeometry x="1163.75" y="438" width="182.25" height="62" as="geometry" />
        </mxCell>
        <mxCell id="q1FSfACkbBMbSRhOJW1q-84" value="&lt;div&gt;&lt;b&gt;&amp;lt;&amp;lt;Canal&amp;gt;&amp;gt;&lt;/b&gt;&lt;/div&gt;" style="shape=umlLifeline;perimeter=lifelinePerimeter;whiteSpace=wrap;html=1;container=1;dropTarget=0;collapsible=0;recursiveResize=0;outlineConnect=0;portConstraint=eastwest;newEdgeStyle={&quot;edgeStyle&quot;:&quot;elbowEdgeStyle&quot;,&quot;elbow&quot;:&quot;vertical&quot;,&quot;curved&quot;:0,&quot;rounded&quot;:0};align=center;" parent="q1FSfACkbBMbSRhOJW1q-13" vertex="1">
          <mxGeometry x="355" y="81" width="161" height="3339" as="geometry" />
        </mxCell>
        <mxCell id="q1FSfACkbBMbSRhOJW1q-85" value="" style="html=1;points=[[0,0,0,0,5],[0,1,0,0,-5],[1,0,0,0,5],[1,1,0,0,-5]];perimeter=orthogonalPerimeter;outlineConnect=0;targetShapes=umlLifeline;portConstraint=eastwest;newEdgeStyle={&quot;curved&quot;:0,&quot;rounded&quot;:0};whiteSpace=wrap;" parent="q1FSfACkbBMbSRhOJW1q-84" vertex="1">
          <mxGeometry x="75.5" y="2770" width="10" height="58" as="geometry" />
        </mxCell>
        <mxCell id="q1FSfACkbBMbSRhOJW1q-86" value="" style="html=1;points=[[0,0,0,0,5],[0,1,0,0,-5],[1,0,0,0,5],[1,1,0,0,-5]];perimeter=orthogonalPerimeter;outlineConnect=0;targetShapes=umlLifeline;portConstraint=eastwest;newEdgeStyle={&quot;curved&quot;:0,&quot;rounded&quot;:0};" parent="q1FSfACkbBMbSRhOJW1q-84" vertex="1">
          <mxGeometry x="75.5" y="165" width="10" height="1370" as="geometry" />
        </mxCell>
        <mxCell id="q1FSfACkbBMbSRhOJW1q-87" value="" style="html=1;verticalAlign=bottom;labelBackgroundColor=none;endArrow=block;endFill=1;endSize=6;align=left;rounded=0;exitX=0.499;exitY=0.072;exitDx=0;exitDy=0;exitPerimeter=0;" parent="q1FSfACkbBMbSRhOJW1q-13" edge="1">
          <mxGeometry x="-1" relative="1" as="geometry">
            <mxPoint x="439.8399999999999" y="308.2080000000001" as="sourcePoint" />
            <mxPoint x="673.001" y="308" as="targetPoint" />
            <mxPoint as="offset" />
          </mxGeometry>
        </mxCell>
        <mxCell id="q1FSfACkbBMbSRhOJW1q-88" value="&lt;div&gt;Canal&lt;/div&gt;&lt;b&gt;Santander Web&lt;/b&gt;&lt;div&gt;&lt;div&gt;Solicita&amp;nbsp;&lt;span style=&quot;background-color: transparent;&quot;&gt;consulta comisión de tarjeta de débito&lt;/span&gt;&lt;/div&gt;&lt;div&gt;[LMZ9]&lt;/div&gt;&lt;/div&gt;" style="text;html=1;align=left;verticalAlign=top;whiteSpace=wrap;rounded=0;fontSize=9;" parent="q1FSfACkbBMbSRhOJW1q-13" vertex="1">
          <mxGeometry x="448" y="253" width="200" height="50" as="geometry" />
        </mxCell>
        <mxCell id="q1FSfACkbBMbSRhOJW1q-89" value="Middleware&amp;nbsp;&lt;div&gt;&lt;b&gt;Altarir AaaS&lt;/b&gt;&lt;br&gt;&lt;div&gt;&lt;span style=&quot;background-color: transparent; color: light-dark(rgb(0, 0, 0), rgb(255, 255, 255));&quot;&gt;Envía petición con solicitud&amp;nbsp;&lt;/span&gt;&lt;span style=&quot;background-color: transparent;&quot;&gt;consulta comisión de tarjeta de débito&lt;/span&gt;&lt;/div&gt;&lt;div&gt;[LMZ9]&lt;/div&gt;&lt;/div&gt;" style="text;html=1;align=left;verticalAlign=top;whiteSpace=wrap;rounded=0;fontSize=9;" parent="q1FSfACkbBMbSRhOJW1q-13" vertex="1">
          <mxGeometry x="685" y="380" width="161" height="57" as="geometry" />
        </mxCell>
        <mxCell id="q1FSfACkbBMbSRhOJW1q-90" value="&lt;b&gt;Cliente Santander&lt;/b&gt;" style="shape=umlLifeline;perimeter=lifelinePerimeter;whiteSpace=wrap;html=1;container=1;dropTarget=0;collapsible=0;recursiveResize=0;outlineConnect=0;portConstraint=eastwest;newEdgeStyle={&quot;edgeStyle&quot;:&quot;elbowEdgeStyle&quot;,&quot;elbow&quot;:&quot;vertical&quot;,&quot;curved&quot;:0,&quot;rounded&quot;:0};align=center;" parent="q1FSfACkbBMbSRhOJW1q-13" vertex="1">
          <mxGeometry x="117" y="81" width="161" height="3339" as="geometry" />
        </mxCell>
        <mxCell id="q1FSfACkbBMbSRhOJW1q-91" value="" style="html=1;points=[[0,0,0,0,5],[0,1,0,0,-5],[1,0,0,0,5],[1,1,0,0,-5]];perimeter=orthogonalPerimeter;outlineConnect=0;targetShapes=umlLifeline;portConstraint=eastwest;newEdgeStyle={&quot;curved&quot;:0,&quot;rounded&quot;:0};" parent="q1FSfACkbBMbSRhOJW1q-90" vertex="1">
          <mxGeometry x="75.5" y="155" width="10" height="3165" as="geometry" />
        </mxCell>
        <mxCell id="q1FSfACkbBMbSRhOJW1q-92" value="&lt;br&gt;&lt;div&gt;&lt;b&gt;Cliente Santander&lt;/b&gt;&lt;div&gt;Solicita&amp;nbsp;&lt;span style=&quot;&quot;&gt;consulta comisión de tarjeta de débito&lt;/span&gt;&lt;/div&gt;&lt;div&gt;[LMZ9]&lt;/div&gt;&lt;/div&gt;" style="text;html=1;align=left;verticalAlign=top;whiteSpace=wrap;rounded=0;fontSize=9;textShadow=0;fontFamily=Helvetica;fontColor=default;labelBackgroundColor=none;" parent="q1FSfACkbBMbSRhOJW1q-13" vertex="1">
          <mxGeometry x="208" y="213" width="200" height="50" as="geometry" />
        </mxCell>
        <mxCell id="q1FSfACkbBMbSRhOJW1q-93" value="&lt;div&gt;Queque&lt;div&gt;&lt;b&gt;MQ AaaS&lt;/b&gt;&lt;/div&gt;&lt;div&gt;&lt;div&gt;&lt;span style=&quot;background-color: transparent; color: light-dark(rgb(0, 0, 0), rgb(255, 255, 255));&quot;&gt;Recibe solicitud de&amp;nbsp;&lt;/span&gt;&lt;span style=&quot;background-color: transparent;&quot;&gt;consulta comisión de tarjeta de débito&lt;/span&gt;&lt;/div&gt;&lt;div&gt;[LMZ9]&lt;/div&gt;&lt;/div&gt;&lt;/div&gt;" style="text;html=1;align=left;verticalAlign=top;whiteSpace=wrap;rounded=0;fontSize=9;" parent="q1FSfACkbBMbSRhOJW1q-13" vertex="1">
          <mxGeometry x="925.25" y="422" width="202.75" height="44" as="geometry" />
        </mxCell>
        <mxCell id="q1FSfACkbBMbSRhOJW1q-94" value="&lt;div style=&quot;font-size: 9px; font-weight: 700;&quot;&gt;Si respuesta de&amp;nbsp;&lt;/div&gt;&lt;font style=&quot;font-size: 9px; font-weight: 700;&quot;&gt;[CPL== Plard]&lt;/font&gt;" style="text;html=1;rotation=0;" parent="q1FSfACkbBMbSRhOJW1q-13" vertex="1">
          <mxGeometry x="307" y="695" width="70" height="20" as="geometry" />
        </mxCell>
        <mxCell id="q1FSfACkbBMbSRhOJW1q-95" value="&lt;div&gt;&lt;div&gt;&lt;font style=&quot;color: rgb(0, 0, 0);&quot;&gt;Microservicio&lt;/font&gt;&lt;/div&gt;&lt;div&gt;&lt;span style=&quot;background-color: transparent;&quot;&gt;&lt;b&gt;activate-card&lt;/b&gt;&lt;/span&gt;&lt;/div&gt;&lt;/div&gt;&lt;font style=&quot;color: rgb(0, 0, 0);&quot;&gt;Toma solicitud para realizar la consulta &lt;/font&gt;de información de la tarjeta de débito&lt;div&gt;[LMZ9]&lt;/div&gt;" style="text;html=1;align=left;verticalAlign=top;whiteSpace=wrap;rounded=0;fontSize=9;" parent="q1FSfACkbBMbSRhOJW1q-13" vertex="1">
          <mxGeometry x="2131.5" y="955.09" width="314.5" height="49.82" as="geometry" />
        </mxCell>
        <mxCell id="q1FSfACkbBMbSRhOJW1q-96" value="&lt;font style=&quot;color: rgb(0, 0, 0);&quot;&gt;Componente&lt;/font&gt;&lt;div&gt;&lt;font style=&quot;color: rgb(0, 0, 0);&quot;&gt;&lt;b&gt;&lt;/b&gt;&lt;span style=&quot;background-color: transparent;&quot;&gt;&lt;b&gt;ms-starter&lt;/b&gt;&lt;/span&gt;&lt;b style=&quot;background-color: transparent;&quot;&gt;&amp;nbsp;&lt;/b&gt;&lt;/font&gt;&lt;/div&gt;&lt;div&gt;&lt;div&gt;&lt;div&gt;Redirige al stream asociado al microservicio que ejecuta la transacción&lt;/div&gt;&lt;/div&gt;&lt;div&gt;[LMZ9]&lt;/div&gt;&lt;/div&gt;" style="text;html=1;align=left;verticalAlign=top;whiteSpace=wrap;rounded=0;fontSize=9;" parent="q1FSfACkbBMbSRhOJW1q-13" vertex="1">
          <mxGeometry x="1651" y="882.5" width="165" height="45" as="geometry" />
        </mxCell>
        <mxCell id="q1FSfACkbBMbSRhOJW1q-97" value="Microservicio&lt;br&gt;&lt;div&gt;&lt;font&gt;&lt;b&gt;activate-card&lt;/b&gt;&lt;br&gt;&lt;/font&gt;&lt;div&gt;Recibe respuesta de la consulta de la información &lt;span style=&quot;background-color: transparent;&quot;&gt;de la tarjeta de débito&lt;/span&gt;&lt;/div&gt;&lt;div&gt;[LMZ9]&lt;/div&gt;&lt;/div&gt;" style="text;html=1;align=left;verticalAlign=top;whiteSpace=wrap;rounded=0;fontSize=9;" parent="q1FSfACkbBMbSRhOJW1q-13" vertex="1">
          <mxGeometry x="2131.75" y="1036" width="314.25" height="49" as="geometry" />
        </mxCell>
        <mxCell id="q1FSfACkbBMbSRhOJW1q-98" value="Microservicio&lt;div&gt;&lt;div&gt;&lt;span style=&quot;background-color: transparent;&quot;&gt;&lt;b&gt;activate-card&lt;/b&gt;&lt;/span&gt;&lt;/div&gt;&lt;div&gt;Genera trama de bitácora de auditoria en&amp;nbsp;&lt;span style=&quot;background-color: transparent; color: light-dark(rgb(0, 0, 0), rgb(255, 255, 255));&quot;&gt;formato PS7&lt;/span&gt;&lt;span style=&quot;background-color: transparent; color: light-dark(rgb(0, 0, 0), rgb(255, 255, 255));&quot;&gt;&amp;nbsp;@1&amp;nbsp;&lt;/span&gt;&lt;span style=&quot;background-color: transparent; color: light-dark(rgb(0, 0, 0), rgb(255, 255, 255));&quot;&gt;de la&amp;nbsp;&lt;/span&gt;&lt;span style=&quot;background-color: transparent;&quot;&gt;consulta comisión de tarjeta de débito&lt;/span&gt;&lt;/div&gt;&lt;/div&gt;&lt;div&gt;[LMZ9]&lt;/div&gt;" style="text;html=1;align=left;verticalAlign=top;whiteSpace=wrap;rounded=0;fontSize=9;" parent="q1FSfACkbBMbSRhOJW1q-13" vertex="1">
          <mxGeometry x="2154" y="1269" width="212" height="59" as="geometry" />
        </mxCell>
        <mxCell id="q1FSfACkbBMbSRhOJW1q-99" value="&lt;div&gt;Microservicio&lt;/div&gt;&lt;div&gt;&lt;span style=&quot;background-color: transparent;&quot;&gt;&lt;b&gt;activate-card&lt;/b&gt;&lt;/span&gt;&lt;/div&gt;&lt;div&gt;&lt;span style=&quot;background-color: transparent;&quot;&gt;Deposita el response&amp;nbsp;&lt;/span&gt;&lt;span style=&quot;background-color: transparent; color: light-dark(rgb(0, 0, 0), rgb(255, 255, 255));&quot;&gt;de la&lt;/span&gt;&lt;span style=&quot;background-color: transparent; color: light-dark(rgb(0, 0, 0), rgb(255, 255, 255));&quot;&gt;&amp;nbsp;consulta comisión de tarjeta de débito&lt;/span&gt;&lt;span style=&quot;background-color: transparent; color: light-dark(rgb(0, 0, 0), rgb(255, 255, 255));&quot;&gt;&amp;nbsp;en Stream de Redis&lt;/span&gt;&lt;span style=&quot;background-color: transparent; color: light-dark(rgb(0, 0, 0), rgb(255, 255, 255));&quot;&gt;&amp;nbsp;&lt;/span&gt;&lt;/div&gt;&lt;div&gt;[LMZ9]&lt;b&gt;&lt;/b&gt;&lt;/div&gt;" style="text;html=1;align=left;verticalAlign=top;whiteSpace=wrap;rounded=0;fontSize=9;" parent="q1FSfACkbBMbSRhOJW1q-13" vertex="1">
          <mxGeometry x="1887" y="1462" width="189" height="56" as="geometry" />
        </mxCell>
        <mxCell id="q1FSfACkbBMbSRhOJW1q-100" value="" style="html=1;verticalAlign=bottom;labelBackgroundColor=none;endArrow=none;endFill=0;endSize=6;align=left;rounded=0;startArrow=block;startFill=1;dashed=1;" parent="q1FSfACkbBMbSRhOJW1q-13" edge="1">
          <mxGeometry x="-1" relative="1" as="geometry">
            <mxPoint x="1880" y="1527" as="sourcePoint" />
            <mxPoint x="2107" y="1527" as="targetPoint" />
            <mxPoint as="offset" />
            <Array as="points">
              <mxPoint x="2080" y="1527" />
            </Array>
          </mxGeometry>
        </mxCell>
        <mxCell id="q1FSfACkbBMbSRhOJW1q-102" value="Queque&amp;nbsp;&lt;div&gt;&lt;b&gt;MQ AaaS&lt;/b&gt;&lt;div&gt;&lt;div&gt;Recibe&amp;nbsp;&lt;span style=&quot;background-color: transparent; color: light-dark(rgb(0, 0, 0), rgb(255, 255, 255));&quot;&gt;el response&lt;/span&gt;&lt;span style=&quot;background-color: transparent; color: light-dark(rgb(0, 0, 0), rgb(255, 255, 255));&quot;&gt;&amp;nbsp;de la&lt;/span&gt;&lt;span style=&quot;background-color: transparent; color: light-dark(rgb(0, 0, 0), rgb(255, 255, 255));&quot;&gt;&amp;nbsp;consulta comisión de tarjeta de débito&lt;/span&gt;&lt;/div&gt;&lt;div&gt;&lt;span style=&quot;background-color: transparent; color: light-dark(rgb(0, 0, 0), rgb(255, 255, 255));&quot;&gt;[LMZ9]&lt;/span&gt;&lt;/div&gt;&lt;/div&gt;&lt;/div&gt;" style="text;html=1;align=left;verticalAlign=top;whiteSpace=wrap;rounded=0;fontSize=9;" parent="q1FSfACkbBMbSRhOJW1q-13" vertex="1">
          <mxGeometry x="935" y="1518" width="155.5" height="60" as="geometry" />
        </mxCell>
        <mxCell id="q1FSfACkbBMbSRhOJW1q-103" value="" style="html=1;align=left;spacingLeft=2;endArrow=block;rounded=0;edgeStyle=orthogonalEdgeStyle;curved=0;rounded=0;" parent="q1FSfACkbBMbSRhOJW1q-13" edge="1">
          <mxGeometry x="-0.2922" y="20" relative="1" as="geometry">
            <mxPoint x="2121.25" y="1298" as="sourcePoint" />
            <Array as="points">
              <mxPoint x="2151.25" y="1298.06" />
              <mxPoint x="2151.25" y="1328.06" />
            </Array>
            <mxPoint x="2121.25" y="1328.06" as="targetPoint" />
            <mxPoint as="offset" />
          </mxGeometry>
        </mxCell>
        <mxCell id="q1FSfACkbBMbSRhOJW1q-104" value="Microservicio&lt;div&gt;&lt;div&gt;&lt;span style=&quot;background-color: transparent;&quot;&gt;&lt;b&gt;activate-card&lt;/b&gt;&lt;/span&gt;&lt;/div&gt;&lt;div&gt;Publica trama de pista / bitácora de auditoría de consulta comisión de tarjeta de débito en Tópico de KAFKA&lt;/div&gt;&lt;/div&gt;" style="text;html=1;align=left;verticalAlign=top;whiteSpace=wrap;rounded=0;fontSize=9;" parent="q1FSfACkbBMbSRhOJW1q-13" vertex="1">
          <mxGeometry x="2129.5" y="1348" width="173.5" height="59" as="geometry" />
        </mxCell>
        <mxCell id="q1FSfACkbBMbSRhOJW1q-105" value="" style="html=1;points=[[0,0,0,0,5],[0,1,0,0,-5],[1,0,0,0,5],[1,1,0,0,-5]];perimeter=orthogonalPerimeter;outlineConnect=0;targetShapes=umlLifeline;portConstraint=eastwest;newEdgeStyle={&quot;curved&quot;:0,&quot;rounded&quot;:0};" parent="q1FSfACkbBMbSRhOJW1q-13" vertex="1">
          <mxGeometry x="2350.75" y="1398" width="10" height="44" as="geometry" />
        </mxCell>
        <mxCell id="q1FSfACkbBMbSRhOJW1q-106" value="&lt;font style=&quot;&quot;&gt;Realiza consulta comisión de tarjeta de débito&lt;/font&gt;&lt;div style=&quot;&quot;&gt;&lt;div&gt;&lt;div&gt;&lt;font&gt;&lt;b&gt;&lt;font style=&quot;&quot;&gt;[API PLARD - Device Life Cycle&lt;/font&gt;&lt;font style=&quot;&quot;&gt;]&lt;/font&gt;&lt;/b&gt;&lt;/font&gt;&lt;/div&gt;&lt;/div&gt;&lt;div&gt;&lt;font style=&quot;&quot;&gt;(GET)&amp;nbsp;&lt;span style=&quot;background-color: transparent;&quot;&gt;&amp;nbsp;life-cycle&lt;/span&gt;&lt;span style=&quot;background-color: transparent;&quot;&gt;/v5/devices/details&lt;/span&gt;&lt;span style=&quot;background-color: transparent;&quot;&gt;&lt;/span&gt;&lt;/font&gt;&lt;/div&gt;&lt;/div&gt;&lt;p style=&quot;margin-left: 20.6pt; text-indent: -0.25in; font-size: 10px;&quot; class=&quot;TableText&quot;&gt;&lt;i&gt;&lt;span style=&quot;&quot; lang=&quot;ES&quot;&gt;&lt;font style=&quot;font-size: 10px;&quot;&gt;&lt;/font&gt;&lt;/span&gt;&lt;/i&gt;&lt;/p&gt;" style="text;html=1;align=left;verticalAlign=top;whiteSpace=wrap;rounded=0;fontSize=9;fontColor=default;" parent="q1FSfACkbBMbSRhOJW1q-13" vertex="1">
          <mxGeometry x="2635.25" y="1015" width="194.75" height="50" as="geometry" />
        </mxCell>
        <mxCell id="q1FSfACkbBMbSRhOJW1q-107" value="" style="html=1;verticalAlign=bottom;labelBackgroundColor=none;endArrow=block;endFill=1;endSize=6;align=left;rounded=0;" parent="q1FSfACkbBMbSRhOJW1q-13" edge="1">
          <mxGeometry x="-1" relative="1" as="geometry">
            <mxPoint x="1879" y="984" as="sourcePoint" />
            <mxPoint x="2109" y="984" as="targetPoint" />
            <mxPoint as="offset" />
          </mxGeometry>
        </mxCell>
        <mxCell id="q1FSfACkbBMbSRhOJW1q-108" value="" style="html=1;align=left;spacingLeft=2;endArrow=block;rounded=0;edgeStyle=orthogonalEdgeStyle;curved=0;rounded=0;" parent="q1FSfACkbBMbSRhOJW1q-13" edge="1">
          <mxGeometry x="-0.2922" y="20" relative="1" as="geometry">
            <mxPoint x="2602" y="1026.0200000000004" as="sourcePoint" />
            <Array as="points">
              <mxPoint x="2632" y="1026.08" />
              <mxPoint x="2632" y="1056.08" />
            </Array>
            <mxPoint x="2602" y="1056.08" as="targetPoint" />
            <mxPoint as="offset" />
          </mxGeometry>
        </mxCell>
        <mxCell id="q1FSfACkbBMbSRhOJW1q-109" value="" style="html=1;verticalAlign=bottom;labelBackgroundColor=none;endArrow=block;endFill=1;endSize=6;align=left;rounded=0;" parent="q1FSfACkbBMbSRhOJW1q-13" edge="1">
          <mxGeometry x="-1" relative="1" as="geometry">
            <mxPoint x="2121" y="1411" as="sourcePoint" />
            <mxPoint x="2349" y="1411" as="targetPoint" />
            <mxPoint as="offset" />
          </mxGeometry>
        </mxCell>
        <mxCell id="q1FSfACkbBMbSRhOJW1q-111" value="Middleware&lt;div&gt;&lt;b&gt;Altarir AaaS&amp;nbsp;&lt;/b&gt;&lt;br&gt;&lt;div&gt;&lt;div&gt;Recibe&amp;nbsp;&lt;span style=&quot;background-color: transparent; color: light-dark(rgb(0, 0, 0), rgb(255, 255, 255));&quot;&gt;el response&lt;/span&gt;&lt;span style=&quot;background-color: transparent; color: light-dark(rgb(0, 0, 0), rgb(255, 255, 255));&quot;&gt;&amp;nbsp;de la&lt;/span&gt;&lt;span style=&quot;background-color: transparent; color: light-dark(rgb(0, 0, 0), rgb(255, 255, 255));&quot;&gt;&amp;nbsp;consulta comisión de tarjeta de débito&lt;/span&gt;&lt;/div&gt;&lt;div&gt;&lt;span style=&quot;background-color: transparent; color: light-dark(rgb(0, 0, 0), rgb(255, 255, 255));&quot;&gt;[LMZ9]&lt;/span&gt;&lt;/div&gt;&lt;/div&gt;&lt;/div&gt;" style="text;html=1;align=left;verticalAlign=top;whiteSpace=wrap;rounded=0;fontSize=9;" parent="q1FSfACkbBMbSRhOJW1q-13" vertex="1">
          <mxGeometry x="691" y="1566" width="155" height="57" as="geometry" />
        </mxCell>
        <mxCell id="q1FSfACkbBMbSRhOJW1q-112" value="Canal&amp;nbsp;&lt;div&gt;&lt;b&gt;Santander&lt;/b&gt;&lt;div&gt;&lt;div&gt;Recibe respuesta de la consulta comisión de tarjeta de débito&lt;/div&gt;&lt;/div&gt;&lt;div&gt;[LMZ9]&lt;/div&gt;&lt;/div&gt;" style="text;html=1;align=left;verticalAlign=top;whiteSpace=wrap;rounded=0;fontSize=9;" parent="q1FSfACkbBMbSRhOJW1q-13" vertex="1">
          <mxGeometry x="450" y="1627" width="157" height="50" as="geometry" />
        </mxCell>
        <mxCell id="q1FSfACkbBMbSRhOJW1q-113" value="&lt;div&gt;&lt;font style=&quot;font-size: 12px;&quot;&gt;Si respuesta de&amp;nbsp;&lt;/font&gt;&lt;/div&gt;&lt;font style=&quot;font-size: 12px;&quot;&gt;[CPL!= Plard]&lt;/font&gt;" style="text;html=1;rotation=0;fontStyle=1;whiteSpace=wrap;" parent="q1FSfACkbBMbSRhOJW1q-13" vertex="1">
          <mxGeometry x="316" y="2527" width="110" height="40" as="geometry" />
        </mxCell>
        <mxCell id="q1FSfACkbBMbSRhOJW1q-114" value="&lt;div&gt;&lt;b&gt;Cliente Santander&lt;/b&gt;&lt;div&gt;&lt;div&gt;Recibe aviso de la de consulta comisión de tarjeta de débito desde el canal Santander Web&lt;/div&gt;&lt;/div&gt;&lt;div&gt;[LMZ9]&lt;/div&gt;&lt;/div&gt;" style="text;html=1;align=left;verticalAlign=top;whiteSpace=wrap;rounded=0;fontSize=9;" parent="q1FSfACkbBMbSRhOJW1q-13" vertex="1">
          <mxGeometry x="212.5" y="1665" width="175.5" height="50" as="geometry" />
        </mxCell>
        <mxCell id="q1FSfACkbBMbSRhOJW1q-115" value="&lt;div&gt;Altair 390&lt;div&gt;&lt;b&gt;PAMPA&lt;/b&gt;&lt;/div&gt;&lt;/div&gt;Realiza la ejecución exitosa de la consulta comisión de la tarjeta de débito&lt;div style=&quot;&quot;&gt;&lt;div&gt;&lt;span style=&quot;background-color: transparent; color: light-dark(rgb(0, 0, 0), rgb(255, 255, 255));&quot;&gt;[LMZ9]&lt;/span&gt;&lt;/div&gt;&lt;/div&gt;&lt;p style=&quot;margin-left: 20.6pt; text-indent: -0.25in; font-size: 10px;&quot; class=&quot;TableText&quot;&gt;&lt;i&gt;&lt;span style=&quot;&quot; lang=&quot;ES&quot;&gt;&lt;font style=&quot;font-size: 10px;&quot;&gt;&lt;/font&gt;&lt;/span&gt;&lt;/i&gt;&lt;/p&gt;" style="text;html=1;align=left;verticalAlign=top;whiteSpace=wrap;rounded=0;fontSize=9;" parent="q1FSfACkbBMbSRhOJW1q-13" vertex="1">
          <mxGeometry x="3114.75" y="2645" width="175.75" height="47" as="geometry" />
        </mxCell>
        <mxCell id="q1FSfACkbBMbSRhOJW1q-116" value="Queque&amp;nbsp;&lt;div&gt;&lt;b&gt;MQ AaaS&lt;/b&gt;&lt;/div&gt;&lt;div&gt;&lt;span style=&quot;background-color: transparent; color: light-dark(rgb(0, 0, 0), rgb(255, 255, 255));&quot;&gt;Recibe response de&lt;/span&gt;&lt;span style=&quot;background-color: transparent; color: light-dark(rgb(0, 0, 0), rgb(255, 255, 255));&quot;&gt;&amp;nbsp;&lt;/span&gt;&lt;span style=&quot;background-color: transparent; color: light-dark(rgb(0, 0, 0), rgb(255, 255, 255));&quot;&gt;consulta comisión de tarjeta de débito&lt;/span&gt;&lt;/div&gt;&lt;div&gt;&lt;span style=&quot;background-color: transparent; color: light-dark(rgb(0, 0, 0), rgb(255, 255, 255));&quot;&gt;[LMZ9]&lt;br&gt;&lt;/span&gt;&lt;/div&gt;" style="text;html=1;align=left;verticalAlign=top;whiteSpace=wrap;rounded=0;fontSize=9;fillColor=none;strokeColor=none;" parent="q1FSfACkbBMbSRhOJW1q-13" vertex="1">
          <mxGeometry x="931.5" y="2738" width="154.5" height="45" as="geometry" />
        </mxCell>
        <mxCell id="q1FSfACkbBMbSRhOJW1q-117" value="Altarir AaaS&lt;div&gt;&lt;b style=&quot;background-color: transparent; color: light-dark(rgb(0, 0, 0), rgb(255, 255, 255));&quot;&gt;Middleware&amp;nbsp;&lt;/b&gt;&lt;/div&gt;&lt;div&gt;&lt;div&gt;&lt;span style=&quot;background-color: transparent; color: light-dark(rgb(0, 0, 0), rgb(255, 255, 255));&quot;&gt;Recibe response de&lt;/span&gt;&lt;span style=&quot;background-color: transparent; color: light-dark(rgb(0, 0, 0), rgb(255, 255, 255));&quot;&gt;&amp;nbsp;&lt;/span&gt;&lt;span style=&quot;background-color: transparent; color: light-dark(rgb(0, 0, 0), rgb(255, 255, 255));&quot;&gt;consulta comisión de tarjeta de débito&lt;/span&gt;&lt;/div&gt;&lt;div&gt;&lt;span style=&quot;background-color: transparent; color: light-dark(rgb(0, 0, 0), rgb(255, 255, 255));&quot;&gt;[LMZ9]&lt;/span&gt;&lt;/div&gt;&lt;/div&gt;" style="text;html=1;align=left;verticalAlign=top;whiteSpace=wrap;rounded=0;fontSize=9;" parent="q1FSfACkbBMbSRhOJW1q-13" vertex="1">
          <mxGeometry x="450.75" y="2802" width="156.75" height="44" as="geometry" />
        </mxCell>
        <mxCell id="q1FSfACkbBMbSRhOJW1q-118" value="Queque&amp;nbsp;&lt;div&gt;&lt;b style=&quot;background-color: transparent; color: light-dark(rgb(0, 0, 0), rgb(255, 255, 255));&quot;&gt;MQ Canal&lt;/b&gt;&lt;/div&gt;&lt;div&gt;&lt;div&gt;&lt;span style=&quot;background-color: transparent; color: light-dark(rgb(0, 0, 0), rgb(255, 255, 255));&quot;&gt;Recibe response de&lt;/span&gt;&lt;span style=&quot;background-color: transparent; color: light-dark(rgb(0, 0, 0), rgb(255, 255, 255));&quot;&gt;&amp;nbsp;&lt;/span&gt;&lt;span style=&quot;background-color: transparent; color: light-dark(rgb(0, 0, 0), rgb(255, 255, 255));&quot;&gt;consulta comisión de tarjeta de débito&lt;/span&gt;&lt;/div&gt;&lt;div&gt;&lt;span style=&quot;background-color: transparent; color: light-dark(rgb(0, 0, 0), rgb(255, 255, 255));&quot;&gt;[LMZ9]&lt;/span&gt;&lt;/div&gt;&lt;/div&gt;" style="text;html=1;align=left;verticalAlign=top;whiteSpace=wrap;rounded=0;fontSize=9;fillColor=none;strokeColor=none;" parent="q1FSfACkbBMbSRhOJW1q-13" vertex="1">
          <mxGeometry x="690.5" y="2771" width="196.5" height="41" as="geometry" />
        </mxCell>
        <mxCell id="q1FSfACkbBMbSRhOJW1q-120" value="&lt;div&gt;&lt;b&gt;Cliente Santander&lt;/b&gt;&lt;div&gt;&lt;div&gt;Recibe aviso de la de consulta comisión de tarjeta de débito&lt;/div&gt;&lt;/div&gt;&lt;div&gt;[LMZ9]&lt;/div&gt;&lt;/div&gt;" style="text;html=1;align=left;verticalAlign=top;whiteSpace=wrap;rounded=0;fontSize=9;" parent="q1FSfACkbBMbSRhOJW1q-13" vertex="1">
          <mxGeometry x="212.5" y="2842.5" width="133" height="50" as="geometry" />
        </mxCell>
        <mxCell id="q1FSfACkbBMbSRhOJW1q-122" value="" style="endArrow=block;html=1;rounded=0;dashed=1;endFill=1;" parent="q1FSfACkbBMbSRhOJW1q-13" edge="1">
          <mxGeometry width="50" height="50" relative="1" as="geometry">
            <mxPoint x="441" y="3333" as="sourcePoint" />
            <mxPoint x="204" y="3333" as="targetPoint" />
          </mxGeometry>
        </mxCell>
        <mxCell id="q1FSfACkbBMbSRhOJW1q-124" value="" style="endArrow=block;html=1;rounded=0;dashed=1;endFill=1;exitX=0.504;exitY=0.651;exitDx=0;exitDy=0;exitPerimeter=0;entryX=0.507;entryY=0.647;entryDx=0;entryDy=0;entryPerimeter=0;" parent="q1FSfACkbBMbSRhOJW1q-13" edge="1">
          <mxGeometry width="50" height="50" relative="1" as="geometry">
            <mxPoint x="674.25" y="3301" as="sourcePoint" />
            <mxPoint x="440.75" y="3302" as="targetPoint" />
          </mxGeometry>
        </mxCell>
        <mxCell id="q1FSfACkbBMbSRhOJW1q-125" value="" style="endArrow=block;html=1;rounded=0;dashed=1;endFill=1;exitX=0.504;exitY=0.651;exitDx=0;exitDy=0;exitPerimeter=0;entryX=0.507;entryY=0.647;entryDx=0;entryDy=0;entryPerimeter=0;" parent="q1FSfACkbBMbSRhOJW1q-13" edge="1">
          <mxGeometry width="50" height="50" relative="1" as="geometry">
            <mxPoint x="913.1440000000002" y="3271.7709999999997" as="sourcePoint" />
            <mxPoint x="680.5" y="3273" as="targetPoint" />
          </mxGeometry>
        </mxCell>
        <mxCell id="q1FSfACkbBMbSRhOJW1q-126" value="" style="html=1;points=[[0,0,0,0,5],[0,1,0,0,-5],[1,0,0,0,5],[1,1,0,0,-5]];perimeter=orthogonalPerimeter;outlineConnect=0;targetShapes=umlLifeline;portConstraint=eastwest;newEdgeStyle={&quot;curved&quot;:0,&quot;rounded&quot;:0};whiteSpace=wrap;" parent="q1FSfACkbBMbSRhOJW1q-13" vertex="1">
          <mxGeometry x="907.5" y="3223" width="10" height="58" as="geometry" />
        </mxCell>
        <mxCell id="q1FSfACkbBMbSRhOJW1q-127" value="" style="html=1;points=[[0,0,0,0,5],[0,1,0,0,-5],[1,0,0,0,5],[1,1,0,0,-5]];perimeter=orthogonalPerimeter;outlineConnect=0;targetShapes=umlLifeline;portConstraint=eastwest;newEdgeStyle={&quot;curved&quot;:0,&quot;rounded&quot;:0};whiteSpace=wrap;" parent="q1FSfACkbBMbSRhOJW1q-13" vertex="1">
          <mxGeometry x="670.5" y="3255" width="10" height="58" as="geometry" />
        </mxCell>
        <mxCell id="q1FSfACkbBMbSRhOJW1q-128" value="&lt;div&gt;Queque&lt;div&gt;&lt;b&gt;MQ 390&lt;/b&gt;&lt;br&gt;&lt;div&gt;&lt;/div&gt;&lt;/div&gt;&lt;/div&gt;&lt;div&gt;&lt;div&gt;Recibe respuesta con&amp;nbsp;&lt;span style=&quot;background-color: transparent; color: light-dark(rgb(0, 0, 0), rgb(255, 255, 255));&quot;&gt;trama LMZ9&amp;nbsp;&lt;/span&gt;&lt;span style=&quot;background-color: transparent;&quot;&gt;de consulta comisión de tarjeta de débito con mensaje de Error&lt;/span&gt;&lt;/div&gt;&lt;div&gt;&lt;span style=&quot;background-color: transparent; color: light-dark(rgb(0, 0, 0), rgb(255, 255, 255));&quot;&gt;[LMZ9]&lt;/span&gt;&lt;/div&gt;&lt;/div&gt;" style="text;html=1;align=left;verticalAlign=top;whiteSpace=wrap;rounded=0;fontSize=9;" parent="q1FSfACkbBMbSRhOJW1q-13" vertex="1">
          <mxGeometry x="1168" y="3147" width="386" height="53" as="geometry" />
        </mxCell>
        <mxCell id="q1FSfACkbBMbSRhOJW1q-129" value="" style="html=1;points=[[0,0,0,0,5],[0,1,0,0,-5],[1,0,0,0,5],[1,1,0,0,-5]];perimeter=orthogonalPerimeter;outlineConnect=0;targetShapes=umlLifeline;portConstraint=eastwest;newEdgeStyle={&quot;curved&quot;:0,&quot;rounded&quot;:0};whiteSpace=wrap;" parent="q1FSfACkbBMbSRhOJW1q-13" vertex="1">
          <mxGeometry x="430.5" y="3287" width="10" height="58" as="geometry" />
        </mxCell>
        <mxCell id="q1FSfACkbBMbSRhOJW1q-130" value="Componente&lt;div&gt;&lt;b&gt;Launcher PLARD&lt;/b&gt;&lt;br&gt;&lt;div&gt;&lt;span style=&quot;background-color: transparent; color: light-dark(rgb(0, 0, 0), rgb(255, 255, 255));&quot;&gt;Recibe respuesta con&amp;nbsp;&lt;/span&gt;&lt;span style=&quot;background-color: transparent; color: light-dark(rgb(0, 0, 0), rgb(255, 255, 255));&quot;&gt;trama LMZ9&amp;nbsp;&lt;/span&gt;&lt;span style=&quot;background-color: transparent; color: light-dark(rgb(0, 0, 0), rgb(255, 255, 255));&quot;&gt;de consulta comisión de tarjeta de débito con mensaje de Error&lt;/span&gt;&lt;/div&gt;&lt;div&gt;&lt;span style=&quot;background-color: transparent; color: light-dark(rgb(0, 0, 0), rgb(255, 255, 255));&quot;&gt;[LMZ9]&lt;/span&gt;&lt;/div&gt;&lt;/div&gt;" style="text;html=1;align=left;verticalAlign=top;whiteSpace=wrap;rounded=0;fontSize=9;" parent="q1FSfACkbBMbSRhOJW1q-13" vertex="1">
          <mxGeometry x="929.5" y="3178" width="218.5" height="45" as="geometry" />
        </mxCell>
        <mxCell id="q1FSfACkbBMbSRhOJW1q-131" value="Middleware&amp;nbsp;&lt;div&gt;&lt;span style=&quot;background-color: transparent;&quot;&gt;&lt;b&gt;Altarir AaaS&amp;nbsp;&lt;/b&gt;&lt;/span&gt;&lt;/div&gt;&lt;div&gt;&lt;div&gt;&lt;span style=&quot;background-color: transparent; color: light-dark(rgb(0, 0, 0), rgb(255, 255, 255));&quot;&gt;Recibe respuesta con&amp;nbsp;&lt;/span&gt;&lt;span style=&quot;background-color: transparent; color: light-dark(rgb(0, 0, 0), rgb(255, 255, 255));&quot;&gt;trama LMZ9&amp;nbsp;&lt;/span&gt;&lt;span style=&quot;background-color: transparent; color: light-dark(rgb(0, 0, 0), rgb(255, 255, 255));&quot;&gt;de consulta comisión de tarjeta de débito con mensaje de Error&lt;/span&gt;&lt;/div&gt;&lt;div&gt;&lt;span style=&quot;background-color: transparent; color: light-dark(rgb(0, 0, 0), rgb(255, 255, 255));&quot;&gt;[LMZ9]&lt;/span&gt;&lt;/div&gt;&lt;/div&gt;" style="text;html=1;align=left;verticalAlign=top;whiteSpace=wrap;rounded=0;fontSize=9;" parent="q1FSfACkbBMbSRhOJW1q-13" vertex="1">
          <mxGeometry x="449.75" y="3239" width="206.25" height="44" as="geometry" />
        </mxCell>
        <mxCell id="q1FSfACkbBMbSRhOJW1q-132" value="Queque&amp;nbsp;&lt;div&gt;&lt;b style=&quot;background-color: transparent; color: light-dark(rgb(0, 0, 0), rgb(255, 255, 255));&quot;&gt;MQ Canal&lt;/b&gt;&lt;/div&gt;&lt;div&gt;&lt;div&gt;&lt;span style=&quot;background-color: transparent; color: light-dark(rgb(0, 0, 0), rgb(255, 255, 255));&quot;&gt;Recibe respuesta con&amp;nbsp;&lt;/span&gt;&lt;span style=&quot;background-color: transparent; color: light-dark(rgb(0, 0, 0), rgb(255, 255, 255));&quot;&gt;trama LMZ9&amp;nbsp;&lt;/span&gt;&lt;span style=&quot;background-color: transparent; color: light-dark(rgb(0, 0, 0), rgb(255, 255, 255));&quot;&gt;de consulta comisión de tarjeta de débito con mensaje de Error&lt;/span&gt;&lt;/div&gt;&lt;div&gt;&lt;span style=&quot;background-color: transparent; color: light-dark(rgb(0, 0, 0), rgb(255, 255, 255));&quot;&gt;[LMZ9]&lt;/span&gt;&lt;/div&gt;&lt;/div&gt;" style="text;html=1;align=left;verticalAlign=top;whiteSpace=wrap;rounded=0;fontSize=9;" parent="q1FSfACkbBMbSRhOJW1q-13" vertex="1">
          <mxGeometry x="689.5" y="3210" width="204.5" height="41" as="geometry" />
        </mxCell>
        <mxCell id="q1FSfACkbBMbSRhOJW1q-133" value="&lt;b&gt;Cliente Santander&lt;/b&gt;&lt;div&gt;&lt;div&gt;Recibe aviso de la consulta comisión de tarjeta de débito no exitosa del canal Santander Web&lt;/div&gt;&lt;div&gt;[LMZ9]&lt;/div&gt;&lt;/div&gt;" style="text;html=1;align=left;verticalAlign=top;whiteSpace=wrap;rounded=0;fontSize=9;" parent="q1FSfACkbBMbSRhOJW1q-13" vertex="1">
          <mxGeometry x="212.5" y="3279.5" width="175.5" height="50" as="geometry" />
        </mxCell>
        <mxCell id="q1FSfACkbBMbSRhOJW1q-134" value="&lt;div style=&quot;&quot;&gt;Altair 390&lt;div&gt;&lt;b style=&quot;background-color: transparent; color: light-dark(rgb(0, 0, 0), rgb(255, 255, 255));&quot;&gt;PAMPA&lt;/b&gt;&lt;/div&gt;&lt;div&gt;Realiza ejecución&amp;nbsp;&lt;span style=&quot;background-color: transparent; color: light-dark(rgb(0, 0, 0), rgb(255, 255, 255));&quot;&gt;no exitosa&amp;nbsp;&lt;/span&gt;&lt;span style=&quot;background-color: transparent; color: light-dark(rgb(0, 0, 0), rgb(255, 255, 255));&quot;&gt;de la consulta comisión de la tarjeta de débito&lt;/span&gt;&lt;/div&gt;&lt;div&gt;&lt;br&gt;&lt;/div&gt;&lt;div&gt;Response 4XX&lt;/div&gt;&lt;div&gt;[LMZ9]&lt;/div&gt;&lt;/div&gt;&lt;p style=&quot;margin-left: 20.6pt; text-indent: -0.25in; font-size: 10px;&quot; class=&quot;TableText&quot;&gt;&lt;i&gt;&lt;span style=&quot;&quot; lang=&quot;ES&quot;&gt;&lt;font style=&quot;font-size: 10px;&quot;&gt;&lt;/font&gt;&lt;/span&gt;&lt;/i&gt;&lt;/p&gt;" style="text;html=1;align=left;verticalAlign=top;whiteSpace=wrap;rounded=0;fontSize=9;" parent="q1FSfACkbBMbSRhOJW1q-13" vertex="1">
          <mxGeometry x="3114.75" y="3053" width="175.75" height="47" as="geometry" />
        </mxCell>
        <mxCell id="q1FSfACkbBMbSRhOJW1q-135" value="" style="line;strokeWidth=2;dashed=1;labelPosition=center;verticalLabelPosition=bottom;align=left;verticalAlign=top;spacingLeft=20;spacingTop=15;html=1;fontColor=none;labelBorderColor=none;noLabel=1;whiteSpace=wrap;strokeColor=#0000CC;" parent="q1FSfACkbBMbSRhOJW1q-13" vertex="1">
          <mxGeometry x="306" y="2508" width="3010" height="10" as="geometry" />
        </mxCell>
        <mxCell id="q1FSfACkbBMbSRhOJW1q-136" value="" style="html=1;align=left;spacingLeft=2;endArrow=block;rounded=0;edgeStyle=orthogonalEdgeStyle;curved=0;rounded=0;fillColor=#f8cecc;strokeColor=#000000;" parent="q1FSfACkbBMbSRhOJW1q-13" edge="1">
          <mxGeometry x="-0.2922" y="20" relative="1" as="geometry">
            <mxPoint x="2600.38" y="1905.0200000000004" as="sourcePoint" />
            <Array as="points">
              <mxPoint x="2630.38" y="1905.08" />
              <mxPoint x="2630.38" y="1935.08" />
            </Array>
            <mxPoint x="2600.38" y="1935.08" as="targetPoint" />
            <mxPoint as="offset" />
          </mxGeometry>
        </mxCell>
        <mxCell id="q1FSfACkbBMbSRhOJW1q-137" value="" style="html=1;points=[[0,0,0,0,5],[0,1,0,0,-5],[1,0,0,0,5],[1,1,0,0,-5]];perimeter=orthogonalPerimeter;outlineConnect=0;targetShapes=umlLifeline;portConstraint=eastwest;newEdgeStyle={&quot;curved&quot;:0,&quot;rounded&quot;:0};whiteSpace=wrap;" parent="q1FSfACkbBMbSRhOJW1q-13" vertex="1">
          <mxGeometry x="2590" y="1895" width="10" height="63" as="geometry" />
        </mxCell>
        <mxCell id="q1FSfACkbBMbSRhOJW1q-138" value="" style="endArrow=block;html=1;rounded=0;dashed=1;endFill=1;" parent="q1FSfACkbBMbSRhOJW1q-13" edge="1">
          <mxGeometry width="50" height="50" relative="1" as="geometry">
            <mxPoint x="678.75" y="2393" as="sourcePoint" />
            <mxPoint x="441.75" y="2393" as="targetPoint" />
          </mxGeometry>
        </mxCell>
        <mxCell id="q1FSfACkbBMbSRhOJW1q-139" value="" style="endArrow=block;html=1;rounded=0;dashed=1;endFill=1;" parent="q1FSfACkbBMbSRhOJW1q-13" edge="1">
          <mxGeometry width="50" height="50" relative="1" as="geometry">
            <mxPoint x="441.25" y="2427" as="sourcePoint" />
            <mxPoint x="204.25" y="2427" as="targetPoint" />
          </mxGeometry>
        </mxCell>
        <mxCell id="q1FSfACkbBMbSRhOJW1q-140" value="" style="html=1;points=[[0,0,0,0,5],[0,1,0,0,-5],[1,0,0,0,5],[1,1,0,0,-5]];perimeter=orthogonalPerimeter;outlineConnect=0;targetShapes=umlLifeline;portConstraint=eastwest;newEdgeStyle={&quot;curved&quot;:0,&quot;rounded&quot;:0};whiteSpace=wrap;" parent="q1FSfACkbBMbSRhOJW1q-13" vertex="1">
          <mxGeometry x="672.75" y="2344" width="10" height="58" as="geometry" />
        </mxCell>
        <mxCell id="q1FSfACkbBMbSRhOJW1q-142" value="" style="endArrow=block;html=1;rounded=0;dashed=1;endFill=1;exitX=0.504;exitY=0.651;exitDx=0;exitDy=0;exitPerimeter=0;entryX=0.507;entryY=0.647;entryDx=0;entryDy=0;entryPerimeter=0;" parent="q1FSfACkbBMbSRhOJW1q-13" edge="1">
          <mxGeometry width="50" height="50" relative="1" as="geometry">
            <mxPoint x="913.3940000000002" y="2323.7709999999997" as="sourcePoint" />
            <mxPoint x="680.75" y="2325" as="targetPoint" />
          </mxGeometry>
        </mxCell>
        <mxCell id="q1FSfACkbBMbSRhOJW1q-143" value="" style="html=1;points=[[0,0,0,0,5],[0,1,0,0,-5],[1,0,0,0,5],[1,1,0,0,-5]];perimeter=orthogonalPerimeter;outlineConnect=0;targetShapes=umlLifeline;portConstraint=eastwest;newEdgeStyle={&quot;curved&quot;:0,&quot;rounded&quot;:0};whiteSpace=wrap;" parent="q1FSfACkbBMbSRhOJW1q-13" vertex="1">
          <mxGeometry x="907.75" y="2275" width="10" height="58" as="geometry" />
        </mxCell>
        <mxCell id="q1FSfACkbBMbSRhOJW1q-144" value="" style="html=1;points=[[0,0,0,0,5],[0,1,0,0,-5],[1,0,0,0,5],[1,1,0,0,-5]];perimeter=orthogonalPerimeter;outlineConnect=0;targetShapes=umlLifeline;portConstraint=eastwest;newEdgeStyle={&quot;curved&quot;:0,&quot;rounded&quot;:0};whiteSpace=wrap;" parent="q1FSfACkbBMbSRhOJW1q-13" vertex="1">
          <mxGeometry x="670.75" y="2307" width="10" height="58" as="geometry" />
        </mxCell>
        <mxCell id="q1FSfACkbBMbSRhOJW1q-145" value="" style="html=1;points=[[0,0,0,0,5],[0,1,0,0,-5],[1,0,0,0,5],[1,1,0,0,-5]];perimeter=orthogonalPerimeter;outlineConnect=0;targetShapes=umlLifeline;portConstraint=eastwest;newEdgeStyle={&quot;curved&quot;:0,&quot;rounded&quot;:0};whiteSpace=wrap;" parent="q1FSfACkbBMbSRhOJW1q-13" vertex="1">
          <mxGeometry x="430.75" y="2382" width="10" height="58" as="geometry" />
        </mxCell>
        <mxCell id="q1FSfACkbBMbSRhOJW1q-146" value="Componente&lt;div&gt;&lt;b&gt;Launcher PLARD&lt;/b&gt;&lt;br&gt;&lt;div&gt;&lt;span style=&quot;background-color: transparent; color: light-dark(rgb(0, 0, 0), rgb(255, 255, 255));&quot;&gt;Recibe respuesta con&amp;nbsp;&lt;/span&gt;&lt;span style=&quot;background-color: transparent; color: light-dark(rgb(0, 0, 0), rgb(255, 255, 255));&quot;&gt;trama LMZ9&amp;nbsp;&lt;/span&gt;&lt;span style=&quot;background-color: transparent; color: light-dark(rgb(0, 0, 0), rgb(255, 255, 255));&quot;&gt;de consulta comisión de tarjeta de débito con mensaje de Error&lt;/span&gt;&lt;/div&gt;&lt;div&gt;&lt;span style=&quot;background-color: transparent; color: light-dark(rgb(0, 0, 0), rgb(255, 255, 255));&quot;&gt;[LMZ9]&lt;/span&gt;&lt;/div&gt;&lt;/div&gt;" style="text;html=1;align=left;verticalAlign=top;whiteSpace=wrap;rounded=0;fontSize=9;fillColor=none;strokeColor=none;" parent="q1FSfACkbBMbSRhOJW1q-13" vertex="1">
          <mxGeometry x="1168.5" y="2189" width="208.25" height="45" as="geometry" />
        </mxCell>
        <mxCell id="q1FSfACkbBMbSRhOJW1q-147" value="Middleware&lt;div&gt;&lt;b&gt;Altarir AaaS&amp;nbsp;&lt;/b&gt;&lt;br&gt;&lt;div&gt;&lt;/div&gt;&lt;/div&gt;&lt;div&gt;&lt;div&gt;&lt;span style=&quot;background-color: transparent; color: light-dark(rgb(0, 0, 0), rgb(255, 255, 255));&quot;&gt;Recibe respuesta con&amp;nbsp;&lt;/span&gt;&lt;span style=&quot;background-color: transparent; color: light-dark(rgb(0, 0, 0), rgb(255, 255, 255));&quot;&gt;trama LMZ9&amp;nbsp;&lt;/span&gt;&lt;span style=&quot;background-color: transparent; color: light-dark(rgb(0, 0, 0), rgb(255, 255, 255));&quot;&gt;de consulta comisión de tarjeta de débito con mensaje de Error&lt;/span&gt;&lt;/div&gt;&lt;div&gt;&lt;span style=&quot;background-color: transparent; color: light-dark(rgb(0, 0, 0), rgb(255, 255, 255));&quot;&gt;[LMZ9]&lt;/span&gt;&lt;/div&gt;&lt;/div&gt;" style="text;html=1;align=left;verticalAlign=top;whiteSpace=wrap;rounded=0;fontSize=9;" parent="q1FSfACkbBMbSRhOJW1q-13" vertex="1">
          <mxGeometry x="691" y="2261" width="206.5" height="44" as="geometry" />
        </mxCell>
        <mxCell id="q1FSfACkbBMbSRhOJW1q-148" value="&lt;div&gt;&lt;div&gt;Queque&amp;nbsp;&lt;div&gt;&lt;b&gt;MQ AaaS&lt;/b&gt;&lt;div&gt;&lt;/div&gt;&lt;/div&gt;&lt;span style=&quot;background-color: transparent; color: light-dark(rgb(0, 0, 0), rgb(255, 255, 255));&quot;&gt;Recibe respuesta con&amp;nbsp;&lt;/span&gt;&lt;span style=&quot;background-color: transparent; color: light-dark(rgb(0, 0, 0), rgb(255, 255, 255));&quot;&gt;trama LMZ9&amp;nbsp;&lt;/span&gt;&lt;span style=&quot;background-color: transparent; color: light-dark(rgb(0, 0, 0), rgb(255, 255, 255));&quot;&gt;de consulta comisión de tarjeta de débito con mensaje de Error&lt;/span&gt;&lt;/div&gt;&lt;div&gt;&lt;span style=&quot;background-color: transparent; color: light-dark(rgb(0, 0, 0), rgb(255, 255, 255));&quot;&gt;[LMZ9]&lt;/span&gt;&lt;/div&gt;&lt;/div&gt;" style="text;html=1;align=left;verticalAlign=top;whiteSpace=wrap;rounded=0;fontSize=9;fillColor=none;strokeColor=none;" parent="q1FSfACkbBMbSRhOJW1q-13" vertex="1">
          <mxGeometry x="930.5" y="2226" width="204.5" height="41" as="geometry" />
        </mxCell>
        <mxCell id="q1FSfACkbBMbSRhOJW1q-150" value="&lt;b&gt;Cliente Santander&lt;/b&gt;&lt;div&gt;Recibe aviso de la consulta comisión de tarjeta de débito no exitosa del canal Santander Web&lt;/div&gt;&lt;div&gt;[LMZ9]&lt;/div&gt;" style="text;html=1;align=left;verticalAlign=top;whiteSpace=wrap;rounded=0;fontSize=9;" parent="q1FSfACkbBMbSRhOJW1q-13" vertex="1">
          <mxGeometry x="216.75" y="2372.5" width="185.25" height="50" as="geometry" />
        </mxCell>
        <mxCell id="q1FSfACkbBMbSRhOJW1q-151" value="Microservicio&lt;br&gt;&lt;b style=&quot;background-color: transparent; color: light-dark(rgb(0, 0, 0), rgb(255, 255, 255));&quot;&gt;activate-card&lt;/b&gt;&lt;div&gt;Realiza ejecución de consulta comisión de la tarjeta de débito no exitosa&lt;div style=&quot;&quot;&gt;&lt;br&gt;&lt;/div&gt;&lt;div style=&quot;&quot;&gt;Response 4XX&lt;/div&gt;&lt;div style=&quot;&quot;&gt;[LMZ9]&lt;/div&gt;&lt;p style=&quot;margin-left: 20.6pt; text-indent: -0.25in; font-size: 10px;&quot; class=&quot;TableText&quot;&gt;&lt;i&gt;&lt;span style=&quot;&quot; lang=&quot;ES&quot;&gt;&lt;font style=&quot;font-size: 10px;&quot;&gt;&lt;/font&gt;&lt;/span&gt;&lt;/i&gt;&lt;/p&gt;&lt;/div&gt;" style="text;html=1;align=left;verticalAlign=top;whiteSpace=wrap;rounded=0;fontSize=9;" parent="q1FSfACkbBMbSRhOJW1q-13" vertex="1">
          <mxGeometry x="2633.25" y="1852" width="175.75" height="65" as="geometry" />
        </mxCell>
        <mxCell id="q1FSfACkbBMbSRhOJW1q-152" value="Microservicio&lt;div&gt;&lt;div&gt;&lt;span style=&quot;background-color: transparent;&quot;&gt;&lt;b&gt;activate-card&lt;/b&gt;&lt;/span&gt;&lt;/div&gt;&lt;div&gt;Genera trama de bitácora&amp;nbsp;&lt;span style=&quot;background-color: transparent; color: light-dark(rgb(0, 0, 0), rgb(255, 255, 255));&quot;&gt;formato PS7&lt;/span&gt;&lt;span style=&quot;background-color: transparent; color: light-dark(rgb(0, 0, 0), rgb(255, 255, 255));&quot;&gt;&amp;nbsp;&lt;/span&gt;&lt;span style=&quot;background-color: transparent;&quot;&gt;de consulta comisión de tarjeta de débito&amp;nbsp;&lt;/span&gt;&lt;span style=&quot;background-color: transparent; color: light-dark(rgb(0, 0, 0), rgb(255, 255, 255));&quot;&gt;con mensaje de Error&lt;/span&gt;&lt;/div&gt;&lt;/div&gt;&lt;div&gt;[LMZ9]&lt;/div&gt;" style="text;html=1;align=left;verticalAlign=top;whiteSpace=wrap;rounded=0;fontSize=9;" parent="q1FSfACkbBMbSRhOJW1q-13" vertex="1">
          <mxGeometry x="2154" y="1966" width="162" height="59" as="geometry" />
        </mxCell>
        <mxCell id="q1FSfACkbBMbSRhOJW1q-153" value="" style="html=1;align=left;spacingLeft=2;endArrow=block;rounded=0;edgeStyle=orthogonalEdgeStyle;curved=0;rounded=0;" parent="q1FSfACkbBMbSRhOJW1q-13" edge="1">
          <mxGeometry x="-0.2922" y="20" relative="1" as="geometry">
            <mxPoint x="2121.25" y="2006" as="sourcePoint" />
            <Array as="points">
              <mxPoint x="2151.25" y="2006.06" />
              <mxPoint x="2151.25" y="2036.06" />
            </Array>
            <mxPoint x="2121.25" y="2036.06" as="targetPoint" />
            <mxPoint as="offset" />
          </mxGeometry>
        </mxCell>
        <mxCell id="q1FSfACkbBMbSRhOJW1q-154" value="Microservicio&lt;div&gt;&lt;div&gt;&lt;span style=&quot;background-color: transparent;&quot;&gt;&lt;b&gt;activate-card&lt;/b&gt;&lt;/span&gt;&lt;/div&gt;&lt;div&gt;Publica trama de pista / bitácora de auditoría de consulta comisión de tarjeta de débito&amp;nbsp;&lt;span style=&quot;background-color: transparent; color: light-dark(rgb(0, 0, 0), rgb(255, 255, 255));&quot;&gt;con mensaje de Error&amp;nbsp;&lt;/span&gt;&lt;span style=&quot;background-color: transparent; color: light-dark(rgb(0, 0, 0), rgb(255, 255, 255));&quot;&gt;en Tópico de KAFKA&lt;/span&gt;&lt;/div&gt;&lt;/div&gt;" style="text;html=1;align=left;verticalAlign=top;whiteSpace=wrap;rounded=0;fontSize=9;" parent="q1FSfACkbBMbSRhOJW1q-13" vertex="1">
          <mxGeometry x="2129.5" y="2069" width="196.5" height="59" as="geometry" />
        </mxCell>
        <mxCell id="q1FSfACkbBMbSRhOJW1q-155" value="" style="html=1;points=[[0,0,0,0,5],[0,1,0,0,-5],[1,0,0,0,5],[1,1,0,0,-5]];perimeter=orthogonalPerimeter;outlineConnect=0;targetShapes=umlLifeline;portConstraint=eastwest;newEdgeStyle={&quot;curved&quot;:0,&quot;rounded&quot;:0};" parent="q1FSfACkbBMbSRhOJW1q-13" vertex="1">
          <mxGeometry x="2350.75" y="2119" width="10" height="44" as="geometry" />
        </mxCell>
        <mxCell id="q1FSfACkbBMbSRhOJW1q-156" value="" style="html=1;verticalAlign=bottom;labelBackgroundColor=none;endArrow=block;endFill=1;endSize=6;align=left;rounded=0;" parent="q1FSfACkbBMbSRhOJW1q-13" edge="1">
          <mxGeometry x="-1" relative="1" as="geometry">
            <mxPoint x="2121" y="2132" as="sourcePoint" />
            <mxPoint x="2349" y="2132" as="targetPoint" />
            <mxPoint as="offset" />
          </mxGeometry>
        </mxCell>
        <mxCell id="q1FSfACkbBMbSRhOJW1q-157" value="Microservicio&lt;br&gt;&lt;div&gt;&lt;font&gt;&lt;b&gt;activate-card&lt;/b&gt;&lt;br&gt;&lt;/font&gt;&lt;div&gt;Devuelve respuesta no exitosa a la ejecución de la API PLARD&lt;/div&gt;&lt;div&gt;[LMZ9]&lt;/div&gt;&lt;/div&gt;" style="text;html=1;align=left;verticalAlign=top;whiteSpace=wrap;rounded=0;fontSize=9;" parent="q1FSfACkbBMbSRhOJW1q-13" vertex="1">
          <mxGeometry x="2128.5" y="1883" width="175.5" height="60" as="geometry" />
        </mxCell>
        <mxCell id="q1FSfACkbBMbSRhOJW1q-158" value="alt Capa" style="shape=umlFrame;whiteSpace=wrap;html=1;pointerEvents=0;width=89;height=30;" parent="q1FSfACkbBMbSRhOJW1q-13" vertex="1">
          <mxGeometry x="326" y="1771" width="2470" height="691" as="geometry" />
        </mxCell>
        <mxCell id="q1FSfACkbBMbSRhOJW1q-159" value="&lt;font style=&quot;font-size: 12px;&quot;&gt;[Response ==&amp;nbsp;&lt;span style=&quot;text-wrap-mode: nowrap;&quot;&gt;@2&lt;/span&gt;]&lt;/font&gt;" style="text;html=1;rotation=0;whiteSpace=wrap;" parent="q1FSfACkbBMbSRhOJW1q-13" vertex="1">
          <mxGeometry x="340" y="1816" width="128" height="23" as="geometry" />
        </mxCell>
        <mxCell id="q1FSfACkbBMbSRhOJW1q-160" value="&lt;div&gt;Microservicio&lt;/div&gt;&lt;div&gt;&lt;span style=&quot;background-color: transparent;&quot;&gt;&lt;b&gt;activate-card&lt;/b&gt;&lt;/span&gt;&lt;/div&gt;&lt;div&gt;Deposita trama LMZ9 de&amp;nbsp;&lt;span style=&quot;background-color: transparent;&quot;&gt;de consulta comisión de tarjeta de débito&lt;/span&gt;&lt;span style=&quot;background-color: transparent; color: light-dark(rgb(0, 0, 0), rgb(255, 255, 255));&quot;&gt;&amp;nbsp;&lt;/span&gt;&lt;span style=&quot;background-color: transparent; color: light-dark(rgb(0, 0, 0), rgb(255, 255, 255));&quot;&gt;con mensaje de Error&amp;nbsp;&lt;/span&gt;&lt;span style=&quot;background-color: transparent; color: light-dark(rgb(0, 0, 0), rgb(255, 255, 255));&quot;&gt;en Stream de Redis&lt;/span&gt;&lt;/div&gt;&lt;div&gt;[LMZ9]&lt;b&gt;&lt;/b&gt;&lt;/div&gt;" style="text;html=1;align=left;verticalAlign=top;whiteSpace=wrap;rounded=0;fontSize=9;" parent="q1FSfACkbBMbSRhOJW1q-13" vertex="1">
          <mxGeometry x="1885" y="2146" width="218.25" height="65" as="geometry" />
        </mxCell>
        <mxCell id="q1FSfACkbBMbSRhOJW1q-161" value="" style="html=1;verticalAlign=bottom;labelBackgroundColor=none;endArrow=none;endFill=0;endSize=6;align=left;rounded=0;startArrow=block;startFill=1;dashed=1;" parent="q1FSfACkbBMbSRhOJW1q-13" edge="1">
          <mxGeometry x="-1" relative="1" as="geometry">
            <mxPoint x="1878" y="2213.33" as="sourcePoint" />
            <mxPoint x="2105" y="2213.33" as="targetPoint" />
            <mxPoint as="offset" />
            <Array as="points">
              <mxPoint x="2078" y="2213.33" />
            </Array>
          </mxGeometry>
        </mxCell>
        <mxCell id="q1FSfACkbBMbSRhOJW1q-162" value="" style="html=1;points=[[0,0,0,0,5],[0,1,0,0,-5],[1,0,0,0,5],[1,1,0,0,-5]];perimeter=orthogonalPerimeter;outlineConnect=0;targetShapes=umlLifeline;portConstraint=eastwest;newEdgeStyle={&quot;curved&quot;:0,&quot;rounded&quot;:0};whiteSpace=wrap;shadow=0;" parent="q1FSfACkbBMbSRhOJW1q-13" vertex="1">
          <mxGeometry x="2110" y="1938" width="10" height="281" as="geometry" />
        </mxCell>
        <mxCell id="q1FSfACkbBMbSRhOJW1q-163" value="&lt;div&gt;Componente&lt;br&gt;&lt;b style=&quot;background-color: transparent; color: light-dark(rgb(0, 0, 0), rgb(255, 255, 255));&quot;&gt;Launcher PLARD&lt;/b&gt;&lt;/div&gt;&lt;div&gt;Realiza solicitud de ejecución de la&lt;span style=&quot;background-color: transparent; color: light-dark(rgb(0, 0, 0), rgb(255, 255, 255));&quot;&gt;&amp;nbsp;consulta comisión de tarjeta de débito&lt;/span&gt;&lt;/div&gt;&lt;div&gt;[LMZ9]&lt;br&gt;&lt;/div&gt;" style="text;html=1;align=left;verticalAlign=top;whiteSpace=wrap;rounded=0;fontSize=9;" parent="q1FSfACkbBMbSRhOJW1q-13" vertex="1">
          <mxGeometry x="1163.75" y="2577" width="201" height="60" as="geometry" />
        </mxCell>
        <mxCell id="q1FSfACkbBMbSRhOJW1q-164" value="Queque&lt;div&gt;&lt;b&gt;MQ 390&lt;/b&gt;&lt;br&gt;&lt;div&gt;&lt;div&gt;Solicita ejecución de la&amp;nbsp;&lt;span style=&quot;background-color: transparent;&quot;&gt;consulta comisión de tarjeta de débito&lt;/span&gt;&lt;/div&gt;&lt;div&gt;[LMZ9]&lt;/div&gt;&lt;/div&gt;&lt;/div&gt;" style="text;html=1;align=left;verticalAlign=top;whiteSpace=wrap;rounded=0;fontSize=9;" parent="q1FSfACkbBMbSRhOJW1q-13" vertex="1">
          <mxGeometry x="2845" y="2599" width="161" height="49" as="geometry" />
        </mxCell>
        <mxCell id="q1FSfACkbBMbSRhOJW1q-165" value="&lt;div&gt;&lt;div&gt;Queue&amp;nbsp;&lt;/div&gt;&lt;div&gt;&lt;b&gt;MQ 390&lt;/b&gt;&lt;/div&gt;&lt;span style=&quot;background-color: transparent;&quot;&gt;Recibe response de ejecución &lt;/span&gt;&lt;span style=&quot;background-color: transparent; color: light-dark(rgb(0, 0, 0), rgb(255, 255, 255));&quot;&gt;de la&amp;nbsp;&lt;/span&gt;&lt;span style=&quot;background-color: transparent; color: light-dark(rgb(0, 0, 0), rgb(255, 255, 255));&quot;&gt;consulta comisión de tarjeta de débito&lt;/span&gt;&lt;/div&gt;&lt;div&gt;[LMZ9]&lt;br&gt;&lt;/div&gt;" style="text;html=1;align=left;verticalAlign=top;whiteSpace=wrap;rounded=0;fontSize=9;" parent="q1FSfACkbBMbSRhOJW1q-13" vertex="1">
          <mxGeometry x="2849.75" y="2671" width="146.25" height="60" as="geometry" />
        </mxCell>
        <mxCell id="q1FSfACkbBMbSRhOJW1q-166" value="&lt;div&gt;Componente&lt;br&gt;&lt;b style=&quot;color: light-dark(rgb(0, 0, 0), rgb(255, 255, 255)); background-color: transparent;&quot;&gt;Launcher PLARD&lt;/b&gt;&lt;div&gt;&lt;/div&gt;&lt;/div&gt;&lt;div&gt;&lt;div&gt;&lt;span style=&quot;background-color: transparent; color: light-dark(rgb(0, 0, 0), rgb(255, 255, 255));&quot;&gt;Recibe response de&lt;/span&gt;&lt;span style=&quot;background-color: transparent; color: light-dark(rgb(0, 0, 0), rgb(255, 255, 255));&quot;&gt;&amp;nbsp;&lt;/span&gt;&lt;span style=&quot;background-color: transparent;&quot;&gt;consulta comisión de tarjeta de débito&lt;/span&gt;&lt;/div&gt;&lt;div&gt;&lt;span style=&quot;background-color: transparent; color: light-dark(rgb(0, 0, 0), rgb(255, 255, 255));&quot;&gt;[LMZ9]&lt;/span&gt;&lt;/div&gt;&lt;/div&gt;" style="text;html=1;align=left;verticalAlign=top;whiteSpace=wrap;rounded=0;fontSize=9;" parent="q1FSfACkbBMbSRhOJW1q-13" vertex="1">
          <mxGeometry x="1165.75" y="2709" width="250.25" height="53" as="geometry" />
        </mxCell>
        <mxCell id="q1FSfACkbBMbSRhOJW1q-167" value="Componente&lt;div&gt;&lt;b&gt;Card Place Locator&amp;nbsp;&lt;/b&gt;&lt;br&gt;&lt;div&gt;Devuelve respuesta del numero de tarjeta al Launcher&lt;/div&gt;&lt;div&gt;[LMZ9]&lt;/div&gt;&lt;/div&gt;" style="text;html=1;align=left;verticalAlign=top;whiteSpace=wrap;rounded=0;fontSize=9;" parent="q1FSfACkbBMbSRhOJW1q-13" vertex="1">
          <mxGeometry x="1166.25" y="519.15" width="181.5" height="63" as="geometry" />
        </mxCell>
        <mxCell id="q1FSfACkbBMbSRhOJW1q-168" value="Componente&lt;div&gt;&lt;b&gt;Launcher PLARD&lt;/b&gt;&lt;br&gt;&lt;div&gt;&lt;font style=&quot;color: rgb(0, 0, 0);&quot;&gt;Deposita solicitud para&amp;nbsp;&lt;span style=&quot;background-color: transparent;&quot;&gt;consulta comisión de tarjeta de débito&amp;nbsp;en Stream de Redis&lt;/span&gt;&lt;/font&gt;&lt;/div&gt;&lt;div&gt;&lt;span style=&quot;background-color: transparent; color: light-dark(rgb(0, 0, 0), rgb(255, 255, 255));&quot;&gt;[LMZ9]&lt;/span&gt;&lt;/div&gt;&lt;/div&gt;" style="text;html=1;align=left;verticalAlign=top;whiteSpace=wrap;rounded=0;fontSize=9;" parent="q1FSfACkbBMbSRhOJW1q-13" vertex="1">
          <mxGeometry x="1165.8700000000001" y="726" width="182.25" height="49" as="geometry" />
        </mxCell>
        <mxCell id="q1FSfACkbBMbSRhOJW1q-169" value="&lt;font style=&quot;color: rgb(0, 0, 0);&quot;&gt;Componente&lt;/font&gt;&lt;div&gt;&lt;font style=&quot;color: rgb(0, 0, 0);&quot;&gt;&lt;b&gt;&lt;/b&gt;&lt;span style=&quot;background-color: transparent;&quot;&gt;&lt;b&gt;ms-starter&lt;/b&gt;&lt;/span&gt;&lt;b style=&quot;background-color: transparent;&quot;&gt;&amp;nbsp;&lt;/b&gt;&lt;/font&gt;&lt;/div&gt;&lt;div&gt;&lt;div&gt;Toma del Stream de Redis la solicitud y obtiene información de la transacción&lt;/div&gt;&lt;div&gt;[LMZ9]&lt;/div&gt;&lt;/div&gt;" style="text;html=1;align=left;verticalAlign=top;whiteSpace=wrap;rounded=0;fontSize=9;" parent="q1FSfACkbBMbSRhOJW1q-13" vertex="1">
          <mxGeometry x="1651" y="806" width="188" height="49" as="geometry" />
        </mxCell>
        <mxCell id="q1FSfACkbBMbSRhOJW1q-170" value="" style="html=1;verticalAlign=bottom;labelBackgroundColor=none;endArrow=none;endFill=0;endSize=6;align=left;rounded=0;startArrow=block;startFill=1;dashed=1;" parent="q1FSfACkbBMbSRhOJW1q-13" edge="1">
          <mxGeometry x="-1" relative="1" as="geometry">
            <mxPoint x="1640" y="869" as="sourcePoint" />
            <mxPoint x="1867" y="869" as="targetPoint" />
            <mxPoint as="offset" />
            <Array as="points">
              <mxPoint x="1840" y="869" />
            </Array>
          </mxGeometry>
        </mxCell>
        <mxCell id="q1FSfACkbBMbSRhOJW1q-171" value="Queque&lt;div&gt;&lt;b&gt;MQ 390&lt;/b&gt;&lt;br&gt;&lt;div&gt;Recibe respuesta&amp;nbsp;&lt;span style=&quot;background-color: transparent; color: light-dark(rgb(0, 0, 0), rgb(255, 255, 255));&quot;&gt;de la consulta comisión de tarjeta de débito&lt;/span&gt;&lt;span style=&quot;background-color: transparent; color: light-dark(rgb(0, 0, 0), rgb(255, 255, 255));&quot;&gt;&amp;nbsp;con mensaje de Error&lt;/span&gt;&lt;/div&gt;&lt;div&gt;[LMZ9]&lt;/div&gt;&lt;/div&gt;" style="text;html=1;align=left;verticalAlign=top;whiteSpace=wrap;rounded=0;fontSize=9;" parent="q1FSfACkbBMbSRhOJW1q-13" vertex="1">
          <mxGeometry x="2849.75" y="3101" width="184" height="50" as="geometry" />
        </mxCell>
        <mxCell id="q1FSfACkbBMbSRhOJW1q-172" value="&lt;div&gt;&lt;div&gt;&lt;font style=&quot;color: rgb(0, 0, 0);&quot;&gt;Microservicio&lt;/font&gt;&lt;/div&gt;&lt;div&gt;&lt;span style=&quot;background-color: transparent;&quot;&gt;&lt;b&gt;activate-card&lt;/b&gt;&lt;/span&gt;&lt;/div&gt;&lt;/div&gt;&lt;font style=&quot;color: rgb(0, 0, 0);&quot;&gt;Toma la solicitud de&amp;nbsp;&lt;/font&gt;consulta comisión de tarjeta de débito&lt;div&gt;[LMZ9]&lt;/div&gt;" style="text;html=1;align=left;verticalAlign=top;whiteSpace=wrap;rounded=0;fontSize=9;" parent="q1FSfACkbBMbSRhOJW1q-13" vertex="1">
          <mxGeometry x="1884" y="930.5" width="214" height="49.82" as="geometry" />
        </mxCell>
        <mxCell id="q1FSfACkbBMbSRhOJW1q-173" value="Componente&lt;div&gt;&lt;b&gt;Launcher PLARD&lt;/b&gt;&lt;br&gt;&lt;div&gt;Recibe&amp;nbsp;&lt;span style=&quot;background-color: transparent; color: light-dark(rgb(0, 0, 0), rgb(255, 255, 255));&quot;&gt;el response&lt;/span&gt;&lt;span style=&quot;background-color: transparent; color: light-dark(rgb(0, 0, 0), rgb(255, 255, 255));&quot;&gt;&amp;nbsp;de la&lt;/span&gt;&lt;span style=&quot;background-color: transparent; color: light-dark(rgb(0, 0, 0), rgb(255, 255, 255));&quot;&gt;&amp;nbsp;consulta comisión de tarjeta de débito&lt;/span&gt;&lt;span style=&quot;background-color: transparent; color: light-dark(rgb(0, 0, 0), rgb(255, 255, 255));&quot;&gt;&amp;nbsp;en Stream de Redis&lt;/span&gt;&lt;span style=&quot;background-color: transparent; color: light-dark(rgb(0, 0, 0), rgb(255, 255, 255));&quot;&gt;&amp;nbsp;&lt;/span&gt;&lt;/div&gt;&lt;div&gt;&lt;span style=&quot;background-color: transparent; color: light-dark(rgb(0, 0, 0), rgb(255, 255, 255));&quot;&gt;[LMZ9]&lt;/span&gt;&lt;/div&gt;&lt;/div&gt;" style="text;html=1;align=left;verticalAlign=top;whiteSpace=wrap;rounded=0;fontSize=9;" parent="q1FSfACkbBMbSRhOJW1q-13" vertex="1">
          <mxGeometry x="1167" y="1498" width="456.75" height="50" as="geometry" />
        </mxCell>
        <mxCell id="q1FSfACkbBMbSRhOJW1q-174" value="Microservicio&lt;div&gt;&lt;div&gt;&lt;span style=&quot;background-color: transparent;&quot;&gt;&lt;b&gt;activate-card&lt;/b&gt;&lt;/span&gt;&lt;/div&gt;&lt;div&gt;Genera responce &lt;span style=&quot;background-color: transparent; color: light-dark(rgb(0, 0, 0), rgb(255, 255, 255));&quot;&gt;de la&amp;nbsp;&lt;/span&gt;&lt;span style=&quot;background-color: transparent;&quot;&gt;consulta comisión de tarjeta de débito&lt;/span&gt;&lt;/div&gt;&lt;/div&gt;&lt;div&gt;[LMZ9]&lt;/div&gt;" style="text;html=1;align=left;verticalAlign=top;whiteSpace=wrap;rounded=0;fontSize=9;" parent="q1FSfACkbBMbSRhOJW1q-13" vertex="1">
          <mxGeometry x="2152.75" y="1452" width="163.25" height="59" as="geometry" />
        </mxCell>
        <mxCell id="q1FSfACkbBMbSRhOJW1q-175" value="" style="html=1;align=left;spacingLeft=2;endArrow=block;rounded=0;edgeStyle=orthogonalEdgeStyle;curved=0;rounded=0;" parent="q1FSfACkbBMbSRhOJW1q-13" edge="1">
          <mxGeometry x="-0.2922" y="20" relative="1" as="geometry">
            <mxPoint x="2120" y="1481" as="sourcePoint" />
            <Array as="points">
              <mxPoint x="2150" y="1481.06" />
              <mxPoint x="2150" y="1511.06" />
            </Array>
            <mxPoint x="2120" y="1511.06" as="targetPoint" />
            <mxPoint as="offset" />
          </mxGeometry>
        </mxCell>
        <mxCell id="q1FSfACkbBMbSRhOJW1q-177" value="alt CPL" style="shape=umlFrame;whiteSpace=wrap;html=1;pointerEvents=0;" parent="q1FSfACkbBMbSRhOJW1q-13" vertex="1">
          <mxGeometry x="306" y="655" width="3010" height="2735" as="geometry" />
        </mxCell>
        <mxCell id="q1FSfACkbBMbSRhOJW1q-179" value="&lt;font style=&quot;font-size: 12px;&quot;&gt;[Response == 4XX]&lt;/font&gt;" style="text;html=1;rotation=0;" parent="q1FSfACkbBMbSRhOJW1q-13" vertex="1">
          <mxGeometry x="235" y="3021" width="3137" height="23" as="geometry" />
        </mxCell>
        <mxCell id="9PED4Zd3BGk1TBCsJTgQ-1" value="" style="endArrow=block;html=1;rounded=0;dashed=1;endFill=1;entryX=0.497;entryY=0.294;entryDx=0;entryDy=0;entryPerimeter=0;exitX=0.495;exitY=0.246;exitDx=0;exitDy=0;exitPerimeter=0;" parent="q1FSfACkbBMbSRhOJW1q-13" edge="1">
          <mxGeometry width="50" height="50" relative="1" as="geometry">
            <mxPoint x="2596.2" y="1244.5219999999995" as="sourcePoint" />
            <mxPoint x="2122.52" y="1243.4839999999995" as="targetPoint" />
          </mxGeometry>
        </mxCell>
        <mxCell id="9PED4Zd3BGk1TBCsJTgQ-2" value="" style="html=1;points=[[0,0,0,0,5],[0,1,0,0,-5],[1,0,0,0,5],[1,1,0,0,-5]];perimeter=orthogonalPerimeter;outlineConnect=0;targetShapes=umlLifeline;portConstraint=eastwest;newEdgeStyle={&quot;curved&quot;:0,&quot;rounded&quot;:0};" parent="q1FSfACkbBMbSRhOJW1q-13" vertex="1">
          <mxGeometry x="2590" y="1148.9099999999999" width="10" height="106" as="geometry" />
        </mxCell>
        <mxCell id="9PED4Zd3BGk1TBCsJTgQ-4" value="&lt;div&gt;&lt;div&gt;&lt;font style=&quot;color: rgb(0, 0, 0);&quot;&gt;Microservicio&lt;/font&gt;&lt;/div&gt;&lt;div&gt;&lt;span style=&quot;background-color: transparent;&quot;&gt;&lt;b&gt;activate-card&lt;/b&gt;&lt;/span&gt;&lt;/div&gt;&lt;/div&gt;&lt;font style=&quot;color: rgb(0, 0, 0);&quot;&gt;Toma solicitud de&amp;nbsp;&lt;/font&gt;consulta comisión de tarjeta de débito&lt;div&gt;[LMZ9]&lt;/div&gt;" style="text;html=1;align=left;verticalAlign=top;whiteSpace=wrap;rounded=0;fontSize=9;" parent="q1FSfACkbBMbSRhOJW1q-13" vertex="1">
          <mxGeometry x="2131.5" y="1111" width="204.25" height="49.82" as="geometry" />
        </mxCell>
        <mxCell id="9PED4Zd3BGk1TBCsJTgQ-5" value="Microservicio&lt;br&gt;&lt;div&gt;&lt;font&gt;&lt;b&gt;activate-card&lt;/b&gt;&lt;br&gt;&lt;/font&gt;&lt;div&gt;Recibe respuesta de la solicitud de&amp;nbsp;&lt;span style=&quot;background-color: transparent;&quot;&gt;consulta comisión de tarjeta de débito&lt;/span&gt;&lt;/div&gt;&lt;div&gt;[LMZ9]&lt;/div&gt;&lt;/div&gt;" style="text;html=1;align=left;verticalAlign=top;whiteSpace=wrap;rounded=0;fontSize=9;" parent="q1FSfACkbBMbSRhOJW1q-13" vertex="1">
          <mxGeometry x="2131.75" y="1191.9099999999999" width="283.5" height="49" as="geometry" />
        </mxCell>
        <mxCell id="9PED4Zd3BGk1TBCsJTgQ-6" value="&lt;font style=&quot;&quot;&gt;Realiza consulta comisión de tarjeta de débito&lt;/font&gt;&lt;div style=&quot;&quot;&gt;&lt;div&gt;&lt;div&gt;&lt;font&gt;&lt;b&gt;&lt;font style=&quot;&quot;&gt;[API PLARD - Device Life Cycle&lt;/font&gt;&lt;font style=&quot;&quot;&gt;]&lt;/font&gt;&lt;/b&gt;&lt;/font&gt;&lt;/div&gt;&lt;div&gt;&lt;font style=&quot;&quot;&gt;&lt;font&gt;&lt;font style=&quot;&quot;&gt;(POST)&amp;nbsp;&lt;/font&gt;&lt;/font&gt;&lt;span style=&quot;background-color: transparent;&quot;&gt;&amp;nbsp;&lt;/span&gt;&lt;span style=&quot;background-color: transparent;&quot;&gt;/v3/devices/activate-physical-type&lt;/span&gt;&lt;/font&gt;&lt;/div&gt;&lt;/div&gt;&lt;/div&gt;&lt;p style=&quot;margin-left: 20.6pt; text-indent: -0.25in; font-size: 10px;&quot; class=&quot;TableText&quot;&gt;&lt;i&gt;&lt;span style=&quot;&quot; lang=&quot;ES&quot;&gt;&lt;font style=&quot;font-size: 10px;&quot;&gt;&lt;/font&gt;&lt;/span&gt;&lt;/i&gt;&lt;/p&gt;" style="text;html=1;align=left;verticalAlign=top;whiteSpace=wrap;rounded=0;fontSize=9;fontColor=default;" parent="q1FSfACkbBMbSRhOJW1q-13" vertex="1">
          <mxGeometry x="2635.25" y="1170.9099999999999" width="194.75" height="50" as="geometry" />
        </mxCell>
        <mxCell id="9PED4Zd3BGk1TBCsJTgQ-7" value="" style="html=1;align=left;spacingLeft=2;endArrow=block;rounded=0;edgeStyle=orthogonalEdgeStyle;curved=0;rounded=0;" parent="q1FSfACkbBMbSRhOJW1q-13" edge="1">
          <mxGeometry x="-0.2922" y="20" relative="1" as="geometry">
            <mxPoint x="2602" y="1181.9300000000003" as="sourcePoint" />
            <Array as="points">
              <mxPoint x="2632" y="1181.9899999999998" />
              <mxPoint x="2632" y="1211.9899999999998" />
            </Array>
            <mxPoint x="2602" y="1211.9899999999998" as="targetPoint" />
            <mxPoint as="offset" />
          </mxGeometry>
        </mxCell>
        <mxCell id="3SSxEHiLb9EXRN6JCPSX-2" value="Canal&amp;nbsp;&lt;div&gt;&lt;b&gt;Santander&lt;/b&gt;&lt;div&gt;&lt;div&gt;Recibe respuesta de la consulta comisión de tarjeta de débito&lt;/div&gt;&lt;/div&gt;&lt;div&gt;[LMZ9]&lt;/div&gt;&lt;/div&gt;" style="text;html=1;align=left;verticalAlign=top;whiteSpace=wrap;rounded=0;fontSize=9;" vertex="1" parent="q1FSfACkbBMbSRhOJW1q-13">
          <mxGeometry x="468" y="2332" width="157" height="50" as="geometry" />
        </mxCell>
        <mxCell id="q1FSfACkbBMbSRhOJW1q-180" value="&lt;div style=&quot;font-size: medium; text-align: start;&quot; data-ccp-timestamp=&quot;1756497135787&quot;&gt;&lt;table style=&quot;border-collapse: collapse; width: 656pt;&quot; width=&quot;874&quot;&gt;&lt;colgroup&gt;&lt;col style=&quot;width: 11pt;&quot; width=&quot;14&quot;&gt;&lt;col style=&quot;width: 48pt;&quot; width=&quot;64&quot;&gt;&lt;col style=&quot;width: 137pt;&quot; width=&quot;182&quot;&gt;&lt;col style=&quot;width: 48pt;&quot; span=&quot;3&quot; width=&quot;64&quot;&gt;&lt;col style=&quot;width: 317pt;&quot; width=&quot;422&quot;&gt;&lt;/colgroup&gt;&lt;tbody&gt;&lt;tr style=&quot;height: 15pt;&quot; height=&quot;20&quot;&gt;&lt;td style=&quot;padding-top: 1px; padding-right: 1px; padding-left: 1px; color: rgb(0, 32, 96); font-size: 8pt; font-weight: 700; font-family: Calibri; vertical-align: bottom; border: 0.5pt solid rgb(191, 191, 191); text-wrap-mode: nowrap; background: rgb(242, 206, 239); width: 11pt; height: 15pt;&quot; class=&quot;xl429&quot; height=&quot;20&quot; width=&quot;14&quot;&gt;#&lt;/td&gt;&lt;td style=&quot;padding-top: 1px; padding-right: 1px; padding-left: 1px; color: rgb(0, 32, 96); font-size: 8pt; font-weight: 700; font-family: Calibri; vertical-align: bottom; border: 0.5pt solid rgb(191, 191, 191); text-wrap-mode: nowrap; background: rgb(242, 206, 239); width: 48pt;&quot; class=&quot;xl429&quot; width=&quot;64&quot;&gt;Campo&lt;/td&gt;&lt;td style=&quot;padding-top: 1px; padding-right: 1px; padding-left: 1px; color: rgb(0, 32, 96); font-size: 8pt; font-weight: 700; font-family: Calibri; vertical-align: bottom; border: 0.5pt solid rgb(191, 191, 191); text-wrap-mode: nowrap; background: rgb(242, 206, 239); width: 137pt;&quot; class=&quot;xl429&quot; width=&quot;182&quot;&gt;Descripcion de Campo&lt;/td&gt;&lt;td style=&quot;padding-top: 1px; padding-right: 1px; padding-left: 1px; color: rgb(0, 32, 96); font-size: 8pt; font-weight: 700; font-family: Calibri; vertical-align: bottom; border: 0.5pt solid rgb(191, 191, 191); text-wrap-mode: nowrap; background: rgb(242, 206, 239); width: 48pt;&quot; class=&quot;xl429&quot; width=&quot;64&quot;&gt;Longitud&lt;/td&gt;&lt;td style=&quot;padding-top: 1px; padding-right: 1px; padding-left: 1px; color: rgb(0, 32, 96); font-size: 8pt; font-weight: 700; font-family: Calibri; vertical-align: bottom; border: 0.5pt solid rgb(191, 191, 191); text-wrap-mode: nowrap; background: rgb(242, 206, 239); width: 48pt;&quot; class=&quot;xl429&quot; width=&quot;64&quot;&gt;Tipo&lt;/td&gt;&lt;td style=&quot;padding-top: 1px; padding-right: 1px; padding-left: 1px; color: rgb(0, 32, 96); font-size: 8pt; font-weight: 700; font-family: Calibri; vertical-align: bottom; border: 0.5pt solid rgb(191, 191, 191); text-wrap-mode: nowrap; background: rgb(242, 206, 239); width: 48pt;&quot; class=&quot;xl429&quot; width=&quot;64&quot;&gt;Req./Opc.&lt;/td&gt;&lt;td style=&quot;padding-top: 1px; padding-right: 1px; padding-left: 1px; color: rgb(242, 242, 242); font-size: 8pt; font-weight: 700; font-family: Calibri; vertical-align: bottom; border-top: 0.5pt solid rgb(191, 191, 191); border-right: 0.5pt solid rgb(191, 191, 191); border-bottom: none; border-left: 0.5pt solid rgb(191, 191, 191); border-image: initial; background: gray; width: 317pt;&quot; class=&quot;xl449&quot; width=&quot;422&quot;&gt;Notas, complemento&lt;/td&gt;&lt;/tr&gt;&lt;tr style=&quot;height: 23.25pt;&quot; height=&quot;31&quot;&gt;&lt;td style=&quot;padding-top: 1px; padding-right: 1px; padding-left: 1px; color: rgb(75, 31, 73); font-size: 8pt; font-family: Calibri; vertical-align: bottom; border: 0.5pt solid rgb(191, 191, 191); text-wrap-mode: nowrap; height: 23.25pt;&quot; align=&quot;right&quot; class=&quot;xl451&quot; height=&quot;31&quot;&gt;1&lt;/td&gt;&lt;td style=&quot;padding-top: 1px; padding-right: 1px; padding-left: 1px; color: rgb(75, 31, 73); font-size: 8pt; font-family: Calibri; vertical-align: bottom; border: 0.5pt solid rgb(191, 191, 191); text-wrap-mode: nowrap;&quot; class=&quot;xl451&quot;&gt;PAN&amp;nbsp;&amp;nbsp;&amp;nbsp;&amp;nbsp;&lt;/td&gt;&lt;td style=&quot;padding-top: 1px; padding-right: 1px; padding-left: 1px; color: rgb(75, 31, 73); font-size: 8pt; font-family: Calibri; vertical-align: bottom; border: 0.5pt solid rgb(191, 191, 191); text-wrap-mode: nowrap;&quot; class=&quot;xl451&quot;&gt;PAN&amp;nbsp;&amp;nbsp;&amp;nbsp;&amp;nbsp;&amp;nbsp;&amp;nbsp;&amp;nbsp;&amp;nbsp;&amp;nbsp;&amp;nbsp;&amp;nbsp;&amp;nbsp;&amp;nbsp;&amp;nbsp;&amp;nbsp;&lt;/td&gt;&lt;td style=&quot;padding-top: 1px; padding-right: 1px; padding-left: 1px; color: rgb(75, 31, 73); font-size: 8pt; font-family: Calibri; vertical-align: bottom; border: 0.5pt solid rgb(191, 191, 191); text-wrap-mode: nowrap;&quot; align=&quot;right&quot; class=&quot;xl451&quot;&gt;22&lt;/td&gt;&lt;td style=&quot;padding-top: 1px; padding-right: 1px; padding-left: 1px; color: rgb(75, 31, 73); font-size: 8pt; font-family: Calibri; vertical-align: bottom; border: 0.5pt solid rgb(191, 191, 191); text-wrap-mode: nowrap;&quot; class=&quot;xl451&quot;&gt;Alfanumerico&lt;/td&gt;&lt;td style=&quot;padding-top: 1px; padding-right: 1px; padding-left: 1px; color: rgb(75, 31, 73); font-size: 8pt; font-weight: 700; font-family: Calibri; vertical-align: bottom; border-top: 0.5pt solid rgb(191, 191, 191); border-right: none; border-bottom: 0.5pt solid rgb(191, 191, 191); border-left: 0.5pt solid rgb(191, 191, 191); border-image: initial; text-wrap-mode: nowrap;&quot; class=&quot;xl452&quot;&gt;Requerido&lt;/td&gt;&lt;td style=&quot;padding-top: 1px; padding-right: 1px; padding-left: 1px; color: rgb(75, 31, 73); font-size: 8pt; font-family: Calibri; vertical-align: bottom; border-top: 0.5pt solid rgb(217, 217, 217); border-right: none; border-bottom: 0.5pt solid rgb(217, 217, 217); border-left: 0.5pt solid rgb(217, 217, 217); border-image: initial; width: 317pt;&quot; class=&quot;xl453&quot; width=&quot;422&quot;&gt;Se valida que la tarjeta exista en la tabla de tarjetas(MPDT009).&lt;/td&gt;&lt;/tr&gt;&lt;tr style=&quot;height: 15pt;&quot; height=&quot;20&quot;&gt;&lt;td style=&quot;padding-top: 1px; padding-right: 1px; padding-left: 1px; color: rgb(75, 31, 73); font-size: 8pt; font-family: Calibri; vertical-align: bottom; border: 0.5pt solid rgb(191, 191, 191); text-wrap-mode: nowrap; height: 15pt;&quot; align=&quot;right&quot; class=&quot;xl451&quot; height=&quot;20&quot;&gt;2&lt;/td&gt;&lt;td style=&quot;padding-top: 1px; padding-right: 1px; padding-left: 1px; color: rgb(75, 31, 73); font-size: 8pt; font-family: Calibri; vertical-align: bottom; border: 0.5pt solid rgb(191, 191, 191); text-wrap-mode: nowrap;&quot; class=&quot;xl451&quot;&gt;FECCAD&amp;nbsp;&lt;/td&gt;&lt;td style=&quot;padding-top: 1px; padding-right: 1px; padding-left: 1px; color: rgb(75, 31, 73); font-size: 8pt; font-family: Calibri; vertical-align: bottom; border: 0.5pt solid rgb(191, 191, 191); text-wrap-mode: nowrap;&quot; class=&quot;xl451&quot;&gt;FECHA DE CADUCIDAD&lt;/td&gt;&lt;td style=&quot;padding-top: 1px; padding-right: 1px; padding-left: 1px; color: rgb(75, 31, 73); font-size: 8pt; font-family: Calibri; vertical-align: bottom; border: 0.5pt solid rgb(191, 191, 191); text-wrap-mode: nowrap;&quot; align=&quot;right&quot; class=&quot;xl451&quot;&gt;6&lt;/td&gt;&lt;td style=&quot;padding-top: 1px; padding-right: 1px; padding-left: 1px; color: rgb(75, 31, 73); font-size: 8pt; font-family: Calibri; vertical-align: bottom; border: 0.5pt solid rgb(191, 191, 191); text-wrap-mode: nowrap;&quot; class=&quot;xl451&quot;&gt;Numerico&lt;/td&gt;&lt;td style=&quot;padding-top: 1px; padding-right: 1px; padding-left: 1px; color: rgb(75, 31, 73); font-size: 8pt; font-weight: 700; font-family: Calibri; vertical-align: bottom; border-top: 0.5pt solid rgb(191, 191, 191); border-right: none; border-bottom: 0.5pt solid rgb(191, 191, 191); border-left: 0.5pt solid rgb(191, 191, 191); border-image: initial; text-wrap-mode: nowrap;&quot; class=&quot;xl452&quot;&gt;Requerido&lt;/td&gt;&lt;td style=&quot;padding-top: 1px; padding-right: 1px; padding-left: 1px; color: rgb(75, 31, 73); font-size: 8pt; font-family: Calibri; vertical-align: bottom; border-top: 0.5pt solid rgb(217, 217, 217); border-right: none; border-bottom: 0.5pt solid rgb(217, 217, 217); border-left: 0.5pt solid rgb(217, 217, 217); border-image: initial; width: 317pt;&quot; class=&quot;xl453&quot; width=&quot;422&quot;&gt;Se valida como obligatorio.&lt;/td&gt;&lt;/tr&gt;&lt;tr style=&quot;height: 23.25pt;&quot; height=&quot;31&quot;&gt;&lt;td style=&quot;padding-top: 1px; padding-right: 1px; padding-left: 1px; color: rgb(75, 31, 73); font-size: 8pt; font-family: Calibri; vertical-align: bottom; border: 0.5pt solid rgb(191, 191, 191); text-wrap-mode: nowrap; height: 23.25pt;&quot; align=&quot;right&quot; class=&quot;xl451&quot; height=&quot;31&quot;&gt;3&lt;/td&gt;&lt;td style=&quot;padding-top: 1px; padding-right: 1px; padding-left: 1px; color: rgb(75, 31, 73); font-size: 8pt; font-family: Calibri; vertical-align: bottom; border: 0.5pt solid rgb(191, 191, 191); text-wrap-mode: nowrap;&quot; class=&quot;xl451&quot;&gt;CVVCSC&amp;nbsp;&lt;/td&gt;&lt;td style=&quot;padding-top: 1px; padding-right: 1px; padding-left: 1px; color: rgb(75, 31, 73); font-size: 8pt; font-family: Calibri; vertical-align: bottom; border: 0.5pt solid rgb(191, 191, 191); text-wrap-mode: nowrap;&quot; class=&quot;xl451&quot;&gt;CVVCSC&amp;nbsp;&amp;nbsp;&amp;nbsp;&amp;nbsp;&amp;nbsp;&amp;nbsp;&amp;nbsp;&amp;nbsp;&amp;nbsp;&amp;nbsp;&amp;nbsp;&amp;nbsp;&lt;/td&gt;&lt;td style=&quot;padding-top: 1px; padding-right: 1px; padding-left: 1px; color: rgb(75, 31, 73); font-size: 8pt; font-family: Calibri; vertical-align: bottom; border: 0.5pt solid rgb(191, 191, 191); text-wrap-mode: nowrap;&quot; align=&quot;right&quot; class=&quot;xl451&quot;&gt;6&lt;/td&gt;&lt;td style=&quot;padding-top: 1px; padding-right: 1px; padding-left: 1px; color: rgb(75, 31, 73); font-size: 8pt; font-family: Calibri; vertical-align: bottom; border: 0.5pt solid rgb(191, 191, 191); text-wrap-mode: nowrap;&quot; class=&quot;xl451&quot;&gt;Numerico&lt;/td&gt;&lt;td style=&quot;padding-top: 1px; padding-right: 1px; padding-left: 1px; color: rgb(75, 31, 73); font-size: 8pt; font-weight: 700; font-family: Calibri; vertical-align: bottom; border-top: 0.5pt solid rgb(191, 191, 191); border-right: none; border-bottom: 0.5pt solid rgb(191, 191, 191); border-left: 0.5pt solid rgb(191, 191, 191); border-image: initial; text-wrap-mode: nowrap;&quot; class=&quot;xl452&quot;&gt;Opcional&lt;/td&gt;&lt;td style=&quot;padding-top: 1px; padding-right: 1px; padding-left: 1px; color: rgb(75, 31, 73); font-size: 8pt; font-family: Calibri; vertical-align: bottom; border-top: 0.5pt solid rgb(217, 217, 217); border-right: none; border-bottom: 0.5pt solid rgb(217, 217, 217); border-left: 0.5pt solid rgb(217, 217, 217); border-image: initial; width: 317pt;&quot; class=&quot;xl453&quot; width=&quot;422&quot;&gt;Si el estampado es &#39;AMEX&#39; se valida como obligatorio el CSC. Si no es AMEX se valida CVV como obligatorio.&lt;/td&gt;&lt;/tr&gt;&lt;tr style=&quot;height: 15pt;&quot; height=&quot;20&quot;&gt;&lt;td style=&quot;padding-top: 1px; padding-right: 1px; padding-left: 1px; color: rgb(75, 31, 73); font-size: 8pt; font-family: Calibri; vertical-align: bottom; border: 0.5pt solid rgb(191, 191, 191); text-wrap-mode: nowrap; height: 15pt;&quot; align=&quot;right&quot; class=&quot;xl451&quot; height=&quot;20&quot;&gt;4&lt;/td&gt;&lt;td style=&quot;padding-top: 1px; padding-right: 1px; padding-left: 1px; color: rgb(75, 31, 73); font-size: 8pt; font-family: Calibri; vertical-align: bottom; border: 0.5pt solid rgb(191, 191, 191); text-wrap-mode: nowrap;&quot; class=&quot;xl451&quot;&gt;INDCSC&amp;nbsp;&lt;/td&gt;&lt;td style=&quot;padding-top: 1px; padding-right: 1px; padding-left: 1px; color: rgb(75, 31, 73); font-size: 8pt; font-family: Calibri; vertical-align: bottom; border: 0.5pt solid rgb(191, 191, 191); text-wrap-mode: nowrap;&quot; class=&quot;xl451&quot;&gt;IND. CVV O CSC&amp;nbsp;&amp;nbsp;&amp;nbsp;&amp;nbsp;&lt;/td&gt;&lt;td style=&quot;padding-top: 1px; padding-right: 1px; padding-left: 1px; color: rgb(75, 31, 73); font-size: 8pt; font-family: Calibri; vertical-align: bottom; border: 0.5pt solid rgb(191, 191, 191); text-wrap-mode: nowrap;&quot; align=&quot;right&quot; class=&quot;xl451&quot;&gt;1&lt;/td&gt;&lt;td style=&quot;padding-top: 1px; padding-right: 1px; padding-left: 1px; color: rgb(75, 31, 73); font-size: 8pt; font-family: Calibri; vertical-align: bottom; border: 0.5pt solid rgb(191, 191, 191); text-wrap-mode: nowrap;&quot; class=&quot;xl451&quot;&gt;Numerico&lt;/td&gt;&lt;td style=&quot;padding-top: 1px; padding-right: 1px; padding-left: 1px; color: rgb(75, 31, 73); font-size: 8pt; font-weight: 700; font-family: Calibri; vertical-align: bottom; border-top: 0.5pt solid rgb(191, 191, 191); border-right: none; border-bottom: 0.5pt solid rgb(191, 191, 191); border-left: 0.5pt solid rgb(191, 191, 191); border-image: initial; text-wrap-mode: nowrap;&quot; class=&quot;xl452&quot;&gt;Opcional&lt;/td&gt;&lt;td style=&quot;padding-top: 1px; padding-right: 1px; padding-left: 1px; color: rgb(75, 31, 73); font-size: 8pt; font-family: Calibri; vertical-align: bottom; border-top: 0.5pt solid rgb(217, 217, 217); border-right: none; border-bottom: 0.5pt solid rgb(217, 217, 217); border-left: 0.5pt solid rgb(217, 217, 217); border-image: initial; width: 317pt;&quot; class=&quot;xl453&quot; width=&quot;422&quot;&gt;Si el estampado es &#39;AMEX&#39; se valida como obligatorio el indicador de CSC.&lt;/td&gt;&lt;/tr&gt;&lt;tr style=&quot;height: 15pt;&quot; height=&quot;20&quot;&gt;&lt;td style=&quot;padding-top: 1px; padding-right: 1px; padding-left: 1px; color: rgb(75, 31, 73); font-size: 8pt; font-family: Calibri; vertical-align: bottom; border: 0.5pt solid rgb(191, 191, 191); text-wrap-mode: nowrap; height: 15pt;&quot; align=&quot;right&quot; class=&quot;xl451&quot; height=&quot;20&quot;&gt;5&lt;/td&gt;&lt;td style=&quot;padding-top: 1px; padding-right: 1px; padding-left: 1px; color: rgb(75, 31, 73); font-size: 8pt; font-family: Calibri; vertical-align: bottom; border: 0.5pt solid rgb(191, 191, 191); text-wrap-mode: nowrap;&quot; class=&quot;xl451&quot;&gt;CANAL&amp;nbsp;&amp;nbsp;&lt;/td&gt;&lt;td style=&quot;padding-top: 1px; padding-right: 1px; padding-left: 1px; color: rgb(75, 31, 73); font-size: 8pt; font-family: Calibri; vertical-align: bottom; border: 0.5pt solid rgb(191, 191, 191); text-wrap-mode: nowrap;&quot; class=&quot;xl451&quot;&gt;CANAL&amp;nbsp;&amp;nbsp;&amp;nbsp;&amp;nbsp;&amp;nbsp;&amp;nbsp;&amp;nbsp;&amp;nbsp;&amp;nbsp;&amp;nbsp;&amp;nbsp;&amp;nbsp;&amp;nbsp;&lt;/td&gt;&lt;td style=&quot;padding-top: 1px; padding-right: 1px; padding-left: 1px; color: rgb(75, 31, 73); font-size: 8pt; font-family: Calibri; vertical-align: bottom; border: 0.5pt solid rgb(191, 191, 191); text-wrap-mode: nowrap;&quot; align=&quot;right&quot; class=&quot;xl451&quot;&gt;4&lt;/td&gt;&lt;td style=&quot;padding-top: 1px; padding-right: 1px; padding-left: 1px; color: rgb(75, 31, 73); font-size: 8pt; font-family: Calibri; vertical-align: bottom; border: 0.5pt solid rgb(191, 191, 191); text-wrap-mode: nowrap;&quot; class=&quot;xl451&quot;&gt;Alfanumerico&lt;/td&gt;&lt;td style=&quot;padding-top: 1px; padding-right: 1px; padding-left: 1px; color: rgb(75, 31, 73); font-size: 8pt; font-weight: 700; font-family: Calibri; vertical-align: bottom; border-top: 0.5pt solid rgb(191, 191, 191); border-right: none; border-bottom: 0.5pt solid rgb(191, 191, 191); border-left: 0.5pt solid rgb(191, 191, 191); border-image: initial; text-wrap-mode: nowrap;&quot; class=&quot;xl452&quot;&gt;Requerido&lt;/td&gt;&lt;td style=&quot;padding-top: 1px; padding-right: 1px; padding-left: 1px; color: rgb(75, 31, 73); font-size: 8pt; font-family: Calibri; vertical-align: bottom; border-top: 0.5pt solid rgb(217, 217, 217); border-right: none; border-bottom: 0.5pt solid rgb(217, 217, 217); border-left: 0.5pt solid rgb(217, 217, 217); border-image: initial; width: 317pt;&quot; class=&quot;xl453&quot; width=&quot;422&quot;&gt;Obligatorio informar el canal utilizado.&lt;/td&gt;&lt;/tr&gt;&lt;tr style=&quot;height: 15pt;&quot; height=&quot;20&quot;&gt;&lt;td style=&quot;padding-top: 1px; padding-right: 1px; padding-left: 1px; color: rgb(75, 31, 73); font-size: 8pt; font-family: Calibri; vertical-align: bottom; border: 0.5pt solid rgb(191, 191, 191); text-wrap-mode: nowrap; height: 15pt;&quot; align=&quot;right&quot; class=&quot;xl451&quot; height=&quot;20&quot;&gt;6&lt;/td&gt;&lt;td style=&quot;padding-top: 1px; padding-right: 1px; padding-left: 1px; color: rgb(75, 31, 73); font-size: 8pt; font-family: Calibri; vertical-align: bottom; border: 0.5pt solid rgb(191, 191, 191); text-wrap-mode: nowrap;&quot; class=&quot;xl451&quot;&gt;EMPRESA&lt;/td&gt;&lt;td style=&quot;padding-top: 1px; padding-right: 1px; padding-left: 1px; color: rgb(75, 31, 73); font-size: 8pt; font-family: Calibri; vertical-align: bottom; border: 0.5pt solid rgb(191, 191, 191); text-wrap-mode: nowrap;&quot; class=&quot;xl451&quot;&gt;EMPRESA&amp;nbsp;&amp;nbsp;&amp;nbsp;&amp;nbsp;&amp;nbsp;&amp;nbsp;&amp;nbsp;&amp;nbsp;&amp;nbsp;&amp;nbsp;&amp;nbsp;&lt;/td&gt;&lt;td style=&quot;padding-top: 1px; padding-right: 1px; padding-left: 1px; color: rgb(75, 31, 73); font-size: 8pt; font-family: Calibri; vertical-align: bottom; border: 0.5pt solid rgb(191, 191, 191); text-wrap-mode: nowrap;&quot; align=&quot;right&quot; class=&quot;xl451&quot;&gt;4&lt;/td&gt;&lt;td style=&quot;padding-top: 1px; padding-right: 1px; padding-left: 1px; color: rgb(75, 31, 73); font-size: 8pt; font-family: Calibri; vertical-align: bottom; border: 0.5pt solid rgb(191, 191, 191); text-wrap-mode: nowrap;&quot; class=&quot;xl451&quot;&gt;Alfanumerico&lt;/td&gt;&lt;td style=&quot;padding-top: 1px; padding-right: 1px; padding-left: 1px; color: rgb(75, 31, 73); font-size: 8pt; font-weight: 700; font-family: Calibri; vertical-align: bottom; border-top: 0.5pt solid rgb(191, 191, 191); border-right: none; border-bottom: 0.5pt solid rgb(191, 191, 191); border-left: 0.5pt solid rgb(191, 191, 191); border-image: initial; text-wrap-mode: nowrap;&quot; class=&quot;xl452&quot;&gt;Opcional&lt;/td&gt;&lt;td style=&quot;padding-top: 1px; padding-right: 1px; padding-left: 1px; color: rgb(75, 31, 73); font-size: 8pt; font-family: Calibri; vertical-align: bottom; border-top: 0.5pt solid rgb(217, 217, 217); border-right: none; border-bottom: 0.5pt solid rgb(217, 217, 217); border-left: 0.5pt solid rgb(217, 217, 217); border-image: initial; width: 317pt;&quot; class=&quot;xl453&quot; width=&quot;422&quot;&gt;No se usa&lt;/td&gt;&lt;/tr&gt;&lt;tr style=&quot;height: 15pt;&quot; height=&quot;20&quot;&gt;&lt;td style=&quot;padding-top: 1px; padding-right: 1px; padding-left: 1px; color: rgb(75, 31, 73); font-size: 8pt; font-family: Calibri; vertical-align: bottom; border: 0.5pt solid rgb(191, 191, 191); text-wrap-mode: nowrap; height: 15pt;&quot; align=&quot;right&quot; class=&quot;xl451&quot; height=&quot;20&quot;&gt;7&lt;/td&gt;&lt;td style=&quot;padding-top: 1px; padding-right: 1px; padding-left: 1px; color: rgb(75, 31, 73); font-size: 8pt; font-family: Calibri; vertical-align: bottom; border: 0.5pt solid rgb(191, 191, 191); text-wrap-mode: nowrap;&quot; class=&quot;xl451&quot;&gt;CANOPER&lt;/td&gt;&lt;td style=&quot;padding-top: 1px; padding-right: 1px; padding-left: 1px; color: rgb(75, 31, 73); font-size: 8pt; font-family: Calibri; vertical-align: bottom; border: 0.5pt solid rgb(191, 191, 191); text-wrap-mode: nowrap;&quot; class=&quot;xl451&quot;&gt;CANOPER&amp;nbsp;&amp;nbsp;&amp;nbsp;&amp;nbsp;&amp;nbsp;&amp;nbsp;&amp;nbsp;&amp;nbsp;&amp;nbsp;&amp;nbsp;&amp;nbsp;&lt;/td&gt;&lt;td style=&quot;padding-top: 1px; padding-right: 1px; padding-left: 1px; color: rgb(75, 31, 73); font-size: 8pt; font-family: Calibri; vertical-align: bottom; border: 0.5pt solid rgb(191, 191, 191); text-wrap-mode: nowrap;&quot; align=&quot;right&quot; class=&quot;xl451&quot;&gt;2&lt;/td&gt;&lt;td style=&quot;padding-top: 1px; padding-right: 1px; padding-left: 1px; color: rgb(75, 31, 73); font-size: 8pt; font-family: Calibri; vertical-align: bottom; border: 0.5pt solid rgb(191, 191, 191); text-wrap-mode: nowrap;&quot; class=&quot;xl451&quot;&gt;Alfanumerico&lt;/td&gt;&lt;td style=&quot;padding-top: 1px; padding-right: 1px; padding-left: 1px; color: rgb(75, 31, 73); font-size: 8pt; font-weight: 700; font-family: Calibri; vertical-align: bottom; border-top: 0.5pt solid rgb(191, 191, 191); border-right: none; border-bottom: 0.5pt solid rgb(191, 191, 191); border-left: 0.5pt solid rgb(191, 191, 191); border-image: initial; text-wrap-mode: nowrap;&quot; class=&quot;xl452&quot;&gt;Opcional&lt;/td&gt;&lt;td style=&quot;padding-top: 1px; padding-right: 1px; padding-left: 1px; color: rgb(75, 31, 73); font-size: 8pt; font-family: Calibri; vertical-align: bottom; border-top: 0.5pt solid rgb(217, 217, 217); border-right: none; border-bottom: 0.5pt solid rgb(217, 217, 217); border-left: 0.5pt solid rgb(217, 217, 217); border-image: initial; width: 317pt;&quot; class=&quot;xl453&quot; width=&quot;422&quot;&gt;No se usa&lt;/td&gt;&lt;/tr&gt;&lt;tr style=&quot;height: 15pt;&quot; height=&quot;20&quot;&gt;&lt;td style=&quot;padding-top: 1px; padding-right: 1px; padding-left: 1px; color: rgb(75, 31, 73); font-size: 8pt; font-family: Calibri; vertical-align: bottom; border: 0.5pt solid rgb(191, 191, 191); text-wrap-mode: nowrap; height: 15pt;&quot; align=&quot;right&quot; class=&quot;xl451&quot; height=&quot;20&quot;&gt;8&lt;/td&gt;&lt;td style=&quot;padding-top: 1px; padding-right: 1px; padding-left: 1px; color: rgb(75, 31, 73); font-size: 8pt; font-family: Calibri; vertical-align: bottom; border: 0.5pt solid rgb(191, 191, 191); text-wrap-mode: nowrap;&quot; class=&quot;xl451&quot;&gt;CANCOME&lt;/td&gt;&lt;td style=&quot;padding-top: 1px; padding-right: 1px; padding-left: 1px; color: rgb(75, 31, 73); font-size: 8pt; font-family: Calibri; vertical-align: bottom; border: 0.5pt solid rgb(191, 191, 191); text-wrap-mode: nowrap;&quot; class=&quot;xl451&quot;&gt;CANCOMER&amp;nbsp;&amp;nbsp;&amp;nbsp;&amp;nbsp;&amp;nbsp;&amp;nbsp;&amp;nbsp;&amp;nbsp;&amp;nbsp;&amp;nbsp;&lt;/td&gt;&lt;td style=&quot;padding-top: 1px; padding-right: 1px; padding-left: 1px; color: rgb(75, 31, 73); font-size: 8pt; font-family: Calibri; vertical-align: bottom; border: 0.5pt solid rgb(191, 191, 191); text-wrap-mode: nowrap;&quot; align=&quot;right&quot; class=&quot;xl451&quot;&gt;2&lt;/td&gt;&lt;td style=&quot;padding-top: 1px; padding-right: 1px; padding-left: 1px; color: rgb(75, 31, 73); font-size: 8pt; font-family: Calibri; vertical-align: bottom; border: 0.5pt solid rgb(191, 191, 191); text-wrap-mode: nowrap;&quot; class=&quot;xl451&quot;&gt;Alfanumerico&lt;/td&gt;&lt;td style=&quot;padding-top: 1px; padding-right: 1px; padding-left: 1px; color: rgb(75, 31, 73); font-size: 8pt; font-weight: 700; font-family: Calibri; vertical-align: bottom; border-top: 0.5pt solid rgb(191, 191, 191); border-right: none; border-bottom: 0.5pt solid rgb(191, 191, 191); border-left: 0.5pt solid rgb(191, 191, 191); border-image: initial; text-wrap-mode: nowrap;&quot; class=&quot;xl452&quot;&gt;Opcional&lt;/td&gt;&lt;td style=&quot;padding-top: 1px; padding-right: 1px; padding-left: 1px; color: rgb(75, 31, 73); font-size: 8pt; font-family: Calibri; vertical-align: bottom; border-top: 0.5pt solid rgb(217, 217, 217); border-right: none; border-bottom: 0.5pt solid rgb(217, 217, 217); border-left: 0.5pt solid rgb(217, 217, 217); border-image: initial; width: 317pt;&quot; class=&quot;xl453&quot; width=&quot;422&quot;&gt;No se usa&lt;/td&gt;&lt;/tr&gt;&lt;/tbody&gt;&lt;/table&gt;&lt;/div&gt;" style="rounded=0;whiteSpace=wrap;html=1;" parent="1" vertex="1">
          <mxGeometry x="531" y="290" width="979" height="520" as="geometry" />
        </mxCell>
        <mxCell id="3SSxEHiLb9EXRN6JCPSX-1" value="&lt;div style=&quot;&quot;&gt;&lt;b style=&quot;background-color: transparent; color: light-dark(rgb(0, 0, 0), rgb(255, 255, 255)); font-size: 13px;&quot;&gt;Escenario 1: CANALES BPMN - TFL&lt;/b&gt;&lt;/div&gt;&lt;div style=&quot;&quot;&gt;&lt;div&gt;&lt;span style=&quot;background-color: transparent; color: light-dark(rgb(0, 0, 0), rgb(255, 255, 255));&quot;&gt;El Cliente Santander requiere la consulta comisión de una tarjeta de débito (TDD)&amp;nbsp;&lt;/span&gt;&lt;span style=&quot;background-color: transparent; color: light-dark(rgb(0, 0, 0), rgb(255, 255, 255));&quot;&gt;a través del canal digital Santander Web (sanweb), informando los datos de número de tarjeta (PAN), usuario, canal y PIN block, lo cual brindara información para realizar la consulta comisión de la tarjeta.&lt;/span&gt;&lt;/div&gt;&lt;div&gt;&lt;span style=&quot;background-color: transparent; color: light-dark(rgb(0, 0, 0), rgb(255, 255, 255));&quot;&gt;&lt;b&gt;&lt;br&gt;&lt;/b&gt;&lt;/span&gt;&lt;/div&gt;&lt;div&gt;&lt;b&gt;Consideraciones:&lt;/b&gt;&lt;/div&gt;&lt;div&gt;&lt;ul&gt;&lt;li&gt;&lt;div style=&quot;font-weight: 400;&quot;&gt;&lt;span style=&quot;background-color: transparent; color: light-dark(rgb(0, 0, 0), rgb(255, 255, 255));&quot;&gt;El Cliente selecciona la opción activar tarjeta a través de la sistema web del canal Santander Web.&lt;/span&gt;&lt;/div&gt;&lt;/li&gt;&lt;li&gt;&lt;div style=&quot;font-weight: 400;&quot;&gt;&lt;span style=&quot;background-color: transparent;&quot;&gt;&lt;font style=&quot;color: light-dark(rgb(0, 0, 0), rgb(255, 255, 255));&quot;&gt;La capa de integración consulta la API PLARD Device Life Cycle para realizar la consulta comisión. En caso de no contar con el PAN no se realizará la consulta comisión de la tarjeta de débito seleccionada.&lt;/font&gt;&lt;/span&gt;&lt;/div&gt;&lt;/li&gt;&lt;/ul&gt;&lt;/div&gt;&lt;/div&gt;" style="text;html=1;align=left;verticalAlign=top;whiteSpace=wrap;rounded=0;fontSize=12;strokeWidth=1;strokeColor=default;" vertex="1" parent="1">
          <mxGeometry x="11" y="840" width="509" height="242" as="geometry" />
        </mxCell>
      </root>
    </mxGraphModel>
  </diagram>
  <diagram id="I6JWLfuoZWQ5TVUd0h7C" name="Versiones">
    <mxGraphModel dx="1123" dy="710" grid="1" gridSize="10" guides="1" tooltips="1" connect="1" arrows="1" fold="1" page="1" pageScale="1" pageWidth="827" pageHeight="1169" math="0" shadow="0">
      <root>
        <mxCell id="0" />
        <mxCell id="1" parent="0" />
        <mxCell id="gfkMDF6y4Bmy0vj6MOeb-1" value="" style="shape=table;startSize=0;container=1;collapsible=0;childLayout=tableLayout;fontFamily=Roboto;fontSource=https://fonts.googleapis.com/css?family=Roboto;fontSize=16;strokeWidth=1;align=center;" parent="1" vertex="1">
          <mxGeometry x="500" y="351" width="1010" height="561.0000000000005" as="geometry" />
        </mxCell>
        <mxCell id="gfkMDF6y4Bmy0vj6MOeb-2" value="" style="shape=partialRectangle;collapsible=0;dropTarget=0;pointerEvents=0;fillColor=none;top=0;left=0;bottom=0;right=0;points=[[0,0.5],[1,0.5]];portConstraint=eastwest;fontFamily=Roboto;fontSource=https://fonts.googleapis.com/css?family=Roboto;fontSize=16;strokeWidth=1;" parent="gfkMDF6y4Bmy0vj6MOeb-1" vertex="1">
          <mxGeometry width="1010" height="58" as="geometry" />
        </mxCell>
        <mxCell id="gfkMDF6y4Bmy0vj6MOeb-3" value="NOMBRE" style="shape=partialRectangle;html=1;whiteSpace=wrap;connectable=0;overflow=hidden;fillColor=none;top=0;left=0;bottom=0;right=0;pointerEvents=1;fontFamily=Roboto;fontSource=https://fonts.googleapis.com/css?family=Roboto;fontSize=16;strokeWidth=1;" parent="gfkMDF6y4Bmy0vj6MOeb-2" vertex="1">
          <mxGeometry width="356" height="58" as="geometry">
            <mxRectangle width="356" height="58" as="alternateBounds" />
          </mxGeometry>
        </mxCell>
        <mxCell id="gfkMDF6y4Bmy0vj6MOeb-4" value="FECHA" style="shape=partialRectangle;html=1;whiteSpace=wrap;connectable=0;overflow=hidden;fillColor=none;top=0;left=0;bottom=0;right=0;pointerEvents=1;fontFamily=Roboto;fontSource=https://fonts.googleapis.com/css?family=Roboto;fontSize=16;strokeWidth=1;" parent="gfkMDF6y4Bmy0vj6MOeb-2" vertex="1">
          <mxGeometry x="356" width="109" height="58" as="geometry">
            <mxRectangle width="109" height="58" as="alternateBounds" />
          </mxGeometry>
        </mxCell>
        <mxCell id="gfkMDF6y4Bmy0vj6MOeb-5" value="VERSION" style="shape=partialRectangle;html=1;whiteSpace=wrap;connectable=0;overflow=hidden;fillColor=none;top=0;left=0;bottom=0;right=0;pointerEvents=1;fontFamily=Roboto;fontSource=https://fonts.googleapis.com/css?family=Roboto;fontSize=16;strokeWidth=1;" parent="gfkMDF6y4Bmy0vj6MOeb-2" vertex="1">
          <mxGeometry x="465" width="80" height="58" as="geometry">
            <mxRectangle width="80" height="58" as="alternateBounds" />
          </mxGeometry>
        </mxCell>
        <mxCell id="gfkMDF6y4Bmy0vj6MOeb-6" value="COMENTARIO" style="shape=partialRectangle;html=1;whiteSpace=wrap;connectable=0;overflow=hidden;fillColor=none;top=0;left=0;bottom=0;right=0;pointerEvents=1;fontFamily=Roboto;fontSource=https://fonts.googleapis.com/css?family=Roboto;fontSize=16;strokeWidth=1;" parent="gfkMDF6y4Bmy0vj6MOeb-2" vertex="1">
          <mxGeometry x="545" width="465" height="58" as="geometry">
            <mxRectangle width="465" height="58" as="alternateBounds" />
          </mxGeometry>
        </mxCell>
        <mxCell id="gfkMDF6y4Bmy0vj6MOeb-7" value="" style="shape=partialRectangle;collapsible=0;dropTarget=0;pointerEvents=0;fillColor=none;top=0;left=0;bottom=0;right=0;points=[[0,0.5],[1,0.5]];portConstraint=eastwest;fontFamily=Roboto;fontSource=https://fonts.googleapis.com/css?family=Roboto;fontSize=16;strokeWidth=1;" parent="gfkMDF6y4Bmy0vj6MOeb-1" vertex="1">
          <mxGeometry y="58" width="1010" height="57" as="geometry" />
        </mxCell>
        <mxCell id="gfkMDF6y4Bmy0vj6MOeb-8" value="Christopher Valencia Mendoza" style="shape=partialRectangle;html=1;whiteSpace=wrap;connectable=0;overflow=hidden;fillColor=none;top=0;left=0;bottom=0;right=0;pointerEvents=1;fontFamily=Roboto;fontSource=https://fonts.googleapis.com/css?family=Roboto;fontSize=16;strokeWidth=1;" parent="gfkMDF6y4Bmy0vj6MOeb-7" vertex="1">
          <mxGeometry width="356" height="57" as="geometry">
            <mxRectangle width="356" height="57" as="alternateBounds" />
          </mxGeometry>
        </mxCell>
        <mxCell id="gfkMDF6y4Bmy0vj6MOeb-9" value="27/08/2025" style="shape=partialRectangle;html=1;whiteSpace=wrap;connectable=0;overflow=hidden;fillColor=none;top=0;left=0;bottom=0;right=0;pointerEvents=1;fontFamily=Roboto;fontSource=https://fonts.googleapis.com/css?family=Roboto;fontSize=16;strokeWidth=1;" parent="gfkMDF6y4Bmy0vj6MOeb-7" vertex="1">
          <mxGeometry x="356" width="109" height="57" as="geometry">
            <mxRectangle width="109" height="57" as="alternateBounds" />
          </mxGeometry>
        </mxCell>
        <mxCell id="gfkMDF6y4Bmy0vj6MOeb-10" value="1.0" style="shape=partialRectangle;html=1;whiteSpace=wrap;connectable=0;overflow=hidden;fillColor=none;top=0;left=0;bottom=0;right=0;pointerEvents=1;fontFamily=Roboto;fontSource=https://fonts.googleapis.com/css?family=Roboto;fontSize=16;strokeWidth=1;" parent="gfkMDF6y4Bmy0vj6MOeb-7" vertex="1">
          <mxGeometry x="465" width="80" height="57" as="geometry">
            <mxRectangle width="80" height="57" as="alternateBounds" />
          </mxGeometry>
        </mxCell>
        <mxCell id="gfkMDF6y4Bmy0vj6MOeb-11" value="Creación del Documento" style="shape=partialRectangle;html=1;whiteSpace=wrap;connectable=0;overflow=hidden;fillColor=none;top=0;left=0;bottom=0;right=0;pointerEvents=1;fontFamily=Roboto;fontSource=https://fonts.googleapis.com/css?family=Roboto;fontSize=16;strokeWidth=1;align=center;" parent="gfkMDF6y4Bmy0vj6MOeb-7" vertex="1">
          <mxGeometry x="545" width="465" height="57" as="geometry">
            <mxRectangle width="465" height="57" as="alternateBounds" />
          </mxGeometry>
        </mxCell>
        <mxCell id="gfkMDF6y4Bmy0vj6MOeb-12" value="" style="shape=partialRectangle;collapsible=0;dropTarget=0;pointerEvents=0;fillColor=none;top=0;left=0;bottom=0;right=0;points=[[0,0.5],[1,0.5]];portConstraint=eastwest;fontFamily=Roboto;fontSource=https://fonts.googleapis.com/css?family=Roboto;fontSize=16;strokeWidth=1;" parent="gfkMDF6y4Bmy0vj6MOeb-1" vertex="1">
          <mxGeometry y="115" width="1010" height="114" as="geometry" />
        </mxCell>
        <mxCell id="gfkMDF6y4Bmy0vj6MOeb-13" value="Christopher Valencia Mendoza" style="shape=partialRectangle;html=1;whiteSpace=wrap;connectable=0;overflow=hidden;fillColor=none;top=0;left=0;bottom=0;right=0;pointerEvents=1;fontFamily=Roboto;fontSource=https://fonts.googleapis.com/css?family=Roboto;fontSize=16;strokeWidth=1;" parent="gfkMDF6y4Bmy0vj6MOeb-12" vertex="1">
          <mxGeometry width="356" height="114" as="geometry">
            <mxRectangle width="356" height="114" as="alternateBounds" />
          </mxGeometry>
        </mxCell>
        <mxCell id="gfkMDF6y4Bmy0vj6MOeb-14" value="02/08/2025" style="shape=partialRectangle;html=1;whiteSpace=wrap;connectable=0;overflow=hidden;fillColor=none;top=0;left=0;bottom=0;right=0;pointerEvents=1;fontFamily=Roboto;fontSource=https://fonts.googleapis.com/css?family=Roboto;fontSize=16;strokeWidth=1;" parent="gfkMDF6y4Bmy0vj6MOeb-12" vertex="1">
          <mxGeometry x="356" width="109" height="114" as="geometry">
            <mxRectangle width="109" height="114" as="alternateBounds" />
          </mxGeometry>
        </mxCell>
        <mxCell id="gfkMDF6y4Bmy0vj6MOeb-15" value="1.0" style="shape=partialRectangle;html=1;whiteSpace=wrap;connectable=0;overflow=hidden;fillColor=none;top=0;left=0;bottom=0;right=0;pointerEvents=1;fontFamily=Roboto;fontSource=https://fonts.googleapis.com/css?family=Roboto;fontSize=16;strokeWidth=1;" parent="gfkMDF6y4Bmy0vj6MOeb-12" vertex="1">
          <mxGeometry x="465" width="80" height="114" as="geometry">
            <mxRectangle width="80" height="114" as="alternateBounds" />
          </mxGeometry>
        </mxCell>
        <mxCell id="gfkMDF6y4Bmy0vj6MOeb-16" value="LMWY - Activación de Tarjetas Wallet&lt;div&gt;&lt;span style=&quot;color: rgb(0, 32, 96); font-family: Calibri; font-size: 10.6667px; white-space-collapse: preserve; background-color: rgb(255, 255, 255);&quot;&gt;- Se integran cambios de actualización Patrón de Integración PLARD México: Launcher Agave MQ [card-place-locator &amp;gt;&amp;gt;  Starter &amp;gt;&amp;gt; Redis &amp;gt;&amp;gt; Integration Layer &amp;gt;&amp;gt; KAFKA]&lt;/span&gt;&lt;br style=&quot;color: rgb(0, 32, 96); font-family: Calibri; font-size: 10.6667px; white-space-collapse: preserve; background-color: rgb(255, 255, 255);&quot;&gt;&lt;span style=&quot;color: rgb(0, 32, 96); font-family: Calibri; font-size: 10.6667px; white-space-collapse: preserve; background-color: rgb(255, 255, 255);&quot;&gt;- Se integra actualización de mapeos trx LMV2&lt;/span&gt;&lt;/div&gt;" style="shape=partialRectangle;html=1;whiteSpace=wrap;connectable=0;overflow=hidden;fillColor=none;top=0;left=0;bottom=0;right=0;pointerEvents=1;fontFamily=Roboto;fontSource=https://fonts.googleapis.com/css?family=Roboto;fontSize=16;strokeWidth=1;align=center;" parent="gfkMDF6y4Bmy0vj6MOeb-12" vertex="1">
          <mxGeometry x="545" width="465" height="114" as="geometry">
            <mxRectangle width="465" height="114" as="alternateBounds" />
          </mxGeometry>
        </mxCell>
        <mxCell id="yEH1g2MeN_tcW7W8u39M-1" value="" style="shape=partialRectangle;collapsible=0;dropTarget=0;pointerEvents=0;fillColor=none;top=0;left=0;bottom=0;right=0;points=[[0,0.5],[1,0.5]];portConstraint=eastwest;fontFamily=Roboto;fontSource=https://fonts.googleapis.com/css?family=Roboto;fontSize=16;strokeWidth=1;" parent="gfkMDF6y4Bmy0vj6MOeb-1" vertex="1">
          <mxGeometry y="229" width="1010" height="114" as="geometry" />
        </mxCell>
        <mxCell id="yEH1g2MeN_tcW7W8u39M-2" value="" style="shape=partialRectangle;html=1;whiteSpace=wrap;connectable=0;overflow=hidden;fillColor=none;top=0;left=0;bottom=0;right=0;pointerEvents=1;fontFamily=Roboto;fontSource=https://fonts.googleapis.com/css?family=Roboto;fontSize=16;strokeWidth=1;" parent="yEH1g2MeN_tcW7W8u39M-1" vertex="1">
          <mxGeometry width="356" height="114" as="geometry">
            <mxRectangle width="356" height="114" as="alternateBounds" />
          </mxGeometry>
        </mxCell>
        <mxCell id="yEH1g2MeN_tcW7W8u39M-3" value="" style="shape=partialRectangle;html=1;whiteSpace=wrap;connectable=0;overflow=hidden;fillColor=none;top=0;left=0;bottom=0;right=0;pointerEvents=1;fontFamily=Roboto;fontSource=https://fonts.googleapis.com/css?family=Roboto;fontSize=16;strokeWidth=1;" parent="yEH1g2MeN_tcW7W8u39M-1" vertex="1">
          <mxGeometry x="356" width="109" height="114" as="geometry">
            <mxRectangle width="109" height="114" as="alternateBounds" />
          </mxGeometry>
        </mxCell>
        <mxCell id="yEH1g2MeN_tcW7W8u39M-4" value="" style="shape=partialRectangle;html=1;whiteSpace=wrap;connectable=0;overflow=hidden;fillColor=none;top=0;left=0;bottom=0;right=0;pointerEvents=1;fontFamily=Roboto;fontSource=https://fonts.googleapis.com/css?family=Roboto;fontSize=16;strokeWidth=1;" parent="yEH1g2MeN_tcW7W8u39M-1" vertex="1">
          <mxGeometry x="465" width="80" height="114" as="geometry">
            <mxRectangle width="80" height="114" as="alternateBounds" />
          </mxGeometry>
        </mxCell>
        <mxCell id="yEH1g2MeN_tcW7W8u39M-5" value="" style="shape=partialRectangle;html=1;whiteSpace=wrap;connectable=0;overflow=hidden;fillColor=none;top=0;left=0;bottom=0;right=0;pointerEvents=1;fontFamily=Roboto;fontSource=https://fonts.googleapis.com/css?family=Roboto;fontSize=16;strokeWidth=1;align=center;" parent="yEH1g2MeN_tcW7W8u39M-1" vertex="1">
          <mxGeometry x="545" width="465" height="114" as="geometry">
            <mxRectangle width="465" height="114" as="alternateBounds" />
          </mxGeometry>
        </mxCell>
        <mxCell id="gfkMDF6y4Bmy0vj6MOeb-17" style="shape=partialRectangle;collapsible=0;dropTarget=0;pointerEvents=0;fillColor=none;top=0;left=0;bottom=0;right=0;points=[[0,0.5],[1,0.5]];portConstraint=eastwest;fontFamily=Roboto;fontSource=https://fonts.googleapis.com/css?family=Roboto;fontSize=16;strokeWidth=1;" parent="gfkMDF6y4Bmy0vj6MOeb-1" vertex="1">
          <mxGeometry y="343" width="1010" height="160" as="geometry" />
        </mxCell>
        <mxCell id="gfkMDF6y4Bmy0vj6MOeb-18" value="" style="shape=partialRectangle;html=1;whiteSpace=wrap;connectable=0;overflow=hidden;fillColor=none;top=0;left=0;bottom=0;right=0;pointerEvents=1;fontFamily=Roboto;fontSource=https://fonts.googleapis.com/css?family=Roboto;fontSize=16;strokeWidth=1;" parent="gfkMDF6y4Bmy0vj6MOeb-17" vertex="1">
          <mxGeometry width="356" height="160" as="geometry">
            <mxRectangle width="356" height="160" as="alternateBounds" />
          </mxGeometry>
        </mxCell>
        <mxCell id="gfkMDF6y4Bmy0vj6MOeb-19" value="" style="shape=partialRectangle;html=1;whiteSpace=wrap;connectable=0;overflow=hidden;fillColor=none;top=0;left=0;bottom=0;right=0;pointerEvents=1;fontFamily=Roboto;fontSource=https://fonts.googleapis.com/css?family=Roboto;fontSize=16;strokeWidth=1;" parent="gfkMDF6y4Bmy0vj6MOeb-17" vertex="1">
          <mxGeometry x="356" width="109" height="160" as="geometry">
            <mxRectangle width="109" height="160" as="alternateBounds" />
          </mxGeometry>
        </mxCell>
        <mxCell id="gfkMDF6y4Bmy0vj6MOeb-20" value="" style="shape=partialRectangle;html=1;whiteSpace=wrap;connectable=0;overflow=hidden;fillColor=none;top=0;left=0;bottom=0;right=0;pointerEvents=1;fontFamily=Roboto;fontSource=https://fonts.googleapis.com/css?family=Roboto;fontSize=16;strokeWidth=1;" parent="gfkMDF6y4Bmy0vj6MOeb-17" vertex="1">
          <mxGeometry x="465" width="80" height="160" as="geometry">
            <mxRectangle width="80" height="160" as="alternateBounds" />
          </mxGeometry>
        </mxCell>
        <mxCell id="gfkMDF6y4Bmy0vj6MOeb-21" value="" style="shape=partialRectangle;html=1;whiteSpace=wrap;connectable=0;overflow=hidden;fillColor=none;top=0;left=0;bottom=0;right=0;pointerEvents=1;fontFamily=Roboto;fontSource=https://fonts.googleapis.com/css?family=Roboto;fontSize=16;strokeWidth=1;align=center;" parent="gfkMDF6y4Bmy0vj6MOeb-17" vertex="1">
          <mxGeometry x="545" width="465" height="160" as="geometry">
            <mxRectangle width="465" height="160" as="alternateBounds" />
          </mxGeometry>
        </mxCell>
        <mxCell id="gfkMDF6y4Bmy0vj6MOeb-22" style="shape=partialRectangle;collapsible=0;dropTarget=0;pointerEvents=0;fillColor=none;top=0;left=0;bottom=0;right=0;points=[[0,0.5],[1,0.5]];portConstraint=eastwest;fontFamily=Roboto;fontSource=https://fonts.googleapis.com/css?family=Roboto;fontSize=16;strokeWidth=1;" parent="gfkMDF6y4Bmy0vj6MOeb-1" vertex="1">
          <mxGeometry y="503" width="1010" height="58" as="geometry" />
        </mxCell>
        <mxCell id="gfkMDF6y4Bmy0vj6MOeb-23" style="shape=partialRectangle;html=1;whiteSpace=wrap;connectable=0;overflow=hidden;fillColor=none;top=0;left=0;bottom=0;right=0;pointerEvents=1;fontFamily=Roboto;fontSource=https://fonts.googleapis.com/css?family=Roboto;fontSize=16;strokeWidth=1;" parent="gfkMDF6y4Bmy0vj6MOeb-22" vertex="1">
          <mxGeometry width="356" height="58" as="geometry">
            <mxRectangle width="356" height="58" as="alternateBounds" />
          </mxGeometry>
        </mxCell>
        <mxCell id="gfkMDF6y4Bmy0vj6MOeb-24" style="shape=partialRectangle;html=1;whiteSpace=wrap;connectable=0;overflow=hidden;fillColor=none;top=0;left=0;bottom=0;right=0;pointerEvents=1;fontFamily=Roboto;fontSource=https://fonts.googleapis.com/css?family=Roboto;fontSize=16;strokeWidth=1;" parent="gfkMDF6y4Bmy0vj6MOeb-22" vertex="1">
          <mxGeometry x="356" width="109" height="58" as="geometry">
            <mxRectangle width="109" height="58" as="alternateBounds" />
          </mxGeometry>
        </mxCell>
        <mxCell id="gfkMDF6y4Bmy0vj6MOeb-25" style="shape=partialRectangle;html=1;whiteSpace=wrap;connectable=0;overflow=hidden;fillColor=none;top=0;left=0;bottom=0;right=0;pointerEvents=1;fontFamily=Roboto;fontSource=https://fonts.googleapis.com/css?family=Roboto;fontSize=16;strokeWidth=1;" parent="gfkMDF6y4Bmy0vj6MOeb-22" vertex="1">
          <mxGeometry x="465" width="80" height="58" as="geometry">
            <mxRectangle width="80" height="58" as="alternateBounds" />
          </mxGeometry>
        </mxCell>
        <mxCell id="gfkMDF6y4Bmy0vj6MOeb-26" style="shape=partialRectangle;html=1;whiteSpace=wrap;connectable=0;overflow=hidden;fillColor=none;top=0;left=0;bottom=0;right=0;pointerEvents=1;fontFamily=Roboto;fontSource=https://fonts.googleapis.com/css?family=Roboto;fontSize=16;strokeWidth=1;align=left;" parent="gfkMDF6y4Bmy0vj6MOeb-22" vertex="1">
          <mxGeometry x="545" width="465" height="58" as="geometry">
            <mxRectangle width="465" height="58" as="alternateBounds" />
          </mxGeometry>
        </mxCell>
        <mxCell id="gfkMDF6y4Bmy0vj6MOeb-27" value="&lt;font style=&quot;font-size: 20px;&quot;&gt;CONTROL DE VERSIONES&lt;/font&gt;" style="rounded=0;whiteSpace=wrap;html=1;fontColor=#FFFFFF;labelBackgroundColor=none;fillColor=#36393D;fontSize=20;align=left;" parent="1" vertex="1">
          <mxGeometry x="500" y="300" width="1010" height="41" as="geometry" />
        </mxCell>
      </root>
    </mxGraphModel>
  </diagram>
</mxfile>
